<mxfile host="app.diagrams.net" agent="Mozilla/5.0 (X11; Linux x86_64) AppleWebKit/537.36 (KHTML, like Gecko) Chrome/130.0.0.0 Safari/537.36" version="24.8.3">
  <diagram id="nZzjfvsDeQVkUZYjvxki" name="Page-1">
    <mxGraphModel dx="1272" dy="1311" grid="1" gridSize="10" guides="1" tooltips="1" connect="1" arrows="1" fold="1" page="1" pageScale="1" pageWidth="850" pageHeight="1100" math="0" shadow="0">
      <root>
        <mxCell id="0" />
        <mxCell id="1" parent="0" />
        <mxCell id="qIvfzEY7CYZeFkJPYe9R-42" value="" style="shape=image;verticalLabelPosition=bottom;labelBackgroundColor=default;verticalAlign=top;aspect=fixed;imageAspect=0;image=data:image/png,iVBORw0KGgoAAAANSUhEUgAAAYkAAAB6CAYAAABKrK++AAAABHNCSVQICAgIfAhkiAAAABl0RVh0U29mdHdhcmUAZ25vbWUtc2NyZWVuc2hvdO8Dvz4AAAAtdEVYdENyZWF0aW9uIFRpbWUAU2F0IDE3IEF1ZyAyMDI0IDA1OjE0OjM2IFBNIENEVClJ7YQAACAASURBVHic7Z15eBRV1sbfqq5ekk530unsC4QlskZMIEBYBFlEEFlFBEUG/FAcZvATlRFUVgfUQUS+AUYciTqIjuKGwuCCaACFEGRJ2EIIkI3sa3d6q6r7/dHTLU06SW9JCLm/5/F5pLqqzq2b7vPWvffccxhCCAGFQqFQKE5g27oBFAqFQrl1oSJBoVAolEahIkGhUCiURqEiQaFQKJRGoSJBoVAolEahIkGhUCiURqEiQaFQKJRGoSJBoVAolEahIkGhUCiURqEiQaFQKJRGoSLRShw7dgyTJk3CqVOnGj3n8OHDmDx5Mj788EP7MVEU8c4772DEiBFQq9VISEjAihUrUFxc7PQeFRUV+Otf/4rk5GT4+/sjJSUFW7duhdls9qr9586dw+OPP46ePXvC398fiYmJePnll1FTU+Nw3oULFzBu3Dj8+9//hiiKDe4zd+5cbNy4EQaDAYQQfPXVVxg7dqzDf4888gjWrl2L/Px8r9rsKUVFRXj99dcxYcIELF26FFlZWfAme01NTQ0eeOABfPnllz5spWtkZGTg4YcfRmVlZavbptweUJFoJUJCQpCdnY29e/c6dThmsxnvvfceDh48iHHjxoEQgszMTKSkpODVV19FaGgo5s6di8TERHz44YeYMmUKLly44HCPo0ePYvTo0fjoo4/Qp08fPP7444iMjMTq1asxefJklJSUuN3u2tparFmzBnfffTcyMzMxdOhQ/M///A/uuOMOfPLJJ+jTpw9+/vln+zPV1NTgu+++w7p165Cdnd3gfr/88gvOnTsHQRAAAHl5eUhLS0NtbS3MZjPMZjPy8vLwySefICUlBe+88w4MBoPb7faUnJwczJw5E6mpqdDpdDhw4AAefPBB7N+/36v7mkwm+zO3JhUVFTh06BBMJlOr26bcJhBKq1BfX0+WLFlCevXqRcxmc4PPL168SAYPHkxmzZpFCCGkoKCA3HvvvSQhIYEcOXKE8DxPCCFEEATy448/kr59+5Lx48cTURQJIYRcuHCBREREkIkTJ5Jz587ZjxsMBrJz504SEBBAnnrqKSIIgsttFkWRvPbaa4TjOLJ+/XpSVFRkv6/FYiEZGRnkrrvuIgMHDiTXr18nhBBy9OhRwjAMYVmW/OEPf2jwrN27dyePP/44qaurI6Ioks2bN5OoqCiSm5trP8disZDs7GyyaNEiEh8fT9LS0lxus7esX7+eDBo0iBw/fpyIokgKCwvJY489RiZMmNBqbfAl+/fvJ1FRUaSoqKitm0Jpp9CRRCuhUChw9913o7a2FkeOHHH4jBCC3377DRcuXMDzzz8PQgi+//57HD9+HO+99x6GDBkCiUQCAGBZFsOHD8fMmTMRHBwMk8kEQgjeeustlJaWYuPGjejVqxcYhrHbnTlzJsaOHQuVSgWLxeJymy9duoSPPvoI06ZNw9NPP43IyEj7fTmOQ//+/bFhwwbExsY6TGcolUr07dsXn3/+OXbv3u12X3Ech/j4eCxZsgRhYWH4/PPP3b6Hp+Tk5CAuLg49evQAwzCIjIxEQkICrl271uR1WVlZWLx4McaNG4fZs2fjvffes4+A9Ho9nn32Wfz888/28wsLC7FixQqMGTMGixYtwoEDB/C3v/3NPjrMyMjAiy++CL1ej7Vr12LChAmYN28eTpw44WC3tLQUr732GqZNm4bhw4djwYIF+M9//tPo9GJdXR127NiBGTNmYOzYsXjhhRdw6dIlb7qMcrvTxiLVoaiqqiIjR44kAwYMcDhuNBrJ4sWLycCBA0llZSUxm81kxYoVJDo62j6CaAqj0UhGjx5NIiIifNred955h/j7+5P8/HyXrzl69CgJDAwk27ZtI/379ydRUVEkLy/P/rkrIwkbJpOJLFu2jHTv3t2tEZA3fPzxxyQhIYH88ssvxGQykcLCQvLggw+Sxx57rNFrMjMziUqlIjExMWTUqFEkISGByGQy8uyzzxKe50lZWRnx9/cnmzdvtj/XsGHDSFBQEBk2bBiJj48nWq2WaDQasn//fkIIIR9++CEJDQ0l48ePJ3FxcWTYsGEkMDCQhIeHk6tXrxJCCKmpqSFdu3YlWq2WDB06lIwePZpERkYSf39/cvjwYUKI40jCbDaTtWvXEj8/PzJ8+HAycuRIEhkZSTQaDdHr9S3cs5T2Ch1JtCKBgYG49957kZWVhYsXL9qPl5WV4dNPP8Wjjz4KtVoNk8mE0tJSxMbG2t/cm6Kqqgp6vR49evTwaXvr6upgMpmg1WodjhcVFSE7O9vhv7KyModzAgMDsW7dOhgMBqxbtw51dXVu25dKpQgODkZZWRl0Op1Xz+Iq9913H5KSkjBp0iQkJSUhOTkZV65cwfPPP9/oNZ999hkkEgmOHj2KAwcO4OTJk3jllVcAANXV1Q3Of//993H9+nV88cUXSEtLw+nTpzFr1qwGfWQ2mxEXF4fz58/j0KFD+Oyzz1BVVWUfnR0+fBhdu3bF3r17cfjwYfzwww84evQohg4d6nT0VVZWhm+//RZ/+9vf8PPPP+PgwYP49ttvMW7cOKSnp3vTbZTbGK6tG9CRYBgGc+bMwbp165CamopXX30VALB//374+fkhKSkJEokEhBBYLBZwnGt/Hp7nIQgCpFKpT9sriiIIIWBZx3eJt956C2lpaQ7HZs2ahT/96U8Ox8aOHYs//elPeP/99zFx4kRMmDDBLfsMw4BhGJjNZvA879lDuElaWhry8vLw0EMPoVu3bigpKcHRo0exb98+9OnTx6loh4SEwGw2480338SgQYOQlJSEP//5z2BZFjKZDOXl5fZzBUHAjh07MHDgQAwbNgwMw8DPzw8PPfQQvvnmG4f7ymQyvPzyy1AoFACA5ORkCIKA0tJSAMDgwYOxfft2dO7cGWazGUVFRcjNzQUAp0EDMpkMWq0WX3zxBXiex1133YU777wTO3bssNugUG6GikQrExUVhcceewy//vorKisroVQqsW7dOgwcOBCJiYkArD/mkJAQHD9+3KV7BgUFQalUoqKiwqdtlUgkYFkWFosFcrncfvzee+91GLUsXLgQQ4YMaRC1xTAM/vjHP+LgwYN4/fXXMWzYMLfsC4IAo9GIoKAg+Pv7e/cwLsDzPNasWYOUlBSsXbsWgYGBMBqN2LlzJ9avX49Zs2YhNja2wXUPP/wwjh8/ji1btiA1NRVBQUHo27cvnnnmGYwYMcLh3Pr6emRlZWHAgAEOLwEhISENRmwcxzkcs4m1LbQ4ODgYmZmZWL58Oc6fPw+dTof6+npUVVVhzJgxDdqp0Wjw5JNPYvHixVi+fDkCAwMRGRmJyZMnY/ny5S6/lFA6FnS6qZVhWRbLly/HxYsXceDAAZw+fRpFRUUYMmSI3RFKpVKEhIQgNze30dDF3bt3Y/jw4Th58iT8/f2hVCqRlZXV6ML0xo0b8cADDyAnJ8fltnbp0gVarRaHDh1yOD569GjMnz/f/p9tUd0Z4eHheOaZZ5CVlYUPPvjA6d6JxqiursaZM2eQmJjYKm+65eXlyMnJQWJiIgIDAwFYF/6Tk5PBsiyOHTvm9Lrg4GDs2LEDFy5cwPLly9GpUyekpaXhySefxNGjRx3O5TjOaQABz/Nuj5b279+Pe++9F9nZ2Rg5ciSeeeYZfPrpp5g9e7bT8yUSCcaNG4dz587hs88+w+TJk6HT6fDKK69g1qxZbtmmdByoSLQBUVFRGDFiBE6ePIkNGzYgLCzM4UfKsiyGDRuGyMhIrF+/vsE+gfLycuzatQtnz55FXFwcWJbFY489Bp7nkZqa2iCy5dq1a9i8eTNKSkoQFhbmcjvvueceDB48GE8++SQyMzMbjBQIIcjOzm7S8TMMgzFjxmDq1Kl44YUX7FMlrnDkyBGkp6dj5syZLl/jDf7+/lCpVCgvL3fY01BZWQmLxeK07wghOHToEP71r38hNjYWzz77LH788Uf88MMP0Ol0DTYEKhQKjB07FtnZ2fZ9K6IoIisrq9kIqhvheR4rV67EwIEDceTIEWzatAmLFi1CXFwciouLne7FqampwYcffoiCggLcd9992LZtG44fP44RI0Y0KoAUCh1ftgEMw2DGjBlYvXo18vPzMXv2bISGhjqck5SUhLlz5+KVV15BbW0tpkyZgoiICFRUVOCDDz7AkSNHsGbNGmg0GgDAlClTMGfOHKxZswbFxcUYP348VCoVLl++jO3bt6OsrAwbN26EWq12uZ1qtRrLly/HnDlz8MQTT+Dhhx/G0KFDERAQYN+k9fXXX0Oj0WDAgAEN1i5uvM///u//4rvvvnO6i9poNOLAgQN2J2wymXD27Fl8/vnnGDBgAEaPHu1ym71BpVLhwQcfxCeffIKYmBjcddddKCsrw7Zt29CpUyf079/f6XXp6elYv349jEYjhgwZAsC6qKxSqRr8XRmGwfPPP49JkybZQ2Crqqrwj3/8w+kid1Oo1Wrk5+cjLS0NsbGxKC8vR2pqKtLS0uztuBGDwYCdO3di3759eOaZZ6BWq1FYWIjS0lLccccdbtmmdCDaMLKqQ5Obm0vuvvtuolAo7BvRbkav15M333yTaLVaEhwcTMLDw4lWqyVRUVFky5YtxGAwOJxfV1dHlixZQoKDg0lISAgJDw8nQUFBJD4+nnz77bcuhdM6o7CwkMybN4+EhoaS0NBQezsCAgLIjBkzSGZmJjEajYSQ30Ngd+3a5XAPURTJrl27iEQiaRACy7IsUalUJCgoiAQGBhK1Wk1CQkLIkiVLSEFBgX0DX2tQXFxMHnnkEYf+Tk5OJunp6Y1eU1VVRaZPn06USiUJCwsjYWFhRKPRkNdee40YDIYGIbCiKJLdu3eTbt26EbVaTTQaDZkyZQrp2bMn+f777wkh1hDYyMhIYjKZ7Hbq6uqIRCIhzz33HCHEGnobFRVFNBqNva0TJkwgDzzwAOnduzchxDEEVhAE8vXXX5O4uDj79yM4OJgMHDiQbrajNApDiBdJaSgeI4oirl27hqqqKiQlJTV5bnV1NY4dO4bc3Fx06tQJAwcObPCGeiN5eXk4deoU8vPz0adPH/Tv3x8qlcrrNhcVFeHMmTO4fPkyYmNjMWDAAIcNdgCg0+lw4cIF+3rGzfz2228ICgpC586dIZFIUFxc3GCaJTQ01P55W2A2m3Hq1CmcOHEC3bp1w8CBAxEUFNTkNeS/aVROnjwJhUKBwYMHo3PnzgAAi8WCU6dOoVOnTggPD0dlZSU4jgPHccjJyUFMTAwKCwuxYMECvPvuu+jTpw8qKipw7do1JCYm2vtXEAScOHECERER6NSpEwBr+POBAweg1+uRkJCAxMRElJSUoKioCElJSaipqUFubi769u1rj36rqqrCL7/8goKCAvTo0QODBg2Cn59fC/YopT1DRYJCaWVWrFiByspKvPDCC4iOjkZ9fT127NiB7du3Y//+/YiOjm7rJlIoduiaBIXSyowdOxazZ89GZmYmwsLCYDQacenSJcyaNcvp6ItCaUvoSIJCaWVEUcSZM2fw/vvvIzMzE126dMG0adMwatQoh/0oFMqtABUJCoVCoTQK3SdxGyOKIi5cuIC8vLy2boodvV6P9PR01NbWtnVTKBSKC1CRuI0RRRHfffcddu/e3Wq5j5qjrKwMa9asQVZWVls3hUKhuAAVidsYjuMQFhaGTZs2ub1Rq6Xw9/cHy7K31OiGQqE0Do1uus0ZOnQounXrhl9//RUPPPBAWzcHQUFBSEhIcEiV3tIIgoDjx48jPT3drdxRFEf8/PwwY8YMBAcHt3VTKK0IFYnbnJiYGKSkpGDZsmW4//77G02d0VrIZDJER0djz549IIS4VC/DW4xGI1JTU3H69Gn07t27VWzebtTU1CAtLQ0pKSlUJDoYVCRucxiGwYIFC7B9+3YcOHAAY8eObesmITIyEpcuXYJOp/PJTvDmIIRAEARMmTIFCxcubHOhbI9kZ2fj8uXLbd0MShtARaID0KVLF/Tu3RsrV67E6NGj29xJ9urVC35+fsjPz0fv3r1bza5CoYBarW7z52+PBAQEtFmalJvhed5p7RKWZR3+tqIoQhAEcBzns9EjIQSiKN4yfdEadFiRMBqN0Ov1Dl82iUQCpVIJmUxmP0YIgV6vB2D9oXgLIQT19fXgeR4qlarVHNY777yD++67DydOnEBycnKr2GyMzp07IyoqCj///HOrigTl9mDVqlX2Cnw2AgMDcccdd2DEiBH2fFe//fYbtm/fjhdffNGeR8tbcnNz8dFHH2HhwoUICQnxyT1vdTqsSBw4cAAffvihQ+0FiUQCrVaL5ORkTJkyBRqNBgaDAampqWBZFosWLfLKZkFBAT799FOcPn0aFosFd955J+bOnYuIiAhvH6dZevTogfj4eHz11Vf2MqlthZ+fH2JiYvDZZ5/hySefpG/2FLf47rvvcO7cOTz22GP277HFYsGuXbvw/vvvY+fOnejbty9kMhk0Go3PvutVVVV45ZVXcODAATz66KNUJG53cnJy8OWXX2LatGn2KmSEEOTn5+OTTz5BXl4eXnrpJTAMg8DAQK8dWVlZGZ5//nmkp6fjnnvugclkwtatW5GWloa9e/f64pGaZenSpVi1ahWuXbuGrl27wmAwoLy8HBERET6vj90cCQkJ+Oyzz6DT6ew1Lurq6lpljYLS/lGr1Vi7dq29YqEtC+/8+fPx4osv4ssvv0SfPn2wcuVKn1Q1PHHiBBYvXoxTp051uO9oh3+FW7FiBbZs2YItW7Zg69at+PTTTzFv3jxs27YNBoMBfn5+mD17Nh5++GEA1i+jxWKBKIoQRRH19fUwGAxOK4HdyI8//oiMjAx8/PHH+Oc//4ldu3Zh/fr1OH36NE6dOtUaj4ru3btDr9fj+PHj+OCDD5CSkoLXX3+9QSW7loIQApPJhLq6Otx1112or6/HG2+8gYcffhjR0dH4+OOPW6UdlPYPwzD2sr1KpRIBAQEYPHgwunbtirS0NBiNRpw/fx6vvfYaiouLAVjLvf7lL3/BpUuXsGrVKowdOxbPPvssrly50uTvd+/evXjooYfAsizWr1/f4dKqd9iRRGMoFArceeedMJlMuH79OmJjY7F3714wDINp06ahvLwcu3fvxpAhQ3Dy5EkcOnQIUqkU99xzDyZPnuz0rUUQBGzduhXTp09HYmIiAOuXfNKkSVAoFK3yZlJdXY2cnBxERUVh/vz5qK+vBwDcd9994LjW+RqUlZVh06ZNOH36NDIzM8HzPNasWQPAOtV3zz33tIhdlmXh5+fnsNZEcQ+pVIqAgIBbOny4pqYGer0eYWFhkEgkyMnJwd///ndMnToVUVFROHLkCDZu3Gjfo6PVavH555/jzJkzSE1NRUxMjNP7xsTE4I033sCECRNw8ODB1nykWwIqEjchiiJ0Oh1YloVSqYTJZMKePXvAsiymTZuGiooKpKam4osvvoCfnx+6d++OrKws7Nq1C0ajEXPnzm1wT71ej7Nnz+Khhx7CwYMH8cMPP6C+vh7Dhg3DxIkToVQqW/SZvvnmG7z33nvIyMhAXl6ew1uTUqlsNZGQyWTIycnBf/7znwZvbl26dLEX0vE1crkc8+bNg1qtvqWd3K1MZGQkVq5cidjY2LZuCgBrhFN2drY9a65er8eePXuQmZmJNWvWNPlCMHr0aMydOxd+fn7Yv38/nn76aZw7d65RkejXrx/69evXIs/RHqAicQOCICA9PR2pqano3bs3QkJCYDAYnJ5rsVjwySefQKFQoLq6Gv369cN3333nVCR0Oh3MZjN2796Na9euITIyElVVVdi5cyf+8Ic/4M0332zR5+rRowcyMjIaVIADrI67tRxnUFAQVq9ejcuXL+O3335z+Gz69Okt9qYvkUiarf5HaRp/f/8WG+l5Qnl5OcaOHWv/7oqiCIPBgEceeQSPP/54k9fOmDHDvg42evRoWCwWVFRUtHib2ysdXiT69etn/6KxLAu5XI7OnTtjw4YNkMlkjYrEE088YS9pGR4ejpiYmEYzmxoMBvvo5Ntvv0V8fDwsFgu2b9+Ol156CQ8++CCGDh3aMg8IID4+HmfOnMHEiRNx7NgxhzUIhmFa9e26Z8+eeOmll7Bo0SJcv37d3oYRI0a0Whso7R+VSoVly5bZAy5CQ0ORmJiI7t27NxtkcuOUsEQiASGk2TXFjkyHF4klS5bY60VzHIeYmBgkJSU1O6y+MTWBbSNPY8jlcvj7+2PGjBmIj48HYJ3jnTNnDt5++228+eabLSoSgDUaZPfu3Xj55Zfx0Ucfoa6uDgBaPfyUYRhMnDgRly5dwosvvgie5xEeHo6uXbu2ajso7RulUomFCxd2uEXktqDDi8TcuXNxxx13tKgNlUpl3+17IwqFAizLorS0tEXt2wgLC8PatWsRHR2NVatWgWVZSKXSVp+nl0ql+OMf/4hr165h27ZtGDRokF2oKRTKrUWHD4FtDVQqFe68807k5OQ4DGtrampgsVgwbNiwVmtLWFgYli1bhk8//RT+/v4+iSH3hICAAGzYsAGjR49GQkKCT3azUygU39PhRxKtAcuyePbZZ7F8+XJ06dIFycnJMBgM+Mc//gGTyYTnnnuuVdsjlUoxffp0BAcHQxCEVrV9I35+fnjzzTdRUVHR6pv5KO2XkJAQ8Dzf7AhYoVA4bBRVqVSIjIx0mGJlGAbh4eEuT1vJ5XKEh4e3WkTgrUDHedKbUKlUiImJadY5sSwLrVZr/2JxHOf0SxUREdHkNv2RI0di/vz52Lx5M/R6PSwWC6KiovD666+3WerlkSNHtondG+nbt2+rpQyn3B6sWrUKZrO52Wi4/v37Y+vWrfbQ6unTp2PAgAHw9/e3n8NxHDZt2mRfK2yOhIQEvPHGG9BqtZ4/QDuDIR10Wb+0tBQFBQXo3bt3k1MugiAgLy8PDMMgLi4ORqMRV65cQXR0tMMaw/nz58FxXJNfNoPBgCtXrqC0tBQsyyImJgadOnXqUG8lFAqlfdFhRYJCoVAozUNfYW9BioqKsHjxYgwfPhxz5szxajoqPT0du3btoqMVSqvSq1cvzJw50+OABEII0tPT8cYbb+Chhx7Cgw8+6OMWUlyFeo5bEK1Wi5kzZ2LDhg04fvw4lixZ4vGO4YKCAmRkZNCSk5RWxWKxYNKkSR6JhF6vx86dO7Fjxw4MHDiwzeufdHRoCOwtiFwux9SpU/H+++9Dp9Nh/vz52LNnT5tGIlEorcH169fx7LPPYvXq1Vi4cCHWrl3rs4JBFM+gI4lbFI7j0LNnT3zxxRdYvXo15s2bh9WrV+OJJ55wiOooLi7GtWvXMGjQIJfue3OJR19hS51uQyKRtEjEkiAI9r0mDMO0SPEkW4lKm53W6rOWsHPzs9iyA/j6b3OznabgeR5nz57FnXfeaW8HIQQFBQWYN28eKioqkJaWhu7du/u0jRTPoCJxi8MwDJYvX4477rgDr7/+OjIyMrB06VL07NkTOp0OTz31FIKDg9GnTx+XhvZ9+/bFkJQUnzpXURBw6vRpHEtPhyiKkMvluPvuEejevbtPnZFer8fPP/+Eq1evArBmJh05ciQCAwN9WsO4sLAQP/30kz0XV9++fTFo0CCf7uUQRREnT55ERkYGBEGAVCpFcnIyYmNjfdpnFosF6enpyM/PB2BNzzJ48GBoNBqf2QCsVduOHj2KmpqaZs/98ccf8dRTT+Gtt97C/fffj9raWuzfvx8rV65ESkoK3n77bXTr1s2n7aN4DhWJdoBMJsOsWbMQHx+PTZs2YcGCBViyZAkOHjyIL7/8EtHR0cjMzERKSkqz9woLDcWdvXqBFQSfCAUvCCASCcorKpB+/DgA6yioU6fOiI/vC4bxTRF6QeBhNutw+vTvBZoCAgLQo0cPBAQE+OTt2PY2rFAo8Ouvv9qPh4aGokePHj4buYiiCIZhUFxc7JBcMioqCnFxcT7bN2Kzc+HCBfsxuVyOTp06ISgoyGejFlEUoVarcfLkyWbP1el0+PLLL3H16lUsWLAAW7ZswZEjR/DDDz9g8eLFmDlzZofag9AeoCLRTmAYBsnJydi8eTP++c9/4rnnnkNhYSEAazTUzp07MXjw4GadC8Mw4FgWRKcDzGZwXjgKXhTBymSAkzoNDMMC4FBdLQCQe+X0RNEMpVIClpUAcLwPy7IghKCqqsprB25zdjc7T5s4GAwGmEwmr5wrIQQSiQQqlcppnzAMA51OB0EQvLLD8zyUSqXTDWe2PquurvZJn6lUKpfbevXqVXz66acQRRHFxcV44oknkJCQgO3bt2PAgAFtWnud4hwqEu0MrVaLUaNGYefOnbBYLACsjuedd97BmjVrXH4L41gWTE0NmPp6SDxw4AIAiZ8f2LAwNLacbk1DrkBJiQhB4HCzg3cNHkFBUgQEiGhqupvneZSVlXmc8pllWYSEhDQpZgzDoK6uzl7VzxPkcjlCQ0MbtcMwjF30LBaL2+Jqe36VStVoxUNbenhBEFBeXu7eA9xgx5aNwJ02bt261cFmVVUVUlJS0K9fPyoQtyhUJNoZ1dXV+Nvf/oasrCyH4xaLBU888QR2797t8o+WIwRMeTkkdXVg3XCuAgCiUoGNjYXFBVs8L0VhIQOTyT2hkEgEaLUSBAURAGKz59fX16OsrMztKDCpVIqIiAiX+62yshK1tbVuCRLDMFAqlYiOjnbpfJ7nUVJSAqPR6JYTZhgGQUFBLpfENRqNKC8vd6vPCCGQSqUICwtz+RoAuHjxIlJTUx2OiaKIt99+G0lJSXQvxC0KFYl2BCEEu3fvxr59+5x+/tVXX+Hw4cMYPny4azdkGHCCAKaoCGxNjUtfBgsAVq0G2727SwJhhYXRKMHVqwQmkwyuCAXLWhAWJkFwMAOGsbhkhRCC2tpaFBcXu+zAbTVE3HHEoiiitLTUpUVaG0qlEnFxcS6fzzAM2+RzAAAAGadJREFUzGYzCgoKYDQaXb4mJCQEgYGBbtmpq6tDSUkJeJ536RqO4xAVFeWyDcD6t1m6dKnTZ6mqqsLGjRsxZswYeyEvyq0DFYl2BMMweOihhzBq1CicPXsWGRkZOH78OE6cOIHS0lIIgoBNmzZh6NChLs8RM/8VChQVgdTUgGvCufIMA1athkSphGtu+0YkMBoluHKFh9EoR1NCIZGYERYmQWgoAeDe9BEhBDqdDmVlZQ7hpc6wjSA8QRRFlJeXN1qN8Eb8/Pw8jvU3m80oLCxsdorLNvXj6abJuro6FBcXNysUHMe5PBq6kYMHD+Knn34CYJ1y69GjB5KTkzFgwAAkJycjOjra5dEPpXWhItHOUKvVUKvV6Nq1Kx544AEAVoeVn5+PkydPori4GEVFRY0WdW8Mnuex6vx5/ENXCZm84dywxSLiMb8grEtKgucVKBjU1RXh9OkHIZWcBcc5ChkhBPVGCaKj/47Q0DlwVyBuvE9hYSHOZp2GQo4GowRBJBAEDskDB3ssEoB1qubEiQxYzEY4G4gQwiI6JtbrcE69Xo9z586CYy2QSG4yRACDkUdIWLTXYa1lZWW4euUyApQN97gIAkG9QcAdPXp5JBJVVVV47bXXcNddd6F3794NCnBRbl2oSNwGsCyLzp07e7UzVSAEJTyPR6bFISUpxME9MwAuXq5FySclELzMB0mICX7yGjw9vyc6Rysd7FgsIj766hquXNfDU4GwIQgC+vZQ4/GZXSC/SfTKK03Y9q/cZkcazWGxWECEWkwZG45QrcKhyYIoYs/3RY3WSHcHURQh44C/PNUbEaEKh54RRYI93xci46x3z2IL/40IlePFP/dp0Gel5UZs25njcWDA9OnTvWofpe2gIkFxoGd3NRJ6BqKoxGCPJtIEySCTsSiFb8qsSqUsEvtqEBggRU2ddeKKZRmEaOT4+Wgprlz3iRmEaeUYcGcwKqpNMJmsTlQmYxEdrkCA0jcb47QaOaaNj4UmUAqet+1qBlRKKbKya5FT4BMz4DgWA/oFQyFjUVlt/q8dBqFaGU6fq0LGWc8jrm5EqeQwKFGLsgoTjCbrYrZEwiA8RA51AAfXVi0otxNUJCgNMFsITmRV4Wq+DiEaBcbeHQ5v3+ydUaPj8eOvJaiptSA+LgDDkkN9bkUkBHmF9cg4UwkQYEC/YMRG+jd/oTs2RIKCQgNOnq+CwBPERPphcFLjBag8hgB1Oh5p6WWoqDIhLlqJkUPcizByyQwBiooNOHqyHBaBoH+CBp2ifNtnlPZDhxEJk8mEnJwc6HQ6h+MymQwqlQpRUVH2ilUVFRXIy8tDv379fLYrtaamBuXl5YiLi3OIB7dYLMjLy7NHygQFBd0ShYjMZhHXCuohl3NN7k/wBgKCmhoL8orq0Tla2TJGYF2DuF5qXTdoqWcRAVzJ06G80ozgoKYrpnkDAUFtnQVX8/WICnOt5KYniISguNwIs1kE6evbFB6U9kWHEYmioiLMnz8fmZmZCA0NtR9XKpVQKpWYNm0aFi9eDKVSicOHD2PdunU4dOhQsyUSXcFgMGD16tUoLS3Fli1b7CGKBoMB//znP/H+++/b4+6DgoIwf/58PP744z6x7SmhwXIMTQ6B0s83aTWcIWEYdO+iQkykX4s6Vn+FBEl9raGVcnnLJD5mAESG+UETKINC0XKbwiQsg66dlAgLkUMbJPNoe6IrKOQsEntrIIgEchlNFt2R6TAiYaN///7YvHmz/d88z+Prr7/G//3f/yEhIQETJ07E8OHD8e677/okoVtpaSleeukl/Otf/8LUqVPtxwkh2Lt3L1599VU8/fTTuOeee0AIsWd9DQ8Px7Rp07y27zYMoA7gMGRAiH2GSS5nUVll8rUZREf4ITRYbj/AcYzPnZ6UY9ErPhA9ulqjaVgJg5o6s09tMGAQFiLHmOHWSCmOY8CyvnffDAOEhypwT0q4zXCLOHCWBe7oqka3ztaQVIYFqqp922eU9kOHEwm1Wo3ExESHY6GhoUhLS8O///1vTJw4EcHBwdBoNA5pjG1UVFSgsLAQ8fHxDgXVb4YQgl9++QVPPfUU8vPzMWrUKIfPeZ7HkSNHEBUVhaVLl9qPJyUlYdeuXcjIyGh1kWAA7PgoF9//VNxgG0NZpQl9fDRVU6e3YN2Wc9CoHUcPgkBw9lINOLlv7JzIrMLSv56CVOroSPX1PPKv10Pjg+l8nc6CjMzKBuscV/P0KCkzAvBN7H+9UcDKjZlQBzi+uIgiQfaVOgC+2YRWcN2A5145BdlNfaar53E1vx4xnXxihtKO6HAi4QyZTAa5XI7SUmv0zq5du7B06VJcvnwZLMvihRdewDfffINHH30UH374IfR6PQwGA9avX4/58+c7zTkjiiKuXr2KIUOGYNmyZUhNTUV2drb9c4lEgsWLF2PWrFkO17EsC4XC850IniJlWUwJDYVfdQ1IdcNwyhhIMVKjgszL/DoymRZa7ZPILchz+jnDcAhWJ8KqUp6rklqtRpUyHBeuOUs3wSFYq/a6nzmOg5FXYlNqodPPraHJAV5P18lkMmg0Wly8agKcxhf5Q6t1njDQVRiGgb+/P/yVwTh9UYSzNCgKfw3kch8pOKXd0OFFghCCrKws5ObmYuHChY2el5+fj+vXr+Ott94CAGzZsgUbNmzAfffdh9jY2AbnsyyLSZMmYdq0afDza7jAyLIsunTpgi5dujgcT09PR3V1NXr37u3lk7mOQAgYtRoT+/bFA02cRwAIMlmjCf2ag2UtiIgIQmjoX5o8j2FEyOU8PEsIaBXgzp07o1Onpl97vSnyY1s/GjVqVKN7B2wFfqRSqccOnGEYaLXaZtNVMAzjlQPnOA6xsbHNbsJkWZYm4utgdDiRyMrKsouBLdfPsWPHEBwc3GSCMY1Gg3Xr1tl/rFKpFDNnzkRWVpZTkWAYxu00A5cuXcLChQuRlJSEyZMnu3Wtp/CiCIlKBa5bNxdS6FkROM7tTXUMY0FoKAdrklpXZIaBTOZ+8g9bLibX28V45MD9/f3dysXkqRgFBwe7lc/IE6GQSCSIjIx0eaNcS1UEpNyadDiRKCoqwscff2z/d6dOnXD//ffj6aefbnLHckhIiMOPNTg4GKIowmTyzYLulStX8Mc//hF1dXU4ePBgq+SxEQmB6O8Ppls3t3IxEQCCROKGUxEQEsJAq2XgmkD8bonjeJfDViUSiduJ5xysuWhIoVC4JRA23BEj20jFk4R37oRPMwzjUWoSXxVGotz6dDiRuPfee7F37163r2upHwQhBEePHsXatWvBcRx++uknn5eWdIYoihDlckhjYz3aRUsA8CwL0kxqC0IEqFQC1GoO8CAtICEiJJLmhcWWAdXTv5OrKTqkUikiIyO9+j64IkYBAQEICPBsPcNW2Ki5Z2IYBsHBwS3eZ5T2TYcTiVsJURSxZ88erFq1CsnJyVi2bJnbifk8QRAEMBIJOK0WgjfiR4i1tkQjzkIUeSgULPz9Obg3grj5PtZ7OVvIJoRAEAS3qqM1bkds1PHZ3py9caq2+9ja7Aye5yGTybxeVLe115kg2fI0eSpCN9JUn1FuD6hItCHHjh3D8uXLMX78eKxYscKtOgCeIggCRJaFVKWC6IPREUsIeFGEeJPTE0UeMhmgULg7xeQcQljU1vIgxNEhCYIApVLps5GeKIoNHLgoiiCE+MSp2uB5voFzFQQBUqnUZxFEhBBrEsKbhEIQBCgUihbtM8rtAxWJNsJkMmHXrl24dOkSgoKCMH78eIfPx4wZg6VLlyIgIMCndrPOnkW1G8VyXKWkpMTu9IxGIw4e/BGnTp30qQ2e53Ht2jX7v4uKivDZZ5/5fGe6TqdzKCiUmZmJqqoqn085FhcX252rxWJBeno6Ll686FM7giCgqKjI/u+amhocPHjQ52HWBoPBrSJMlPZDhxEJlUqFiRMnurQg3LVrV8ycOdMeIpmcnAyl0jG3UHBwMGbPnt1smKWNxMREREZG2h2a2WxGz549MWfOHKfnR0VF+Sxv1I2Ulpba94O0FIIg4MqVK7hy5UqL2tHpdA3KuLYEZWVlKCsra1EboiiisLAQhYXO91z4CpPJhMuXL7eoDcrtBUM8TRBPaRd8/vnn2Lhxo8cVyygUT+jSpQteeuklhzxplPYJzdxFoVAolEbpMNNN7QlCCMxmM6RSqc+nnO6++25MfuABSH2YilwQRRz86Sd8s3cvRFGEQqHAvfeOQ48evX3WfkII9Hodvv32P8jJuQQAiI2Nxfjx4xEUFOSzeXxCCAoKCrBv3z5UV1cDAAYMGIC7774bHOe7jLiCICA9PR1HjhyBIAiQyWQYN24cevbs6dM+s1gs2LdvHy5evAjAut9n4sSJCAsL82mflZWV4euvv0Z5eblP7km5daAicQtSUVGBd999F/3798eYMWN8em+5TAY/jgPD85D6wBnxogiR4xyiZRiGgUwmB8PIIQgSsKx3u3OtYaM8pFKLw0YxiUQCqVQKURQ93jl9I7b7yGQyB0ctlUrt+w58YUcQBHvbbdjSajAMA0EQfCIUoihCKpU69BnLspDJZPZQXG+fxTZb3RIvNJRbAyoStyByuRy1tbV4/vnnMWfOHCxevNinRYg4iQTQ6yHq9ZB6kV6BF0Ww/v5gnYZsMmAYKerrWVgsUjCMpw6EgBALVCqAZRv2Acuy9vQq3kAIAcdxjYa5siwLo9GI+vp6rxyrbaTVlB29Xg+z2ez1foyAgACn6TNsfabT6ax7Zjy0QwgBy7JQq9VUIG5jqEjcgqhUKqxatQrdu3fHwoULkZ6eji1btkBrTXzkEyQsC7a+HqiuhsyDH7hACKBWQwwIaHQXhLUSHIeqKilMJpnbQmF90zUjOJgBw5gaTc/BMAx4nkdFRYX9bd9dOzKZDKGhoY1eaxtBGAwGjwWJEAKlUgk/P78m7RBCUF1dDaPR6LED12g0TTruG/uM53mP+kwikSA8PJym57jNoSJxiyKVSjFv3jwkJiZi4cKFmDNnDlasWIFBgwY5/Cjr6+uh0+kQFuZ+cQQJAKa6GkxlJTg3gtwEhoGo0UCiVruQFJCBKEpRWsqhvl4O12MlCCQSM0JDCZylrW5ghWFgMplQUlICnncv0YhCoUBUVJTLzq62thZVVVVu7TS2JXx0deMfIQSlpaWor6932QZgnYILCQlxObWL2WzG9evXYbG4lzJFLpcjMjLSrWso7RMqErc4d911Fz766CNs3LgRixYtwoIFCzB79myo1WoQQvDGG28AAJYtW+bRlJQUAMrKgPJyl4SCZ1lAqwUXFORyJiaGAXheiuvXJdDrORDSnFAQSKUWhIdLERYmAnAtiaLtTb+oqMjpTmNn5/v5+aFTp05uJ9+rrKxEZWWlSzuNWZZFYGCg2xsjRVFEcXEx9Hq9S4LEcRzCw8MREhLisg2GYWA0GlFUVASTyeRSnykUCsTExNARRAeBikQ7oEuXLlizZg2++eYbvPDCC8jIyMDKlStx+PBhvPbaa+jevTumT5/ucQ0KjhCgvBx5xcXINhiclvphAMQpFIiLiIBUo/EgVR8Ds5lDURGPqqoL4Hnnm9MYRgqlsheiokIQHu62EQDW0VVhYSHq6uoada4SiQRBQUEub4Z0RlVVFUpKSmAwGBo9Ry6XQ6vVerxznud5XL9+HZWVlY2+7TMMA6VSiYiICI9GlIC1zwoKClBbW9ton9nEzps+o7Q/qEi0EzQaDebMmYORI0di8uTJmDRpEs6fPw+TyYQzZ87gt99+86pQkZnn8WpuLt6trLC++t8MAeYFB2ODVgtlw09dhEF9fT6ys2dA4POc1hQihCAm5v8QGbnAYyuANULsypXcRj9nWYnXhZ14nkdBQQEqKsqdv1UTAn9lANRqtVd2DAYDLl++DJPR2GifRUfHINxTVf3vPSoqKnD5ck6jIwRC0KrFsCi3BlQk2hmxsbHYtm0b5s6da69lQQjByy+/jOnTpzutgucKBICJEKx9LgHj74mCKP4+nmAYBr9lVeLohitwubhDE5Y0gRJsXpmC+K4qh+kNi0XEG+9cxLFM32QVHTU0HKv+ty8UcsfpreulRixdf8YnNgBg2aLeeHBC7E19Bvx0tBR//XvjQuUqhBAo/SXYtXkoOkUpHfpMFIF3/30Ze3/2TV2T+DgVdmwYCIXcMSqqsNiA5a/7rs8o7QcqEu0Ms9mMffv2IS/PsUb0tWvXsHnzZvzlL02XBm2OAKUUokiQm6cDLxCwDIOocD8EKDkPi4k2hGUYKJUcaussKC43WqOLpCyiwv0gl/uu4plcykIhl6C4zIBanXWqRqWUQiZjwUl8F7Kp9OcAAlwt0MNssUZXhYfI4SfnnA7KPIFlGKgDZNDpeVwvM0AUCTgJi9hI/wYO3RskHAOlvxTXSwyorjMDAPwVHKRSBhzHeFR7hNK+ocHN7YwjR47grbfeajAPTgjBX//6V/suYW/gBYJzObX48ttCHDtVAaOpZdJA6w08fskow57vipCdWwde8H0aMQKC4jIjvksrxndpxSitMDorS+E1gkhwMbcOe74vwq8Z5dAbWqbPDEYex05W4MtvC3HuUg14oQVqORCgrNKI7w+VYN+P11FcbmiRPqO0D6hItCNs8fNz587FoEGDEBwcjICAACgUCnAch7q6Orz88ssul+FsCotFREW1ucUEArD6nXqDgIpqM3i+5byQKBLU1FpQU2fxfrasCXheREWVCYYW7DMAMBgFVLZ0nxGgps6C6tqW7TPKrQ+dbmpHMAyDqVOnYurUqQCAuro6XLp0CRcuXMCFCxeQnZ0NiUSCmpoaj2oj2+0AiIn0x4RAOaRSBhJJy4Q6SiUs7uwVhN7xgVCrfDc1czNqlRTDB4aC4L9TQy0AwwBR4f64b0QkOI6BtIX6jONY9IkPRHycCv7+khYLQw3w5zBsQAgIsf6/z+YaKe0OKhLtGJVKhaSkJCQlJQGwjjSqqqq8qmxmsYhQKCTo3/f31OIcx6CouPEwT3chAHhBRFS4H4KDbojpZ6zTNr5CEAlAgG6dAtA11hqCyjBAZbUJIiHw1Uw+bxEhk7Lo1+t3YZZIGFy6WucjC7ZkfSLCQ+QYlPj7znuJhIHgw2k6IlrTrcTFKNE5+vc4trIqE0QR8FmnUdoNVCRuI2w1mD2FYxis33oem9/LbvCZ0STifuJ58OuN1NRa8NTyDMhkjrOdhABVNWZogn3z2noovRxTnziMm7NT8DxBVQ2P+Dt8YgZvpWbj3X/nNnjbrjcIMJmlzi9yE71BwPznj4HjHI0QAtTWWaAK9Dz89UZy83SYuqBhn1l4gooqM+LjfWKG0o6gIkEBAMglEvw5OhpD6+udr1H6AX38/eHnVaJBArk8GjGxW2GxFDf4lAEQEspBrU7xehpFrVZDFGOcbgyTckBUAOdxuLANiUSCsLAw1NcHOF0HUqoA7X/Xi7xBoVAgOjoGZrO5wWcMAI2WgVqt9qrPGMZ6j+iYzk77TMYB0dGs131GaX9QkaBAYBhAo0HfwEAkNHOumWUheuiMOI5HZKQUERHNpz+XycxwJWeTMxQKBeLi4po9j2EYh3Td7qJWq9GjR49mz7OVwfUElmURFhbmUoU3b+pdyGQydO7cGZ07d272XG/6jNL+oCLRweEBsBoNuMBAl2LgGVjzN7kTv0MIIJFYEB4OhIdLAJeutuZvcu3c31EoFIiNjXXrGo7j3I4IU6vVbqXaYFnWbQduG6m4mmrDls3WHWzXuJuLyVaTgnL7Q0WiAyMSAqJWg1Gr3c7FJML193yGsUCrBUJC3B0ZEEgkPFwN0pfJZIiKinLThhVbjQVXCAgIgFLp+fqMK3Zs60uerDG5M2rhOA6RkZEejUCc1aqg3H5QkeigiIRA8PODVKlEw5lu1+BF0YU0HTwCAwk0Gtezud6ItaaEBc0JBcuyCAkJ8Xi6xZUsq4QQyOVyREREeGWnKZGwfaZSqRAYGOiRDds9mhMjlmWh1Wo9ngqzVbej3N5QkeiACKIISCSQhoa6OZnjCAPAIgjWBELO7Ag8/PwEKJUc4EHe2N+xli8lpKEdm5PyduEW+N2BO3N8tpKirtZpaM5OY6Jkq1zn7+/vEzvOnoUQAlEUoVKpfFK+lIrF7Q0ViQ6GIIoQWRacSuXhsrAjElhHFDfXVRBFHlKpdc8FfJDxhxBArxcchMLmmG6sr+0tNgfumERPBMuyLhcMcgVBEBoIha0mtTf7XG6EEAKz2ezwLDaBUCgUPis5SoXi9oYh9C97W/P5559j48aN9rltlmVbZC75ZqfnTURPc3ZsX1mGYTxaEG4OmyO12WmpZ7l5RCGRtMwO6rbosy5duuCll15yKSqLcmtDRxIdjKamOtqbHUKIS5XhvKW1+qw1nqW1+oxy+0AT/FEoFAqlUdrtSMJsMSPtUBouXLpAk481wcmTJ1FYVohKXWVbN4XSgagx1ODdf73rcdnW9oqMk2HS/ZMQER7R1k3xGe12TaK2thZPvf0UdtXuasdSR6FQbicCrgdg/1P7MbTf0LZuis+g000UCoVCaRQqEhQKhUJpFCoSFAqFQmkUKhIUCoVCaRQqEhQKhUJplPYdF2QEUIH2/hQUCuV2oQ6elkG5ZWm3IbA8z+PEmRPILcxt66ZQKBQKAEDKSjEyZSRCgkOaP7md0G5FgkKhUCgtD12ToFAoFEqjUJGgUCgUSqNQkaBQKBRKo1CRoFAoFEqjUJGgUCgUSqNQkaBQKBRKo1CRoFAoFEqj/D98DPnPYiIRswAAAABJRU5ErkJggg==;" parent="1" vertex="1">
          <mxGeometry x="170" y="376.08" width="156.5" height="48.59" as="geometry" />
        </mxCell>
        <mxCell id="qIvfzEY7CYZeFkJPYe9R-52" value="" style="shape=image;verticalLabelPosition=bottom;labelBackgroundColor=default;verticalAlign=top;aspect=fixed;imageAspect=0;image=data:image/png,iVBORw0KGgoAAAANSUhEUgAABBgAAAESCAYAAABXQmaoAAAABHNCSVQICAgIfAhkiAAAABl0RVh0U29mdHdhcmUAZ25vbWUtc2NyZWVuc2hvdO8Dvz4AAAAtdEVYdENyZWF0aW9uIFRpbWUAU2F0IDE3IEF1ZyAyMDI0IDA1OjE2OjM2IFBNIENEVHElVEUAACAASURBVHic7N13fI3n//jx1zkn8ySRxIgQMoxGbGKLTcUqihalSktKtf2o0ipaq/op9TVKVVujqmhLfxSJVSVW7IgYlYFIkEgikZ2c8fuD5JPIkL28n49HHg+57+tc9/tGTq77fd7XdSn0er0eIYQQQgghhBBCiCJQlnUAQgghhBBCCCGEqPgkwSCEEEIIIYQQQogikwSDEEIIIYQQQgghikwSDEIIIYQQQgghhCgySTAIIYQQQgghhBCiyCTBIIQQQgghhBBCiCKTBIMQQgghhBBCCCGKTBIMQgghhBBCCCGEKDJJMAghhBBCCCGEEKLIJMEghBBCCCGEEEKIIpMEgxBCCCGEEEIIIYpMEgxCCCGEEEIIIYQoMkkwCCGEEEIIIYQQosgkwSCEEEIIIYQQQogikwSDEEIIIYQQQgghikwSDEIIIYQQQgghhCgySTAIIYQQQgghhBCiyCTBIIQQQgghhBBCiCKTBIMQQgghhBBCCCGKTBIMQgghhBBCCCGEKDJJMAghhBBCCCGEEKLIJMEghBBCCCGEEEKIIpMEgxBCCCGEEEIIIYpMEgxCCCGEEEIIIYQoMkkwCCGEEEIIIYQQosgkwSCEEEIIIYQQQogikwSDEEIIIYQQQgghikwSDEIIIYQQQgghhCgySTAIIYQQQgghhBCiyCTBIIQQQgghhBBCiCKTBIMQQgghhBBCCCGKTBIMQgghhBBCCCGEKDJJMAghhBBCCCGEEKLIJMEghBBCCCGEEEKIIjMo6wCESKfTatGmpACgUKkwMDbO12t0Gk2+2gohhBBCCJFfhRmb6nU6FEr5DFe8uOR/vyg3Ti1dymILCxabmfGlqSmLzc35uWdPAg8cyLF95L//srFrV9Z37Ejc/fulHK0QQgghhKjM8js2TUtM5MTXX/PtSy+xyMSE5fb2eC9aRGpCQhlFLkTZkQSDKFdMrKwYsnkzHhcvMnTzZnRaLbsnTODu6dNZ2oWeOcNvr75KqI9PGUUqhBBCCCEqu+eNTfU6HaeXL+fU0qU0e+MNxh46RNNRozi1bBnnvvuujKMXovRJgkGUKwqlEitHR2xbtsTl1Vfp9eWX6NLSCDl+PKNN8N9/88drr2Ht5ESjIUNAoSjDiIUQQgghRGX1vLFpfHg41//8k+Zjx9J1zhwcu3Wj65w51HZ1JejgQVLj48v4DoQoXZJgEOWagakpSgMDdFptxjFzW1s6TpvG0M2bUVevXobRCSGEEEKIF8mzY1OzGjUY9uuvdPv8c5QqFQBKlQqloSHo9ej1+rIMV4hSJwkGUW6lJSbit2ULOq2Wup06ZRy3adKEDv/5DyZWVmUYnRBCCCGEeJHkNDZVGhhQvVEjTK2tM9o9vH6dh1evUrdzZ4zMzMoqXFFcfv0VjIxApcr9q0oV8PYu60jLBdlFQpQrqXFx7P/PfzBUq4m9cwdNcjLd58/H3s2trEMTQgghhBAvmIKOTROjojg2fz7mtra0fvtt2VGiovv1Vxg3DrRaMDFB/7RKJYvERBRxcej79UO/dy/KHj1KP85yRBIMolxRGRlRp0MHUuPiCPfzo8f8+bTx8JA3ZyGEEEIIUeoKMjZNjo3lwEcfEXXzJq9u2YKlvX0ZRCyKTXpyQaeD778nws2N+5cu5di01rZt2Hh6ou/Xj8Tt21EPGVLKwZYfkmAoBlqtlrS0NIyMjFA+82aj0WjQaDQ5nntWcnJyvtrldP2UlBT0ej0qlQoTE5MC30N5oTI2punIkdRq1Yq0xEROLVtGnY4dqdO+fVmHJoQQQgghXjD5HZumxMVxcPp07p46xZBNm6jdpk0ZRZw/ycnJGBgYYGCQ9XFQp9ORmpqKoaEhqpw+rX+mbUGfWzJfQ6vVolAoMDY2fu61il1aGoSH537+r7/ggw+eJBfWrs2SXDAwNc3W/OGECSiUSmrs3YvJyJEkrV2LaZ8+OfetUICNDRgaFsedlDvysXAx2Lp1K87Ozhw8eDDL8eTkZCZOnIijoyPbt2/P9fXx8fHMmjULFxcXDh06VODrr1q1ijp16lCnTh1q1apF7dq16devH3v37kWn0xW4v/LAyNycrnPnojI05Oi8eSQ9elTWIQkhhBBCiBdUXmPT1Ph4Dk6fzq0jR3jlp5+w79y5DCN9vps3b+Lq6srs2bOzPSts3boVBwcHPDw8SElJyfba1NRUNm3aRNu2balRowb169dn1qxZPCrAWP3ixYs0bdqUOnXqYGdnR82aNXF1dWXJkiXExsYW+f7ypVUrqFs396/33suWXFAolTh260aTYcNy/KqxZw/xb76JMiUF0wkTcu+7Th0YPrx07rMMSAVDCQoMDOTChQuoVCo8PT0ZMmQIarU6S5vo6GhmzpzJrl27sp0rCEtLS7766iuaNGnCvXv3+OGHH5g6dSrff/897u7uRb2VMmHbogWdZszg8CefcH7tWtw+/RSFUolOqyXq5k1S4+NJio5Gk5TEw6tXSYqKotpLL6EyMirr0IUQQgghRCWT09g0LSmJQzNncvWPP2g5bhyR16/z8No1FAoFZjY2NOzfH4MKUl2cmJiIp6cnBgYGnD17lqCgIBo3bpylzfbt25k3bx6jRo1iwIABXLhwgVWrVqFSqZg/f36+KxGUSiUTJ05k7NixJCQksHfvXr799lsePXrEwoULs1VWFLuni3Tq9Xr0uXwgq/XwILJdOyKeJhccunTBsm7dPLs1//ln4gwMMDxwAABDtRrFs38nCgXa1q3RxsRgZGGRsftIZSEJhhL0zz//oFAoGDt2LPv27SMwMJDmzZtnnH/w4AHvvfceQUFBTJkyhW3bthX6WkqlEnt7e5o1a0azZs1wcHDgtddeY8+ePfTp06f0y46KSYuxYwk5cYKza9Zg7+aGQ9euJEZG8v/GjuX+hQsZ7X7p0werevV489AhrOvVK8OIhRBCCCFEZfXs2DQ1IQG/X38l9fFjzqxcmaWthZ0dNZo0obqzcxlFWzA3btzg8uXLjBs3jj179nDs2LEsCYbY2Fh27txJ165dmTt3Lmq1mg4dOuDv78/58+d5/Pgx1pl203ieqlWr0qRJE5RKJS1btiQkJITDhw8zefJk7Et6/YoffkCv13N1xw60OVRqZLh6Nd/JhXQW69dz7+JFHl67lnfDvXuxcnDAoUuXAgRe/kmCoYTExMRw4MABWrduzciRI/H09OTw4cNZEgympqb06tWLhQsXEhwcXKQEw7OsrKywtLQkJiYGrVZbIRIMbp9+itunn2Y5ZmRuzrBff81yzLxmTSadP1+aoQkhhBBCiBdMfsems0qrrL8E6XQ6Dh06hJGREaNGjSIkJAQvLy9Gjx6NpaUlABYWFqxbtw5TU9OMyuv0tejMzc0xKkIVsZGREbVq1eLChQskJycXyz3lh5WDA0nR0Xm2sWnSJN/JhXS1W7dGqVIRd/9+7o0UCixq1y5QvxWBJBhKiJ+fHzdv3mTMmDG4uLjg6urKoUOHGD9+fEZmz9LSkilTpgAQHBxcrNf/999/CQsLo0ePHiVfYiSEEEIIIYSosKKjozl8+DBt27bF2dkZd3d3Fi5ciL+/P52frimhVCqxtbUFnqwhd/78eTw9PfH19WXx4sWYmZkV+vpRUVH4+vpSs2bNAlVBFFpEBAp/f+oA5JYYadsWLCwK1Tf+/tgCtjn1rVBA8+ZQrVrB+64A5MmzBOh0Ory8vLC0tKRDhw4YGxvTt29f5s6di6+vLz1KYG/UtLQ0vLy88PPzIzQ0lD///JOaNWsyevToQq3uKoQQQgghhHgxXLx4kVu3buHh4YGRkRGdOnXCwsKC/fv307Fjx2zPE4GBgXh4eBAdHc2AAQNo0qRJga6n1+vx8/Pjxx9/JC4ujv379xMQEMBXX31FjRo1ivPWcro4ODlBYmLe7Tp2hAMHCpZkCA2F7t0hKCjvdl27wrFj+e+3ApEEQwkICwvj2LFjuLi4kJKSQkBAAHZ2dqjVajw9PenatWuxT1lITk7mwIEDmJmZYWlpydixYxk7dix16tQp1usIIYSo3DQpKdw9dQqlgQF1O3ZEWYpVcNrUVB6HhaEyMqKKnV2pXVcIIV5kWq0WT09PLCwssLW1JSAgAK1Wi7OzM0ePHiU8PJxatWpleU3Lli25fPkyZ86cYc6cOUybNo2NGzdmTKfID19fX+7du4epqSkuLi4sXLiQjh07FvftZaXXw9SpT7aJbNYMrV6PNi0tWzODs2dRnj6Npnt3FIcOoapa9fl9Z04uODqibdo0x75RKEgbMABNSAhmNjYVZhHQ/JIEQzHQarUAGD7dy9THx4fg4GCuX7/Onj17srT19vYmLCys2BcusbCwYMWKFXR6uiJqZZEcE4OJlVW+2saHh6M0MEBdScuNhBAVX/DffxMdEIBer0ehVGKoVlOtYUNqtW5dbnbASYqKYv9//oORuTmj9+zBNI9BVXJsLHdPniQhIgIrJyfqdOiAgbFxoa6bEBHBjlGjCDtzBveVK2n99tuFvQUhhCgxBRmbpsbHkxgVhZWDQwlHVTDpW1OmP7uEhIRw4sQJbt++zaBBg7K0NTU1xcfHh6FDhwKQkpKCoaEhSqUSExMTunXrxqhRo1i9ejWhoaH5TjAoFArefPNNZs6cWXrV1unJhcuXwc+PFIWCG7t25dhU9corNFi8GJOLF0nq3BmjkyfzTjJkTi707k3Szz8TdPJk3gtIentjUbs29Xr2LNp9lTOSYCginU5HWFgYarUaGxsbkpOT2bdvH/Xr12fjxo3UrFkzo+3BgweZMWMGp06dKvmVUSuB6KAgfhs6FI+LF/P1CdrJr79GZWxM76++KoXohBCi4Hw3buTKtm1PtqRSKNBrteh1Omo0aUL/b7/FsXv3sg4x327s2oXXhx/y+O7dJwcUCmq1asUrP/2EbcuWBepLp9Xis2IFIceP0/qdd2g+ZkwJRCyEEEWTEBHBxm7dmHTuHEbm5s9tf3b1aqICAhi8fn0pRJd/kZGRJCUlYWdnh1Kp5MSJE0RGRrJ+/Xp69eqV0e7BgweMGzcOLy8vBgwYQGBgIGPGjGHixIlMnjwZePIsFBERgbGxccbCj+VS5uSClxdR4eHcv3QJi9q1URkbo1Aosr0kct06qr/7LqY3bpDSpg2KGTNQ5lRtkJgIS5ZASEi25IKptTUmeawpYe3kVJx3WS5IgqGQUlJS8PPzIywsjJ07d9KiRQscHR0JCAjg3LlzvPLKKzRo0CBLRs7NzY26devi6enJkCFDMDEx4d69e0RERHD37l00Gg0hISH4+flhb2+PVT6zo5WRXq9n94QJRFy5wuXNm2k1YUKe7ePDwzn//fcoVCo6ffyxVDEIIcotE0tLXtu5E6cePUiNj8f/t9/4+7PP8Jw6lVF79lSIwUa4nx8HPvoIsxo1GL5tGzVbtODaH39w8OOPOTxrFsO3b8ekAGWyQQcPcuGHH7Br356uc+cWugpCCCFK0t7Jk4m6cYOzq1dn213iWanx8ZxatozkmBi6zplTLt7bb9y4wcOHD1m3bh1qtZqOHTuSkJCAp6cnDg4OdOrUKUsFgrm5OV26dOHAgQMEBQVRr1492rdvz/Lly9FoNLi6unL8+HE2b97MiBEjsCuvU9syJRdSd+wg9OxZNCkp1O/TB9PnPG9pTp0ixc0N41u34Oni/Ll6Jrlg5eiIfefOOSYvKjNJMBTS/fv3mTp1KiEhIXTu3Jl58+ZhYWHB0aNHSUtLY8CAAdnKfWrWrEnv3r3ZsWMHAQEBNGnShDVr1rB27Vr0ej0AM2fOxMDAgDVr1vDaa6+Vxa2VC2dXrybE2xuAo/Pm0eLNN/OsYjj59ddokpIAOPXNN1LFIISoEIzMzWk1fjwPr17l3Nq1hPr4YO3kRHRgIKE+PtTv2xeFUsmdY8dQKJU49uiBiaUlmuRkQk6eJC4sjOqNGlHL1fVJVUQmOo2Ge+fPE3XzJoZmZti1a5fjNls6rZYHly7x8Pp1zGxsqNqgwXPjDjxwgKRHjxjw3XfUfTo1r9no0QR4eXH35Eke371L+OXLRP77Lw5dulC9USPgyfoOgfv3k5aQQMMBAzCxtORxWBhHv/gCAxMT+nz9NRbPzPMVQojywP+337jx558AHJ0/n3ZTp+ZZxXB29WqSIiMB8F60qMyrGDQaDatWrWLHjh04OjqyYMECmjdvjq+vL5cvX2bMmDHY2NhkeY1KpWLgwIHs2rUrY325BQsWUKVKFb777jtiYmKoW7cuHh4eTJkypUjbVJaYTMmFqNWruX/8ODUaNcKmSRMU+ZiaYVC3Lpw4QdQHH6BLSkJlbJxjAl2vVhM3YQKRJ06gTU19YZMLAAp9+pOtEOVEdFAQa5s3f5IwePrf85X163OtYogPD2elk1NGgsHQ3Jz/3L4tVQxCiHLnzzFjCPD0zKhgSOezciWHZsyg7//9H+2mTuXKtm3smzKF5mPG8O/u3TwODQXAoVs3un/xBYdmzuTe+fOg16MwMKDlW2/hvnx5xmD3ga8v+6ZMIfTMmYz3UUMzM9p/8AFdZ8/G8GkZa/yDB3hOncqN3bvRa7WgUFCtYUOSHj2iaoMGua7BEBsSQtz9+9i2bJlRbaDTatk9fjzBhw/zhpfXkzUVRo6kVqtWjPjjD0ytrbm2cye7J0ygxZtv0nfZMgAOzpjBpfXr6bFwIQ3798fMxgbT0tiiTAgh8ikhIoI1TZpkJAwAen31Va5VDKnx8axwcsporzAw4P2bN8tFFcML5WlyQXfxInc++4w0lYq6nTo9t2ohJ5rkZAIPHSIlNva5bV/k5AJIBUO5pdPpWLZsGWfPns21jZ2dHXPmzKF69eqlGFnJSp8aoUlMpN3779OgXz+29u+P95df5lrFkF690HL8eDQpKfhv3SpVDEKICkOn0RBx5QoqIyMsMpWXpiUmcnPvXtxXrKB+3774b9/OoRkz+OO116jfty8jfv8dgH3vvYf/tm00cHen8bBhPA4L46+JE3kcGsrgDRtoPHw48Q8ecPSLL/BZvhxTa2s6ffwx2tRUji1YwM29e2k7ZQpun36KQqnEZ/lyfFauzDNmS3t7LJ9ZSyguLIwHvr5YOTlRpU4dari40HTkSHw3buTq77/TePhwzqxaRRU7Ozp8+CEqIyMCvLy4vHkzer2eI3PmcHD6dAzVapqPHUvPRYskUSyEKBf2Tp5MUmQkTV5/nU4zZvBjmzacWrYs1yqG9OqFhgMGULVhQ86sWFEuqhhK2v3791mwYAGRmRIxmSkUCnr06IGHh0fJL+z4NLmQ5uNDwIcfUs3RMd9VCzkxMDGhQZ8+RN68mZG4z4nKyIjqjRq9sMkFkARDudasWTPMzMxyPW9tbY1JJdvWJH1qhHX9+vT+738xVKuxa9+esDNnclyLIWPtBQMDus6ZgzYtDf/t2zm7erWsxSCEKJf0ej2pcXEkPHxIUlQUflu24P/bb9Ru0wb7zp0z2imUSlwnTcLl1VcBcBk6FN+NG3l06xadZ8zAytERgNZvv82dY8d44OtL42HDCPTyIuLKFbp89hktxo5FoVRStX59ei5axANfX65s20bzMWNIjIri5r592LVrR/cvvsioVGj/wQcEeHkV6J50Gg3nv/+emDt36LdqVcZ7b/v33yf48GHOrl6dMW2iz9KlVG3QgLTERC7++COpcXE49epFu6lTATi/di2X1q9HZWRE32XLSnWbTCGEeFb61Ai1jQ39V69GXb06DQcOJGDv3hzXYkhfewGg+7x5VKlThwvr1nF58+ZysxZDSUlf1yE+Pj7H8wqFAhcXl1JJLmg9PEg7dYq78+ZRr3fvfO/8kRcDExNsmzcvhgArN/mtXUgnjt/hzz+vU/LzS+rlefbs2RMlHkFx0en0XLnih6NjBJaWumznlbGxWPzyCwpg8IYNGSW83b74ItcqhszVC9b1nvxdNR05MtcqhqT4eL596y0eWFqir1Il43hysoJr18xp2rQtRkaGJXD35UuzZjWZMKFVWYchxAspJTaW7YMHZ3yvNDSkgbs7fZYuxeyZ+a+Z11VQGRlhqFZjqFZjZGGRcdzIwgKloSGp8fHodTruX7qEgYkJtdu2zfJJTZU6dajeqBF3jh8n5s4d4u/fJyk6msbDhxdp4KXX6bjw44+cW7uWNh4eNB05MuNc9UaNaDtlCoc/+YQT//0vDfr1o8nT9YViQ0K4f/EiNVu0YPCGDVR5Wr1Rq3Vrtr3yCgH79tH+gw+oWr9+oWMTQhTOmTOhbN/uX9ZhlAp/f39q1bpPtWrZx6aKxESqPB2bDly7FvXTquHu8+YRsHdvjlUMmasXardpA4Crh0euVQw6rZaV48YRqlSiy/TBWFoaXLmixsWlDaampiVw5yXF5ulXzm7eTGb37v0ld3k9NDj9F2/FepOwaRMN2rUrdNWCKBxJMBRGWhqzX1mOd4zMES0cf+BgtqMtgSFA9f79cejaNeN4w379cqxieLZ6IV23zz/PtYphz7RpJO3ciT9wKMvVGwOv4e19sRjvs/waPNhZEgxClBEjc3PcZs2ihosLRubmVHN2znHxxQLT69Hr9aQlJKBQqTB8dkCqUGBoZoZOo0GTnExaYiK6tDSMMyVbC3xJnY5LGzZwZPZsmr/xBt3nzcu2A4Rdu3YYW1qSGBlJdWfnjIF4YlQUqQkJNHB3z7Kwo7mtLbYtWnBz714SwsMlwSBEGfD3j2DFijNlHUYpugX8v2xHGwJvACZt2mRUkwHUdnXNsYrh2eqFdG6ffJJrFcORxYt5/OuvBAO7slzdARiPt7dfMd3ji6QmI67uw6ax/P4oC5JgKKi0NDSDB/OdfTw+Xy1BKVtpFUhAwA3s7etgbDwy2zm9TofJgweMmD4927mcqhhyql4AqO7snGMVQ+iZM9zYuBGFoSHD581jVKYBrV6v5/p1JY0aNSv5sq0y9M8/t/nlF/lFJURZUhoYUKdDhyyLPBYXhUKBua0tmuRkEp+ZA6tNSSEhIgJDU1NMq1Yl5fFjVEZGJEVFFepaep2Oy5s3c+iTT2g8fHjGtLbMUhMS8Fm+HJWhITWbNcPv119pNGQI9m5uGFtYoDIyQqfRoNfryZitqtejSU5GaWiIYR7TBIUQJc/Kypj/+7++ZR1GiQoKCsTWtg5mZoNyPK+6e5cR06ZlO55TFUNO1QvwJHGaUxVD5L//4rN4MSgU9J01i1ee2cXnxg09DRo0w0CmihVIkyY22DQup1tmvgDkf2tBpKWhHzGCpKgo6uzaztuVeA5VySncp+bPVjE0HDAgx+qFdM9WMRiZm7N7/Hj0Wi29v/qKzjNmFPVGKiRHRytJMAhRiSmUSuy7dOH8999zY/duGvbvn/HQ/8DXlwe+vti2bImVoyMqQ0NMq1Xj7unTJEREYG5rC8CjW7dIiorKc/s1AL9ff+Xgxx/TaPBgXl62LMf2N3btIujgQTp9/DF27duzY+RITi5dSs0WLahSty7VXnqJ0DNniL1zJyNRHOHvz93Tp6neqBFWDg7F/DckhCiI8eNbMX58Za94LNz9PVvF0G7q1ByrF9I9W8Vg5eDA7gkT0CYn0/Hjj3n5yy+LchNClBuSYMivtDR4/XWSHz3i0ZIl2EtyodRlrmJ44OubY/VCumerGPQ6HZHXr2PXoQMdP/qoDKIXQojS4dSjB42HD8dvyxZS4+Op16sXiVFRXN68GYBO06djbGGBYYMGNBoyhHNr1vD/3nyTlwYN4nFoKDd27SItMTHPa1zZto39H36IoZkZSkNDDs2cmbGqtoGpKa3ffhvjKlU49c03VG3QgFYTJmBarRqNhgzBf/t2ru3YQavx42n33nv8NXEif7z+Ok1HjiQtMZHLmzeTGh9Px48+KpZFuYQQoqRkrmJIjY/PsXoh3bNVDDUaNyb01CmqOTvTc+HCMoheiJIhCYb8eJpc0CQmEjxlCs4dOpR1RC+kzFUMZ7/9NtfqhXTpVQwn//tfAFQmJgzZuDHLomlCCFHZGKrVuK9cSXUXF3w3bSJw/34M1Wrs3dxw++QT6nbqBDyZqtHt889RqlT4bdnC3dOnsWvblgFr1nBx/Xoe372bY//JMTFcWLeO5EePSH70iIs//JDlvEKlomazZkTdvMmj4GAGfPcdFrVrA092lbh99Cg+y5fj2L07Lq++ioGJCSeXLuXovHkoVSrs2reny2ef4ditW8n+RQkhRBFlrmI4/rQCIafqhXTpVQy+GzY8OaBUMnjjRgwq2a5w4sWm0Ovz2MizItDp4KOP4MqVvNu98QY8s8VhvjxNLug1Gm68+Sa1O3TAsk6dwsUqiizAy4ut/fsD0HL8eAanv0HnYucbb+C/dSsAvZcseWGnRqT7559b9Oy5mcGDndm1K/s6GEIIIYQQ69df5J139jBtWodKvwZDUd27cIEfn1Ys1Hd3Z8xztvndP20aZ1asAHgyNWLp0hKPUYjSVLErGHQ6GDcOtmx5ftt//gGtFiZOzH//T5ML6HTcmzULM51OkgtlLL2K4d6FC3lWL6RLr2Kwa9dOpkYIIYQQQohilbmKIT9THdKrGCzt7WVqhKiUKm6CIXNyoUYNdKtXE/74MakJCdmaqi9fpvqmTTBpEgnh4Zjn48E0c3IhfvVqYs6cwXngwOK/D1Fg3b74gmt//JHj2gvPqu7sTKvx4+n08ccyNUIIIYQQQhS79GkROa298CxzW1vaTpmCy7BhMjVCVEoVM8HwbHLh4EFuRUYSn5oKOfygxvTsSaKxMfbr1mE2dy7xkHeSIVNyQbdtG3cPHKBO+/bZ9vYWZaNhv37YtW2b7/YD162T5IIQQgghhCgRtV1dGbJxY77b9/76axmbikqrfCYY/v4bPvwQkpNzPv/wITx+nDW58OABRubm1O3UCUNT0+yvGTyYOCcnLD79FPO5c9GuXo0qty24oqOhbVvYu5f7vr6Y1aghUyPKGXX1OqUW7AAAIABJREFU6vluK2/gQoiy9jgsjE2yaGGhdfviC1qMHVvWYQghRK5kbCrEE+UzwXD3Lly9mnebHJIL9fv0wcjMLNeXGM+cSYKhIerp01GFh0N4eC4NjWHpUuKjo4kJCZGpEUIIIYpEl5bGo6Cgsg6jwkqOiSnrEIQQQgiRD+UzwfDWWzB4MLG3bnH/8mX0Ol22JjojIzT+/gD5Si6kM5s2jZgePQg9fRp4sk2XQqnM2reJCbobN9D7+1OnQweZGiGEEKJYmNeuzeTLl8s6jArjyJw5XFi3rqzDEEIIIUQ+lc8EA4C1NZqHD0kxNMyzWUGSC+msWrZEX6UKIadOoc2pgV4PqakoDQ2xsLUtWNyi0PQ6Hf/+9RfeixYR7ueHunp1Wowbh9snn2BiZVXW4QkhRJGpq1cvUBnti07+roQQZUnGpkIUXPlNMOj1VGvQgKq57RSgUGR8KRSKAvdt7eiIlb19zufTKxoK07cotMD9+9nj4UH9l1+m56JFPLx+nVPffENyTAzuK1ZIJYkQQgghhCg1MjYVouDKZ4Lht9+e7BKRkkKuj/d168LRo5CPrQqz2LMHhg+H1NTc+65aFXx8oGHDgvUtCi01IYFza9dS3dkZ9xUrUFerRgN3d/Q6HaeXLaPF2LHU7dSprMMUQogSoU1LI/jQIQL370ehVGLl6EjzMWMK/Ql+YmIiGzZsoGrVqowePbpIscXGxjJ79myuXbuW7ZxSqWTixIm8/vrr+e7vzvHjBO7fT/KjR1ja2+MybBjV5PetEKKckbGpEIWjfH6TMqBWQ5UqYG2N3soq2xcAd++i79YNXUBA/vvNlFxArc6xb72VFXobGzR6PTqNpmTuT2QTGxJCxJUrOPXqham1dcZxp549QaHg7tM1M8qKJiWF1IQE0hIT8/x/odNqSUtMJDUhIeNLm5paipFWTDt3XqNTp/W0bPk98+cfRZfDuitCVFaxISGsa92arQMGcPbbbzmzciUHpk1jZb16XP399wL3d/ToUXr16sW0adO4efNmkX+eUlNTuXbtGnq9HhMTk4wvpVJJQEAAlpaW+eonJS6O30eMYFPXrpxYvJjza9fy96xZrHFx4UheW0eLci01VcPMmYdo0eJ7unXbyN9/B5d1SKICyu84K11SdDSHZs7kr3feITYkpERiKu9jUyHKq/JZwTBoEERE8PDGDe6dP5/ttEKjwWHVKiwvXULTsSNpR45g3Lx53n1mTi58/TVRQ4YQevZs7u3PnkV56RLOAwZglNt2lqLYxN27R2pCAlXr18+y6Ka6WjVMrKyIDgwss9hS4uLYPngwt//558kBpRKzGjV4aeBAus6Zg5WjI/Bknt6Bjz7i7LffPlnHA0ChwHnwYIZv3y5ldLlo3Xodly49yPj+8uVwliw5xa1bH2BjIz97onJLjo1lhYMDADWaNqX1O+9gbGFB8N9/4791K3+OHYu6Rg2cevTIV38nTpzA29ubadOm8dFHHxVbnM7Oznz++efUqlUr45inpyfbtm2jS5cu+erjt1df5dbhw6htbGj33ntYOTpy/9Ilzq9dy/Evv8Sidm3aTplSbDGLkhcUFI2LyxrS0v6XxOrd+xfc3evj5TWmDCMTFUl+x1npdFotPitWcG7tWnp9+SVVSmgr+fI8NhWiPCufCYanjMzMMDI3R5/+sJZJ2KefwtdfY3nxImk9e5K6ZQtGzs45d3TsGHh45JhcMDA1zbaLRObrK5+zyKQoHpqkJABUzzyEKw0NMTA2Ji0xsSzCyqKWqyvuK1eiMjTk7unTnFq6lNi7dxm+fTum1tZoU1N5FBxM64kTaTt5MigUKFUqqtSpI8mFXEybtj9LciFdYmIaHTqsJzj4wzKISojSs7Fr14w/Tzp3DgMTEwBaTZiATZMmHJk9myOzZ/P2qVP56s/NzQ03NzeuXbtWbGsIVatWjcWLF2Od6RO8hIQEtm3bxrBhwzDLxyLLN/ft49bhw1Sxt+cdHx8sniYqWrz5Jg379WOLuzsHpk+n5VtvYahWF0vcouS1a/djluRCuv37g1i50ocPP+xQBlGJiup546x0t44c4fz339N4+HBav/NOruP4oqoIY1MhyqNynWCwrFsXy7p1cz2vGzSIhN69MTt1Cvr1e36HmZMLCgX2nTph7eRUjBGLwjIwNQVAm5KS5bguLQ1NSkq5GHAaqtXUaNwYU2trardpQ0psLOe++47ogADs2rUjKTqa+Pv3cXn1VWxbtizrcPN0/fpDrl9/WNZh8P33F3I9d+tWDCdP3qVqVZNSjEiIkvE4LIaHVEebbJHlZy/ssTExVKffqm8JuBUHxBEX94gaNQzpPHMmp5cvJ/T0aR6HhpbYp3TPo1QqsyQXALy9vUlMTKR79+756uPW338D0PGjjzKSC3fuhHP16h0cHFpg3GEQoadPcXizF47d/pd0uRMJD6nOrQdaqpSD9yzxPzduPCQ6OjnX8wsWHOPll+uXYkSiOF2/Hlnq13zeOAueVBX88/nnWDo40H3evBIdH1aEsakQ5VG5TjA8j9LUFNPDh4kbPBiDf/9FoVRiqFbnmMnUvvYaUe7uhEtyoVyyqF0bIzMzooOC0Ot0Gf+GiVFRJMfEULVBgzKOMCuFUonh00/t9E/nNydERJASF4cuLY3gv//G3NaW6o0aoVSpyjLUHN28GU3jxt+VdRjP5ea2oaxDEKIYTYWbsDDLz94AANZ88C/wb6bj2/l//+8rrJ2cSIqMLFeflCUkJLBlyxaGDRuGVT63aXscGgqQUep869Z96tVbDRg9bdEaaM2ayf6Af6ZXGgJTWbM4FhaX//cs8T/R0ckV4veMKJ9yGmfpNBpOLVtGzO3b9Fy0iPj79zGxssIkn+vAFFRFG5uKEnblCmi1uZ9Xq+Gll0ovnnKsQicY4EmSwczLizve3jwOC8u7sZ+fJBfKKUt7e2o2b07w4cO0mzoVdbVqwNNPvfT6crdK76PgYK7+/jvVXnqJqk9XP4+5c4e4sDA8p07FwMSEtKQk6nbqxMDvv6eGi0sZR/yEpaUJ7dvblXUYGc6fv4dWm30KVDpX11oYGJTPtWiFKAhNSgoPfH0xNFVTs3mzjOMPr10jJS6Oai85Y2ptRUpKKiEhATg7v0QDJyf+DQoCwOSZCoKydPz4cWJiYujbt2++X5P+Pnn/wgUaDR6MtbUFjo7JREYmYWdXm/h/nyRXqjdqlOVhIfbuXeLu3cPKwQFzW9vivRFRJMnJGi5fDs/1vJGRilat5N+sonN0zF8SsbjlNM4KOXGCyz//TGpCAgenTyctMREjCwt6LlqE66RJxf6BTkUbm4oSNHMmLF2adxuFAtaufTIt/wVX4RMMAEqVCoeuXQk7e5aUuLg821Zr2FCSC+WQkZkZbadMYddbb+H1/vs0e+MNHl67hs/y5TQaOpRarVuXdYiEX7nCtkGD0KalEXXzJtb16vHyt99m/MKp36cPE06cwLp+fYzMzLh15Ah7Jk3iyOzZDP3lF4zyMU+5pLVuXQsfn3fKOowMK1b4MG3agRzPtWtXmzNnJpZyREKUjJjbt1npNBWbhs2Z7LMy4/j5devY9+67VOUl3t57MmNbSr1Ox97Jk0mOjsapVy/MatQoq9CzSEhI4Oeff2bo0KFUe/relx/OgwZxYvFiTi9fTuMRI6jZrBm3bi0D4OJPP7Fn4k8AfHYxEcOnZckAR+bM4fiXP+E+fRXt3y8/713iiXr1VnLrVkyO53799VWGD29cyhGJiiyvcZZOq8VvyxY0KSn0WryYtlOmEP/gAfumTOHYggXUatWKOh2Kd82PijA2FaUgU3JB36kTuhzWBiQpCZWvL/p33yUtIQGjYlxkuSKqFAkGeJJkqNuxY1mHIYqg/ssvM+iHHzi+eDF/vPYa6mrVaDVhAp0+/rhcLJJoWrUqTj17Enz4MCaWlgxat47abdpknDdUq7OsveDUsydNR43Cf9s24u/fl1K6HPznPx3w9b3Pzz/7ZTnu5GTFyZNvl1FUQpSelm+9xZWtWwnx9mZNkyY0GTECQ7WaAE9PHl69ilGVKrz8zTdlHWaGEydOEBERwYABAwr0ujodOtDugw84u2oVP7VvT+Phw6lSty6hp09nrBzfc/HiLMkFUf75+U2mXr2VPHyYdQrPp592kuSCKLC8xllJUVGEX7mCQ9euuE6ahIGxMVYODnSaPp3fR4wg1Men2BMMUP7HpqKEpScXzMzQ791LiIEBMbdv59jU6uRJ7Netw3D6dOLj4zH//PPSjbUcqTQJhrKk1WpJS0vDyMgI5TPrP2g0GjQaTY7nnpWcnJyvdjldX6/XY2CQ/Z9Tp9ORmppaqH5Lm0KpxPmVV3B+5ZWyDiVHVezs6DBtGi7DhvHbq69ydN48Xt2yBZNc5iArlEpMq1ZFp9Xma0/nF9WmTUOZP78Ho0fv5NSpUMaNa8GmTUPKOiwhSoWBsTGjdu/mz7FjCdi7l3Nr1mScs6pXj9f//BPbFi3KMML/SUxMZNOmTbzyyitZtqvMr5e/+QaFUsnZ1avx++WXjOPGVlYM2biRRkPk576iMTc3IiJiBrt332DChN1ERyfj4/M27duXzYKkomLLa5yl1+nQa7VY1KqVsdsOgLp6dQxNTUtsnZryPjYtiuTkZAwMDLI9P6Q/OxgaGqJ6zrQTnU5XqOcLnU5HWloaxrkkaVJSUlCpVDk+2xSbkBC4dCn38zt3wi+/ZEsuKJTKJ4sVP7NTk+711wm3tKTmkiWYffEFiSEhqAcNyrlvhQLatYNKOvWvfD9xVhBbt27F2dmZgwcPZjmenJzMxIkTcXR0ZPv27bm+Pj4+nlmzZuHi4sKhQ4cKfP1Vq1bRvHlzTp48me3c8ePHcXV1LVS/Ime2LVrQafp07nh7c37duozFh56VlphI6OnTWNrbY2ZjU8pRViwODla8+uqTdSrq1Ss/c82FKA0mVlaM3rOHdy9fZtCPP9J3xQreOnaMDwIDy01yAeDkyZOEhoYypJCJAJWhIe7Ll/NhUBDDtm2jz9KljPb05KPQUEkuVHCDBzfKmKtfvbqsrC+KJqdxlomVFZb29kQHBpLy+HFG2wh/fzTJyVQvJ2tdVRQ3b97E1dWV2bNno3tmHLt161YcHBzw8PAg5ZkdNABSU1PZtGkTbdu2pUaNGtSvX59Zs2bx6NGjfF//4sWLtGrViqVLl6J9ZuHEyMhIBg4cyJw5cwp3c/nVsiUMGZL7Vw7JBQNjY17q3x+nHj1w6t4925ftf/9L4rJloFCgXr8+974HD4Zhw0r2/sqQVDCUoMDAQC5cuIBKpcLT05MhQ4agfmZLm+joaGbOnMmuXbuynSuI8PBw5s+fz88//1yoT5ZEwbR4801uHTnCmVWrsHdzo7arKwc//piY27dpOX486mrVuLJtG7f++Qf3FSswrVq1rEMWQpRzNZs3p2bz5kXq48SJE/zxxx8EBwcTHR3Njh07CA0NpUWLFkyYMAGzQq4Fk5iYyIYNG3B3d6duHttH54elvT2W9vZF6kMIUbk9O86y79yZFuPGsWfiRA7NmEGzN94gOiCA4199hV379jjmc8tckbfExEQ8PT0xMDDg7NmzBAUF0bhx1ulO27dvZ968eYwaNYoBAwZw4cIFVq1ahUqlYv78+c+tekiXmprK2rVradmyJX369CmJ28nb4sVw+jSalBS0qak5Nkl5/XUearXEh4ZiYGxM/T59cq1cTmc2bRrxRkakPv1w2aRKFVTPVmooFKT27UtacDAWtraVbstTSTCUoH/++QeFQsHYsWPZt28fgYGBNM80eHzw4AHvvfceQUFBTJkyhW3bthX6WsbGxly9epVly5bx5Zdf5lpyJIqHkbk53b74gj9GjOCfzz9nxO+/03TkSE598w17Jk1Ck5xMzebNGfTDD7gMHVrW4QohXhBubm64ubkVe79qtbpIv6OEEKIgchpnOQ8ahO677zi5ZAlXtm7F2NISl6FD6Tp3LqblaKediuzGjRtcvnyZcePGsWfPHo4dO5YlwRAbG8vOnTvp2rUrc+fORa1W06FDB/z9/Tl//jyPHz/GOp//FiqVitTUVBYuXMhLL72Eg4NDSd1Wzt59F/2kSVzdtg1yWrgRIC0N7t/Pd3Ihnfl77/Gof39CTp3KvW+AU6cwr1WL+r16FeIGyi9JMJSQmJgYDhw4QOvWrRk5ciSenp4cPnw4S4LB1NSUXr16sXDhQoKDg4s0eKtduzb9+vXjl19+oXXr1owePbo4bkMAxhYWjDtyJNvxms2aMfXGjYzv7d3csC+Bgb0QQgghRGWV33EWQOPhw2k8fHhphfZC0el0HDp0CCMjI0aNGkVISAheXl6MHj0ay6fbB1tYWLBu3TpMTU0zKq/T16IzNzfHyMgo39czMDBg0qRJ/Pbbb3z99dd88803RarmLgyFUkmd9u1Jfs70jmoNG+Y7uZDO2skJpUpFfHju2/kCWDk6FqjfikASDCXEz8+PmzdvMmbMGFxcXDLWQRg/fnxGZs/S0pIpU6YAEBwcXKTrKRQK3njjDe7du8eSJUto1qwZzZo1e/4LhRBCCCGEEC+06OhoDh8+TNu2bXF2dsbd3Z2FCxfi7+9P586dAVAqldg+XZgwPj6e8+fP4+npia+vL4sXLy7QNDy9Xk/jxo2ZPn068+bNo1WrVkycWIrbk3t7w5kz5Lnh8rBhUK9ewfu+cAGOHMESsMzpvEIBffpAOVpnqThJgqEE6HQ6vLy8sLS0pEOHDhgbG9O3b1/mzp2Lr68vPXr0KJHrqtVqZs+ezdixY1mwYAE//vhjiVxHCCGEEEIIUXlcvHiRW7du4eHhgZGREZ06dcLCwoL9+/fTsWPHbLtFBAYG4uHhQXR0NAMGDKBJkyYFvqZCoWDkyJFcvHiRlStX0qJFC+oV5oG+oBIToWdPeGaByWxWrYKjR6F+/fz3ffo09O0LcXF5t3N1hfPn899vBSIJhhIQFhbGsWPHcHFxISUlhYCAAOzs7FCr1Xh6etK1a9d8L4BSUPXq1eOzzz7jww8/ZO3atXQogT2BhRBCCCGEEJWDVqvF09MTCwsLbG1tCQgIQKvV4uzszNGjRwkPD8+2iHzLli25fPkyZ86cYc6cOUybNo2NGzdmTKfILxMTE2bMmIG/vz8LFizgm2++Kc5byy4xEfr3h969wc2NpJgYNMnJ2ZoZHzuGkb8/2k6d0Bw8iHF+qg0yJxf69yelaVNSExKyNdMDKW5uaHx9saxbF3W1POsoKhxJMBSD9O1VDA0NAfDx8SE4OJjr16+zZ8+eLG29vb0JCwvDvgRX0HZ3d2fChAmsX7+e1NRU9HktLiIKRa/XE3njBjXyuS1S0KFDOHTpkmXvZiGEEEIIkV3E1avY5PMTcZ1WS9DBgzTs16+Eo6o80remTH92CQkJ4cSJE9y+fZtBgwZlaWtqaoqPjw9Dny5anpKSgqGhIUqlEhMTE7p168aoUaNYvXo1oaGhBU4wANStW5cvvvgCDw8PVq9ejUajKeId5iI9uVC/Pvz0E3EPHhD89985t23TBsdVq7C8dAldz56kHDmSd5Ihc3Lhgw+I/fhjbnt7577Io0YD/v4kPnxI/bLYRaMESYKhiHQ6HWFhYajVamxsbEhOTmbfvn3Ur1+fjRs3UrNmzYy2Bw8eZMaMGZw6dapEEwwqlYrJkydz6dIlfvjhh4w3D1F8zq1Zw+VffmHimTPPbavX6dj/4Ye0efdd2n/wQSlEJ4QQQghRMSXHxrLF3Z0hGzdSr3fv57b327KFfz7/nA8CAlAVYJHBF1lkZCRJSUnY2dmhVCo5ceIEkZGRrF+/nl6ZdjR48OAB48aNw8vLiwEDBhAYGMiYMWOYOHEikydPBp48C0VERGBsbFykRRq7dOnCu+++yzfffINer6d9+/ZFvs8sMiUXtGvXcv/sWR6HhVGrVSuUBjk/Eqe1aUP8xImY+/ig7dwZ7WuvocrpHhMTYds2SE7OllywrlcvzwqFKnZ2xXWH5YYkGAopJSUFPz8/wsLC2LlzJy1atMDR0ZGAgADOnTvHK6+8QoMGDbLMV3Jzc6Nu3bp4enoyZMgQTExMuHfvHhEREdy9exeNRkNISAh+fn7Y29tjVcDVSjOztrbm888/Z+zYsURFRRXHLYunHgUH4/X++wAEeHrSsH//PNv7b99O5PXr7P/wQ1wnTZIqBiFEjvR6PQ+vXkWhVGJRu3aBV6xOTk5m27ZteHt7Ex4ejpGREY0bN2bMmDHZ9jEvKI1Gw19//cXu3bt5+PAhtra2jBgxgpdffrlQU/5iQ0JIio7G0t4e06pVixSbEKJy2Td5MnGhoRz65BM8LlzIs61Oq8XzvfdIS0jgwg8/0G7q1FKKsmK6ceMGDx8+ZN26dajVajp27EhCQgKenp44ODjQqVOnLBUI5ubmdOnShQMHDhAUFES9evVo3749y5cvR6PR4OrqyvHjx9m8eTMjRozArggPy0qlkrfffptLly5lqwAvskzJhfhFi7i7bx/mtrY4Dxz43KSU/uhREnr2xOzUKdi4Me/rPJNcqNW6NTZF/P1bEUmCoZDu37/P1KlTCQkJoXPnzsybNw8LCwuOHj1KWloaAwYMyLYYSs2aNenduzc7duwgICCAJk2asGbNGtauXZsxjWHmzJkYGBiwZs0aXnvttSLF2KxZM2bNmsX8+fOL1I/4H71ez+4JEzK+Pzp/fp4JBr1Oh/eiRRnfX/jhB6lieMH5+NzlypUI+vdvgJ1dwcsIReV0evlyfJYv5/HduwAoDQ1pOmoUfZYswTxTJVxe4uLi2LlzJ6NGjWLgwIEkJSUxb948+vbty5YtW+jWrVuhYtPpdCxZsoQffviBb7/9lj59+vDHH3/wzjvvMHv27IzdkPIj8MABDkybRuT16xnHnHr1ot+qVdR4AQdhouI5evQ2SiV07epY1qFUSgFeXvg/3bb9wcWLBB8+nGcVg9+WLaQ9neN+cskSXCdNkiqGXGg0GlatWsWOHTtwdHRkwYIFNG/eHF9fXy5fvsyYMWOwsbHJ8hqVSsXAgQPZtWtXxvpyCxYsoEqVKnz33XfExMRQt25dPDw8mDJlSoG2qcyJhYUFc+bMKfLuelk8TS7onJy4N3Eij0+fpk6HDlSpXTtfL1cYG6M+coSIRYtIioxEqVJham39ZCeITHQmJiR06sTjY8cAXtjkAoBCLxP0hci3s6tX4/X++1Sxt0ebkkJCeDij9+3LNclwZds2/hw9OuN789q1+TAoSKoYcrBs2Sk+/vgQ8+d35/PPC/cgVJ55e9+mV6/NaDT/e8utVcucu3f/U2KLvoryI+b2bVY6OWHTvDmTL1/Ocu6viRO59NNPAFRv3BhjCwvC/fzQJCVh06wZ448fxyQfc1ofPXrEmjVrmDJlClWfVgVcu3YNd3d3evXqxU8//VSo/2sPHjygf//+ODo6sn37doyMjIiPj2fo0KGkpqaya9eujO2X83J2zRq8PvgAdDos7OywdHAg8sYNkqOjMTQ3Z9K5c1Rv1CjLa47MmcPxL7/EfdUq2j+tHBPlk6vrOi5efEBg4PvUr1/5qlIWLTrGvHnH0GqfvIerVAoWL+7JzJluZRxZ5ZEcG8t3TZsSFxpK7bZtuXfuHHXd3Jhw/HiO7XVaLasbNeJRYGDGsQFr19Lm3XdLK2RR3j1NLqTVqkXgiBGY16pFbVfXQiWh9Dodt729eRwa+ty2L3JyAaSCodzS6XQsW7aMs2fP5trGzs6OOXPmUL169VKM7MX1KDiYw59+CgoFQzdv5lFQEH+9/XauVQx6nQ7vhQsBeG3nTs6uWcPtI0ekiuEFFBYWS7duP2c7fv9+PDY23xAV9UkZRCXKA+9FizKSC2MPH6be07mvCRERbB00iHtnz3Lgo48YvH79c/uytrZmzpw5WY6p1WpMTU2JiopCo9EUKsGQkpJCQkICarU64/VGRkao1WoePXpEamrqc/uIuXOHg9Ono1Ao6J/pAUCTnMy+KVPw3biR30eMYMqVKwWOT4iStnKlD3PnHs1yTKvV88knf2NpaYKHR5uyCaySOfDRR8SFhtKgXz9G7trFqoYNuXviRK5VDH5btvAoMJBabdrQ+7//5ZfevTn+1Ve0mjBBqhjKyP3791mwYAGRkZE5nlcoFPTo0QMPD49sld7FLjERvbs7iZaW3Bk+vEBVCzlRKJU4du3K43v38mynMjTMd+VhZSUJhnKsWbNmmJmZ5Xre2toaE/kkvFSkT41IS0ig3fvv49itG/adO+P95ZfcO3s2x7UY/H/7jcjr16nZogWNhg5FXaMGm44c4cTXX8taDC+YYcP+yPVcdHQyR4/eont3p1KMSJQXZ1evBqDVO+9kJBcAzGxseP3PP1nh6Mi1P/6g/+rVGJqaFrj/x48fk5CQgKOjY6EX/K1Rowaurq4EBwcTHR1NjRo1ePDgAXfu3KFdu3ZUy8f2Wpd//hltSgptpkzJ8umigYkJA9et4463Nw/9/Qn386Nm8+aFilOIkvLZZ0dyPTdjxiFJMBSDAC8vfDdswNjSkkE//ojKyIgus2axb/Jkjs6fny3BoNNoMqagdv/iC+r16oV9ly6EHD/OpQ0bpIqhjKSv6xAfH5/jeYVCgYuLS6kkF7S9exNnakrcrFk4t2lTLEknhVKJZZ06xRBg5SZTJAppwypvNm29DpIhrRSSk5O5fTsQR8crmJhk3wu39oMHuAQEYOXkxBR/fwyfriB7acMG/nr7bWq3a5dlRwm9Tsd3TZsSef06r+3cicurrwLwc69e3D5yBPeVK7NVMZzft4/N777LjVq1SM6UfIiNtSQ83IX69V+q1KX0oaGPuXUrBnt7SxwcKtfaBCdOhOS6SxGAWm2Aq2vhs+qi/NMkJxN27hyGZmbUbt064/i9CxdIS0zErl07DIyNSUlJ4datQBo2vMnGjd/wz6gIwFnVAAAgAElEQVRRPLh4kSlXrxZqjYKffvqJefPm8euvvxZ6DQaAsLAwJk+eTGRkJI0bN+bSpUs4OTmxevVqbG1tn/v6XW+9xeWff2bEjh00HjaMxMRkWrf+nPv307C3r4suMor4B/ep1rAh5pn6i7l9m9i7d7GuV58qdvIzUp5dvHifhIQ02rSpjalp5fr86vjxkDzPd+lScjuDVRahoaHAv9Spk/3vUqHT0encOUxSU3ll/XpaPV3rSpuayqqGDXkcEsLYQ4eyJBl8N21i9/jx1GrThknnzgEQ/Pff/NK7N1Xs7XPcUWJR795cu3WL0EwLEer1EBTUCGvrl/KVLBXln16rxfnfk3zVLATjLZsr5S4N5V3l+g1QWiIj+WvWJo4nOpR1JKJYWfDw4W0gINuZHoAz0O3//i8juQDQ4s03c6xieLZ6IV33efNyrGLQpKTw9+TJVAsNJSQ0lH+zXL0zYEZ4eFgx32/5FBISS0hIbFmHUaoSEzXPHcCKysABEiAoy791DQBCzoZnOmbBw4eBXLlyhdT/z959R0V1vA0c/+4uLL0KIjZQBHsvsYvG3kus0RiNxm7Un4nGiv1N1ESDNYnRGI0l9oJiiSW2WBERsYAKKhZQisAu7O59/xAISEc68zkn55h7Z2fnwrI7+9xnnom/C6SfTjZbWgIDA/ntt98YPXo0zZtnf524Vqtl7969PHnyhMmTJ1O1alUuXLjAunXrOHbsGJ999lmGfcji71ap3rwBICjoFXfv6gMm+PhEAkrAgcD7sXA/6c9H/u54gAYCxN9IYXD1avrpw0WReP/OLCUPH6asp2DMu5mOtlKlxOACkGYWw/vZCwnSy2K4/uuvaE+exAT4J1kBQSXQlODgKCAq5y5VyFde+uVZsdcdU0vT/B5KsSQyGLIqJARN8+Y8r1mX17N+AFkup/gIeSYs7DmWlrJUz0mShK2FBaUdHVOcu7FxIweGD0/MYkgreyFBalkMJ6ZP5/x331Gidm1abNyI7L1MhbAwJZaWGRdRK8x+/92LH364xJgxDRg9umilm37//Tm2bvVJ8/z588MxNRXZUEVZxNOnbO3cGWtnZ/rv2pV4/MLy5dzcvJmqvXrh6uYGQFjYC8qXN0d7/z5b2rfHrEwZJj1+jDwLGUwvX75kwoQJVK5cmZkzZ2JgYJDtsd+4cYMePXowceJEpk6dCryrEzRjxgz27NnDwYMHqVy5crp93PrzT/Z8+in29evzxcWLKPT18fYOICDgBSVNTPijfXsAPj3sgXnZ/+42/evuzvVff6XZtGnUSlIwVyh4+vf/Cz+/UA4dGki5ckUrC61Ll608eRKZ6rkKFSzZt29AHo+o8ImOjkJfPwJ9/dTnzZJKRe1GjVIcTy2LIbXshQSpZTGEBwWxpkYNYiMiaLp2LXZNmyZ7THi4BnPz0shkqc8BhcKnXDlzrKyyvqxQyBkigyErQkKQXF15XaMGJdavpqzYu7uIyV5BltpDhvBPkiwGVXh4qtkLCd7PYnh+8yYXli1DYWBA/23bsK1a9UMvpFAqXdoMgFKlTKlVq2gVx9mypQ+HD98nLEyd4tzQobVo2rRcPoxKyEth5jGU4gUljeySvb7LzBzB6z1rebN3HYF20HDMGMqWNube/v2cnDEDgObTp2cpuBAUFMTUqVNp1qwZY8eORU/vwz7q7927R0REBA4O/2XtyeVyqlSpwsuXL7l3716GAYYqPXtiW706wdeusa1bN1rOmkX5cuWQqx5zfOI3lOJdBkfzzvWSPS7EDp7xAucyekXufaGoMTZ+V+OjShWbIreLxNGjg6lde13iDhIJ9PTkeHoOxtlZpNbnFoVSSYsZMzg8ejSn583D0dU11eyFBKllMRwYMYLYiAjqjhhBO1GbQRBynbj9nlkhIdCmDWH16qGbPRsjEVwQ4sn19GgxcyYAp+bMSdw5otWcOalGwx1atMCxTRvePnvGv+7u7B82DEmrpfX8+cU2uFAcvHkzne7dXUioaySXw/Ll7dm0KWUQSig+Sri40H/3bhQGBlxbt451tWvj7uyM56RJaKKjaTZ9Oo3Gj890f3fu3GHixIn069eP8ePHf3BwAUjc1zwuLi7ZcZVKhVwuz9S+5/rGxvTbvRvT0qXx9/RkY4sWrHR0ZPfAgUQEBVGpc2emhxevpVFC4VG9eknu359A69aOyOXvPtdr1LDF33+iCC7kgbrDh2NevjxB586x7/PPeePvj32DBrh07Zpq+1bxgYd/lizhypo1BBw7hnm5cnRYvjwvhy0IxZYIMGRGfHAhplUrXvbrh13Nmvk9IqGAqT1kCFZOTgRfu5Zu9kKChFToE998Q8idO5T56COa/O9/eTRaIb/s3z+QU6c+B6BzZ2emTGmSvwMSCgSn9u0Zd+cODceNo3TDhthUq0bNTz9l8LFjtF2yJNP9+Pr6MmTIEEqUKMGzZ89YvXo17u7uuLu788cffxAZmXqKd0Zq1aqFvb0958+fR6PRABAVFcXff/+No6MjNWrUyFQ/NpUrM+72bVrOmYODqyvWzs5U7tmTHhs3MujQIQzMzbM1PkHICxUqWPH330MZOfJdls2MGS0oX75oLQUpqBT6+rSIz+i6tXUrkHr2QoKELIaIwEA8xo0DoPuvv4r3GEHII4V/iUR4OHTtChntnT14MLi7Q1bXV8UHF7RduhBQrx4VmzZNLFYlCAkSshgOxBcnSit7IYFDixaUa9aMoPPnAeixcWOWUqAFQSharCpUoHP8lpXZ5e/vz927d7l27VqKc87OzrRo0QIzM7Ms9+vk5IS7uzuzZs2iS5cuODg44Ovri0wm46effqJMFip0G1pa0nrevCyPQRCE4q3u8OEcjl/eYFamTJrZCwlazZ3LH/FFIeuOGIFTfJ0XQRByX+EOMISHQ/v2cPlyxm1Xr363F82qVZkPMsQHF+jZk8DWrSlhbS2WRghpSqjFoDQ1TTd7IcHHS5awqWVL2n73nVgaIQjCB+vWrVu2sxQy0rZtW9q2bcurV68IDw/H2toaa/F5KAhCHlHo69Nl3ToOjx5N13XrMmyfkMUQ9uiRWBohCHms8AYYkgYXatcm9sAB/K9fT9zSKymjgACc/u//UKxZw9sXLzDZuTPjLIQkwYXXn39OrK8vjh+wh7hQ9CVkMRhaWGSqErFDixY0//ZbsTRCEIRCw9bWFltb2/wehiAIxVDd4cMJOH48w+yFBK5ubug0GrE0QhDyWMENMERHw3sFpRKFh8Mnn8CVK6kGF+T6+smaqytX5uGsWVRYuBDT3bt527s3Jhs3ph1kiIyEzp2hZ0/ipk8n+PBhKn78sVgaIWSo9mefZel18vHixbk4GkEQBEEQhKJBoa9Pn23bMt2+Qps2uTgaQRDSUjADDJs3w/DhoNWm3+694IJpqVJUcHVFnkbVbFXDhtCjB6b790N6qZ1yOYwaBfPn8+TUKUq4uIilEUKmiDoKgiAIgiAIuUPx3k1EQRAKnoIZYChVChwcQKNB0ulSbSKVL0/Mxo0EZjK4AGDYrh2q/fvRfPYZsrg45Hp6Kd+oJAnJxATNpElE3L1LbFSUWBohCIIgCIIgCIIgCBkomAGG9u3B35+Xvr4EX7+edrv44o6ZCS4kMGzXjuhbt/A/eRJdWkswkvTt6OoqlkYIyUg6nXhNCIIgCIIg5AIxzxKEwq1gBhjiGVpYYGhpmW4bA3NzyjdtmqngQgJjGxucPv6YJ//+iyRJqbaRJAk9AwNMRDErAYh9+5YLy5Zx/ddfiXr5Ettq1Wg2bRrV+/UTyyIEQRAEQRA+gJhnCULRUXADDLduYa5SYW5nl/p5W1twdMxe397eGKvVuJQsmfp5S0twds5e30KRo9NoODN/Pl6//06TyZOxr1+f2zt3cmTCBOR6elTv2ze/hygIgkBsbCzbt2/n1KlTvHr1CrlcjpOTEwMHDqRRo0Yf1Hd0dDR//fUXR48e5e3btzg7O/PFF19QvXr1HBq9IAjFlZhnCULRUjADDD/8ABlt3WdsDAcPvttKMisWL4aZM9Nvo1C826Gibt2s9S0USS99fPDZvp0Go0fT7JtvkMnllG3cmIgnT7i6di1O7dplmGkjCIKQnvCgILw2buSBpycyuRxLR0cajhlDuaZNM91HdHQ0e/fupXv37vTs2RONRsPixYvp1q0bv/zyC927d8/W2N6+fcv48eO5evUq69ato2bNmixfvpwePXrwxx9/0KRJk0z3FRsVxfVffuHB0aPEvHmDRfnyVO/XT3yBEIRiTMyzBKFoKZgBhtatoWNHpLg4tLGxKU7LXr5EcfcuUteuxG3fjjKzk6YkwQWpeXO0MlmqzaSSJVEplei9eYORlVW2L0PIGp1Wi1atBkCmUKBnYJB6O40G31278Nq0iaiXL7GpUoVGEyZQLguT3Kx4euUK2thYnNq1S1wTaGBmhlP79lxYupTXDx5QukGDXHluIX89fhzGqFGHOHv2MXK5jK5dXVizpjPW1sb5PTShCHl89izbe/ZE9eZN4rGgc+e4tWULLWbNos2CBZnqR6FQUKtWLTp37oxV/GfX6NGj2bdvH3/99RddunRBkY1U43PnzrF//37mzZtH8+bNARg3bhxHjx5l1apV1KtXD4M03q+TCr1/nx29evHq9u3EY88uX+bOrl14derEgP37RYV4IUft3u3L118fJzj4LRYWBnz7bXO++qpxfg9LeE9Bnmdldm6alKghIRR3BTPAULcuHDlC8PXrvPL1TbVJqb/+wu7AAfT69iV661aMP/kk/T4TggsGBki7d/PExobX9++n3f7GDfDyonLXrhhaWHzAxQiZdWHpUk7OnAk6Hchk6BsbU6ZRI5pNm0alDh0S211Zs4ZTc+dSpWdPnDt3xm//fv7q25c+27bh0KJFjo5J0ul44++P0tQUs9Klk52zKF8ebWwsEU+figBDEeTj84I6ddaj1f5Xp2XHjtscOHCXR4++omRJ03wcnVBUvPTxYVP8TkXV+vXjowkTMDA3J+DECf6eNYt/Fi7EqkIF6g4fnmFfZmZmzJs3L9kxIyMjjIyMiI6OTrPmUEbu3buHJElUrFgx8ZiNjQ01atTg/PnzBAcH45jBkkVtbCzbuncn1M+PMh99RMvZs7F0dOT5jRucnDGDB0eOcGzqVDqtXJmtMQrC+2bOPMnixecS/1+l0jBpkidHjjzg6NHB+TgyIamCPs/K7NxUp9HgvXUrF5YtI8TPDyMrK2oOGkSLmTNFPTeh2CmYAYZ4lg4OxEZFQSqTopj//Y9QIyNK7NiB4aefovL2xrBWrdQ7OnEC1q9PEVyQyeWYlS6dZpRRaWKC0sQkJy9JyIChpSUdV6zArmZN3gQEcGnlSvYPH06/Xbso16QJUa9ecWvbNiq0bk2X1avRNzbGpWtXtnbujPeWLZRv1izHo8Zx0dHI9fWRvXfnLyGKrVGpcvT5hIKhU6etyYILCWJiNPTps5N//sn4C58gZOSP9u0BUJqb03fHjsTjdrVqYVG+PH/17cv5pUszFWBITWBgIGFhYbRs2RK9LBRDTkqpVCJJUrIAhUwmo1y5coSFhfH8+fMMAwy3tm0j1M+P0g0bMuzsWRRKJQAlq1endIMGrK9Xj8urVtFqzhyMS5TI1jgFIUFISHSy4EJSnp7+eHo+oEOHSnk8KiEtBX2eldHcFMB7yxaOTZ1K7aFD6bp2La98fTm7aBGxb9/SefXqTGU+CEJRUaADDMYlSuCY3h3pli2JNDXFbMMGDDNKIX0vuCDX18fp448xtrHJ2UELHyRh7XGpOnUoVacOJiVLsqN3bwL/+YdyTZqgUamIffsWU3t79AwNATCwsMDQyoqY0FAkSSL1hS/Zp29sjC4uDkmrTXZcE58ylzCOwuDFi7ccPx6Q38NI1bVrwQDcvPmcLVu883UsGo2WJ08i0zx/7lxQtsfo5xcCwJMnEfl+nULeiXr1ipvUwvxNOcyS/N599OsTTiBtvl7Ali3eSJKEn58PtWsr+eSTPlg4OhLq58frBw+wrpS5L0QvXrxg3759vHjxgmvXrjFp0iRGjhyZ7bHXqVMHExMTrl69SpcuXZDL5cjlckxNTYmLi+Pt27cZ9vHsyhUA6o8alRhc2LjxGFeuBFC3bl2e1xjE0ytXWDl3N+Ua/5fCfvuWjLvUQrqi5r74eynQQkNjANi3zw87u/zN8Nq6Nf3XyhdfHOD//q9ttvq+dy8UgHPnAlMNQhc1VavaUL9+6YwbfoCCPs/KaG6qCg/n5h9/UL5FC9osWIC+sTHlmzdHo1JxacUK3vj7Y1utWr5egyDkpQIdYMgMs19/JdzKCs2VK8hkMgytrFLdsjK2UydCTUyIEMGFQkXPyAi5nh66+A8dE1tbbKtV48mlS4QHBmLp6Ejw9euEPXpEtT59cnwrI5lcjpWTE7Fv3xL57BlWSVKEwwMDUSiVmJctm6PPmZt8fV8xZMje/B5Guvbs8WPPHr/8HkaGPvTn6OX1osD/LoSc1huC4Pdkv/cGQAP2zr4B3EhyfB+//fYWI2trwh89ytKzGBgYUK5cOczMzHj+/DlnzpyhSZMmtMjmErKGDRvy7bffsmzZMp48eYKjoyOvX7/mxo0bKTIb0hL18iVAYl0jb+8Ahg+/GH/2KFAOKMfe1cGwOunPRw/ozd4/ouAP8fdSGEydejy/h5Chp08jP/j9d82aq6xZczWHRlRwTZ7cOFcDDIVxnvX+3DQuOpqY16+xrlQpWTDE1N4ejVpNdEhIfg1VyClqNWzbBu8FwZIxMYH+/SGNGn/FSaEPMABYLF1KsJcXL3180m/45IkILhQicdHReG/Zgk6rTaykrmdoSJsFCzj45Zf82qQJ5mXK8CYggOr9+1PvA+7QpadMo0YolEr8jx+nXNOmyORyVOHh+Ht6YlOlCtZOTrnyvLlt3LiG+T2EZG7cCObChSc0alSahg3L5PdwWLPmSmqrswAwMFAwYkS9bPX79Gkk+/b54eBgQdeuLh8wQqEwUUdEcPOPPzAqUYKaAwYkHr/v4cGbhw+p0LoNttWqEhen4datKzRs2ImPmzThj3HjkOvrY5yFNbyWlpZ07twZgE8++YTRo0czevRoDh06RIUKFbI8doVCwYQJExgwYAC+vr4olUpcXFxwd3fnzp07mJpmfLfavn59fP/6C//jx6nauzc1ajjSo4cBDx9GUK1aVfy3bwegau/emNnbJz7uyaVLPLt2jfItWlAqrWWQQoGwY8dtQkKiGTy4JhYW+XvH+eHDN3h4PEjzfO3adjRvXj5bfZ8+/Yjbt1/Rrl1FXFyK7nKeDRuuo1Kl82UqBxWmeVZqc1MDc3PMSpfm2ZUriTe/1JGR3Nm9G7meHkZi2VfhplZDr15w5EjGbc+cgTVrin2QoUgEGADs69RB39iY2Mi005oBLB0dxfrOAiw2MpKjkyahb2xM+OPHaFQqXOfNo3x85fKEHSRe+fpSvkULSri48Oj0ae57eODSpQsuXbvm+JhKVq9OzUGDuLp2LQp9/XcT5V27eHbtGl3XrSuUWyf16FGZVas65/cwklm+/AIXLjyhSxcX5sxpld/DwcREn++/v5DqubVruzBsWPa2sT179jH79vlRs2bJAvc7EHJP2KNHrPxjICXL1GLMqs2Jx+/sUbGzTx8MvS4yZOlxStevD3QnOjSUHb17o4mJoebgwdkuNqxUKqlduzZ79+7Fz88vWwGGBLa2trSKL0ip1Wp5+PAhVlZWlC6d8d3Nqr16cWrOHK79/DOOrq7U6N+fffumo42N5eikSVzFA4A5fx1MVkfn71kX+OeaBx37duSjCeLvpSC7eDGIkJBo3NxccXKyzu/hYGe3lJcvo1Mc19eXc+nSCAwNszcFHj36ELdvv2LYsDoMHFjzQ4dZYNWtW4oRIw7myXMV9HlWRnNTpYkJH02YwL7PP+e3Fi0SazW8fvCAKj17YvUB77tCPksaXLCxQde/P6pUlgXKYmIwPHgQ2bp1qMLDMdiypVjvJFJkAgwANi75czdQq9USFxeHUqlE/t6LSaPRoNFoUj2Xk8+vVquRJAmFQoFhIaoJ8D6FUknZxo2JjYzkhbc3refNo8GoUYl/pM+uXuXfn36izrBhfLx4MXKFgpg3b9jZpw9nFy6kTKNGmJQsmaNjkuvp0XLWLJSmplzfsIGoxYuxrVaNLqtXU7VXrxx9LqHg+O67dkREqFm//lpiJoNMBosXt8l2cEEQ3le1d2/qjhjBjV9/5ZdGjSjTqBH6xsY8uXgRTUwM1i4utP2//8tUX3fu3MHX15c+ffokOx4REYFCocDIyChbY1Sr1YSEhFCmzH+ZRc+ePcPLy4smTZokO56WEi4udPzxRzzGjWP3gAGcmT8f87JlCb5+nZj49OHPz5wp1hMyIWf5+39FrVprefgwLPGYlZUh//6b/eCCkDsK+jwro7kpQKWOHRl+7hz3PTxQR0ZiYGGBOjKSRuPHo29cMLe2VqlU6OnppSgArNPpiI2NRV9fP1NbG2s0GrRabaa2K37/ObRaLTKZDAMDg2xto5yrkgYXHBzQHjuG/4MHxLx+nWpzo+rVcfruOwy3beOtSoXJrl3F9jNNvMPmgD///JNZs2axfv16OnbsmHhcpVIxZswYjhw5wg8//MCgQYNSPPbEiRMsW7aMW7duoVAoaNu2LbNnz87SXaaffvqJBQsWJK6DNTIyonbt2owbN47OnTvnWmAjNygMDKgxYAD2desSFx3NheXLKdukCWU/+giANw8folGpKNOoUWK9BUMLC+zr1cNnxw6iQ0NzPMAAoDQ1peWsWbScNSvH+xYKrrVru7JyZUfatNnM+fNB7NvXn+7dq+T3sIQipuu6dZiXKcOlFSt4eukSAHKlkqqffELXtWszvaQvIiKCQ4cO0alTJ4zjJ7TPnz/n2LFj1KpVi1rZXGLw9OlTFi9ezI8//oiZmRkajYYNGzYQHR3NuHHjMr07RcOxYzEwN+fkjBmE+PoSEr8NdZnGjem5cSM2VcTflpBzTE2VBAR8hb//aypVcsfISI/Xr6fl97CENBTkeVZGc9ME1pUq8dHEiQScOMGV1aupN3Ik5XN4+/Sccu/ePXr16kXXrl1ZsmRJsu8Kf/75J//73//o1q0bq1evTjdwEBQUxNChQ9HpdOzcuZOSmZyDX79+nQEDBhAa+q5oqkKhwMHBgf79+zNq1Cgsspm1lyVHjsDFi2mfP3wYrl9PEVxQmpomqxWSqFYtXjs6Yj1mDKZ796Jq3BiDDh2QpbZcQiaDTp0gSVHjokQEGHLRgwcPuHbtGgqFAg8PD3r27Jk46QO4dOkSEydOpEGDBmzZsoWnT5+ydOlSvv76azZs2JClPy4LCwuWLFlC9erVefbsGT///DPjx49n3bp1yYIehYXS1JSWs2ezo1cvTru50efPPzGysnqXJieTEREUlNhWGxtL2OPHKE1MCmyUWCi8lEo9HBwsOH8+qFAF64TCQ65Q4OrmRrNp0wi9e5fYqChsq1VLLIiYWRYWFty6dQtXV1eqVq2KTCbDy8uLqlWrsmjRIqyts5e2rlAo8PLyokePHlSsWJGAgABkMhm///47DbK4N32twYOpMWAAbx4+JOLJE2yrVcPUzi5b4xKEzEhYrqGnJ96/hQ+T1tw0qbBHjzgxfTo2VarQaPz4HC8+ntuio6Px8PBAT0+Py5cv4+/vT7U0dsBQqVR8//33+Pj4pNkmPXK5nJEjRzJkyBCioqI4dOgQ7u7uvHnzhgULFmR7a+VMGzgQwsPTb/NecMHQygqntm3T3na0Vi1U9vbQsyeGV65A/A5KqTp0CK5dy/74CzARYMhFp06dQiaTMWTIEA4fPsyDBw8S7yDpdDr27dtHyZIl+f777ylVqhQAr1+/ZvXq1fj7+1OvXuaLyMnlcsqXL0/NmjWpWbMmDg4O9OvXj4MHD9KuXbuCl3aUCaVq16bp119zYto0rq5dS/Pp0ynTqBH2detyYflyFAYGlKxRg3sHD+J/7Bj1v/yywFUaFgRByCx9IyNK1amT7cdXqVKFq1evEhkZSWj8tr329vYfvGzOwcGBy5cv8+rVK96+fYu1tTVWWQx+JCXX06OEszMlnJ0/aFyCIAh5LbW5aUIafGxUFKfmziUyOJgOP/6ISRaK8xYUfn5+3Lx5k6FDh3Lw4EHOnDmTZvBg27ZtnDt3jj59+nD37t1sPZ+1tTXVq1dHLpdTp04dAgMDOXHiBGPGjKF8+ewVYs00Dw+4epWokBDioqJSbaJq1YrXt28TFxWVcXAhnmG7dsQcPsybTZuQtFqUpqYpb4DKZKgbN0Zz5QqWDg65kn2dn0SAIZeEhYXh6elJvXr1GDBgAB4eHpw4cSIxwCCXy5k4cSJjx45NDC7Au4JcQKa2/UqPpaUlFhYWhIWFodVqC2WAAaD2kCEEnjvH5dWrKd+8OQ4tW9Ljt984s2ABZ+bNI+bNGyzKl6fp1Kk0njSp0EWKBUEQcpqZmRlmZmY52qdcLsfOzg47kW0gCEIxl9rcVNLpuP7rr9w7eJAWM2ZQvlmz/B5mlul0Oo4fP45SqWTgwIEEBgZy5MgRBg0alCKr+sqVK6xatYrRo0ej0WiyHWBISqlUYm9vz7Vr11CpVB/cX4aaNkVq3Bj/7duRdLrU20REAGQ6uJDAyNUVqUYN/E+eRBcXl3ojlQru3kUVFoZTu3bZuYICSwQYcom3tzf37t1j8ODBVK1alfr163P8+HGGDRuWeOfn/crbkZGRnDp1CicnJyqmtrYnC+7evcvTp09p3bp17qcY5ZDm06fTfPr0ZMeUpqb02bo12TFLR0d6bNiQl0MTBEEQBEEQipnMzk1lcjmNv/qKxl99lZfDy1GvX7/mxIkTNGzYkMqVK9OxY0cWLFiAj48PzZIETF6+fMn8+fNp1KgRgwcP5vfff8+R5w8NDcXLyw8vhu8AACAASURBVAs7O7sPypLLCplcTqUOHVCFhaXbzrxs2UwHFxIY29jg3KED0fF1JlIfgCzZ1sxFReH45lnI6HQ6jhw5goWFBY0bN8bAwIAOHTowe/ZsvLy8aN26dYrHaLVaNm3axM2bN1m+fHmW/7Di4uI4cuQI3t7ePHnyhD179mBnZ8egQYPEunFBEARBEARBENJ0/fp1Hj58yKhRo1AqlTRt2hQzMzOOHj1KkyZNkMvlxMbGsmLFCiIjI5k+fTomJibZfj5JkvD29uaXX34hMjKSo0ePcv/+fZYsWYJtXiwvWbYMLl/GWCYjzQpuX34JH3+c9b63boUDBzAEUl2kKJO926Gif/+s910IiABDLnj69ClnzpyhatWqqNVq7t+/T5kyZTA2NsbDw4OWLVsmW7Kg0+nYunUrq1atYurUqXTq1CnLz6lSqfD09MTExAQLCwuGDBnCkCFDKCtqEgiCIAiCIAiCkAatVouHhwdmZmaUKlWK+/fvo9VqqVy5MqdPn+bFixfY29uzf/9+Dhw4wKJFi7C0tCQ8PBy1Wo1OpyMqKgq1Wp2l7Sq9vLx49uwZRkZGVK1alQULFtCkSZNcvNJ4jx/DtGmQ1tKIBAcPwoED0LZt5vveuBFGjMi478BAEWAQ0qbVagHQ19cH3u0OERAQwJ07dzh48GCytmfPnuXp06eJhUt0Oh3bt29n8eLFjB8/nuHDh2cr48DMzIwVK1bQtGnTD7waQRAEQRAEQRCKKl38l9+E7y6BgYGcO3eOR48e0a1bt2RtjYyMuHTpEt27d+fUqVM8ffqUzz//PEWf9evXZ8aMGUydOjVTY5DJZHz22Wd88803eZtt/fgxtG4Nc+dCo0a8unuXuOho3t9M0uSffzA/cgRdly6oNm/GODPBgITgAsCsWYSVLUvM69cp28lkqKtWRXfyJFYVK2JVocIHX1ZBIgIMH0in0/H06VOMjY0pWbIkKpWKw4cP4+TkxMaNG5MVxDp27Bhff/01Fy5cSAww7Ny5k/nz5zNy5EjGjBlTaIsx5pY7e/dStVevTLV9dPo0CqWSciLIIgiCIAiCIOSCrMxNX/r48CYggMrdu+fyqLImJCSEmJgYypQpg1wu59y5c4SEhLBhwwY+TrIk4Pnz5wwdOpQjR47QpUsXvvvuO6ZOnZp4cxXefZc5evQoK1asoHLlyvlxOZmXEFyYMgVp3Dhe+foSHBICJUqkbDtoEKWUSuz278dwyBCiIf0gQ9Lgwq+/8rx+fV54e0Nay0giIyEyEplCIQIMwjtqtRpvb2+ePn3K7t27qV27No6Ojty/f58rV67QvXt3KlWqlCwi17x5c8qVK4eHhwc9e/bk0KFDzJw5k7p162JpaZlYJMXQ0JDWrVunKAJZ3Nz84w8OjhzJxAcPMrX95Gk3NxRKJUOOHcuD0QmCIAiCIAjFyQNPT3Z+8gljbt6kZI0aGbY/PW8erx88wKVbN2Sy9++R5z0/Pz9evXrF+vXrMTY2pkmTJkRFReHh4YGDgwNNmzZNtmOEqakpLVq0wNPTE39/f6pWrZpilyIrKyv09fUpV64cpqameX1JmZckuKAaMoQgT09kCgWVOnRI+zEdOhBhbY35xo0YDxiAdvFiFO9vOQkQHQ3e3iCXJwsuyORySjdogFFatfVksrTPFWIiwJBNwcHBjB8/nsDAQJo1a4abmxtmZmacPn2auLg4unTpkiLdx87OjrZt27Jr1y4uXbrEqlWreP36NSdPnuTkyZOJ7eRyOStWrGDIkCF5fVkFRmRwMPs++wyAMwsW0G39+nTbPzx1isdnzgAQdOGCyGIQBKHQiQwOxv/YMWRyOZaOjpRv3vyDJ6RXrlxh9erVzJ49Gycnp3Tb6nQ6Tp8+zdmzZ5k6dWqKieKNGzfYsGEDgYGBODk5MXLkyDT3R0+PKjychydPJm4z7NCiBXqGqZbBEgRBKDDUERFs7dgRgOPTpvHp4cPptn/p48OdXbsAuLt/P1V69sz1MaZHo9Hw008/sWvXLhwdHZk/fz61atXCy8uLmzdvMnjwYEqWLJnsMQqFgq5du7Jv377E+nKFUnxwQZo8mVdt2vDy2DFK1apFCReXjD9nf/uNSIUCs19/ReHtnXa7VIILjq6umBfDG8YiwJBNjo6O/PvvvymOT5gwgQkTJqT6GLlczty5c5k7dy4Ap0+fzpGxTJ48mcmTJ+dIXwXFoVGjEv998/ffaTV7drpZDGfmzUv892k3N5HFUMxt3HiDq1eDqVHDljFjGub3cAQhXXExMRwYMQKf7duTFYUqWbMmPTdtwr5evWz1++rVK6ZNm4afnx+TJk1Kt21QUBDz5s1j69atNGjQgIkTJyY7f+rUKcaNG8f06dNZuHAha9asoU+fPmzevJmGDTP3NyZJEueWLOHU3LlIGk3icVN7ezq5u1OtT5+sX6RQ5ISFqVi+/AJhYSoGDapJkybl8ntIggCA55Qpif9+cOQIL3180s1iOJ10bjpvHpV79MjXLAY9PT3WrFnDmjVrkh2vV68evr6+aT6uVatW3L9/P83zY8eOZezYsVkaS4MGDbh3716WHpNt8cGFuDFjeOTsjOzpU5w7dcIgC9kWZr/8wsuuXXnt5weA0sTk3U4QSUhKJSpzczTFPLgAIsBQYOl0OpYvX87ly5fTbFOmTBlmzZqFjY1NHo4s99384w/uHTyIqb09Dq1acXv7dv5ZsoQuq1en2j4he8HQ2hokiYDjx0UWQzHl4/OCBg1+Qa3+b23gxIlHOX16KM2alc/HkQlC6nQaDZtcXXl2+TJKMzOq9OyJ0syMR6dO8fLWLbZ07Mjw8+cp4eycpX61Wi2rVq3i4cOHGbYNDg5m48aNdO7cmaCgIKKjo5Odj4qKYuXKlVSvXp3+/ftjYGDAmDFj8PT05KeffmLDhg0olcoMn8dj3Diurl2LTE8Pl+7dsXRw4LmXF4H//MNf/fox+OhRnNq1y9J1CkXLzJknWbz4XOL/r1p1hYoVLbl7dwJ6emLLbSH/PPD05MaGDSjNzanety83Nmzg9Lx59Pvrr1Tbv/Tx4c7u3eibmqI0MeGFl1eByGLIbcHBwcyfP5+QkJBUz8tkMlq3bs2oUaPyprDj48dIrq68HTSIx46OlKpQIXNZC6ko2aMHWgcHXvr4oE6rUUxMsQ8ugAgwFGg1a9ZMd39ZKysrDItYWmlkcDBHv/oKgK7r12Nfty539uzhxoYNtPj221SzGBKyF1rPn482NpZjU6aILIZiSKfTUa/ez8TFJd8WSKPR0bLlJiIjp2NsnPGXIEHIS3sGD+ZZfCB57O3bWJR7d7dWp9Wy97PP8PnzTzynTGHQezsSZcTT0xM/Pz8GDBjA5s2b021rb2/PnDlzUKvVbNq0KUWA4dGjR9y4cYMvv/wycfsxCwsLatWqxbFjx3jy5AkVK1ZM9zmeXbvG1bVrUZqbM/joUcol2Ybs4o8/cmzKFPYMHsz/nj5FriemJsXRjh0+yYILCQICwmjY8Bdu3BiVyqMEIfepIyI4OHIkAB1++IFqffrgu2sXd3bvTjOL4fS8eSBJNJkyhRIuLuwdPLhAZDHktoS6Dm/fvk31vEwmo2rVqnkWXNC1akVI585EuLri0qQJyg+sEWFfpw42lSuDJKXZRqZQoJeFrTqLIvEpXkDJ5XI6xq/zKk4OjRqF6s0bag0ZQuX4bXLqffEFV9euTTWLISF7waxsWeqNGIGk03H+++9FFkMx9P33F1IEFxLodBIzZ/7Njz8Wv78poWALungRgHbLliUGFwDkCgXd1q/n7v79+Ht6Eh0ainFqVa5TERgYyC+//ML06dP5+++/P3iMjx8/JiIiAnt7+//GJ5dTtmxZXr9+nakAg2/8OuQmU6YkCy4ANJk8mVtbtxJ87RpPLl2ifPPmHzxmofCZOjXtmwJeXs95+fItJUsW4AJyQpHlOWUKEUFBOHXsSL0vvgCg8aRJnJk3L9UshoTsBQMLC5pMnoyBuTlnFywoFlkMFhYWfBZfQy0/SY8eoWvenBcdOqCcNAknZ+ccC+zoGxnlSD9FmUyS0gnBCGn6ZugfrN756F1BDyFTJAnUahV6ekfR00u51quCVktftRpDGxsm3ruXWFU14skTVjo5IZPJUuwoscnVlcdnztBp1SoajRsH/Hc3rGK7dimyGO5duMDaNm34R5K4k+QumU5nR2xsH/T1zVEoiu7vNDr63brnHj0qs2/fgA/ur06dddy/H/rB/QDExemIi9Ohry9HXz/rvwOVSotOl/7bmbFx9mKqarUWrVbCwECBQvFhH1BarYRarUUul2FoKLalLS4knYRGFQMyOfpG/2WexcWoQNKhZ2iETC5Dp5OIjY3GxOQAHh7r8J08meCrVxl35w42Vapk+DxqtZrp06fj4uLCqFGj+O6771i1ahWHDx+mTp06GT62b9++vHnzhv3792NtbQ3Ajh07GDlyJOvWrWPQoEGJ7VevXs2MGTPYsmVLin3T37d70CB8tm2j/969VOnZk5CQcMqXdyMmxgR9fX3kkoROE4dCaYBc77+/C21sHDpNHHJ9JQp9cU+kIIuJ0SBJYGiol62pUcLnU1qy+9mQtO/sfgYkFRurQ6PRoVQq0NMrmHeivbxG4+ycuYBkWjZsuM6IEe8yp3Li51ZQJcxNFYoz6OtfS3HeTqdjqEqFwtiYiXfvJs5BVWFhrHB0RB0RwRhv72RZDDv79uXOrl20nDOH1vFZtt5bt7J38GDs6tRh1PXryb7svvL3Z3GtWlyNi+O6vn7icZ3OktjY/ujrWxXpuWlOkySoGhfM3i+g1LL/++CsBSHriu47Ri6SvLxQ7dhNrKYuyER8JrMk6d1/Go0WnS42xfloSSJMoaCTm1uyLVvMy5ZNNYvh/eyFBA1Gj041i0Gn1XJi3Dgs1WoM5HJikxRTk6Q4JEkfjUZKtrdvUZMwGcqptazR0XGJE7cPnWgl/Dq0WglJyvrvIKNYqUwGsbHZ+90mBC7i4nR86MsjYZiSJGV7PELhI0kgoQBJhpTk966T5IAMXZwOmSzhfVICZGi1Wt4+fw6A8r1twdKye/duoqOj+eyzz3IsBVWr1SJJUor+FAoFkiSh06WeOZSUUXz2xZv4mhAqVSxarRxQoNWCVicBCnQaCZkuyc9Hy7vjWtBm431ByDsJ721xcdr3a5/lCK1Wl+H7fEZy4j1Xq303Bo1GRyZe+nlKo3k3toyC7Zkhl8sSP9eL8mfVu/dcWfz7XMq5qUqSeCOX03TKlGQ3uAwtLVPNYng/eyFBzYED08xi8Bg9GsvoaIxkMmKTvMbfzU314uce4vtGZkkSxNrbU+qnaSiV4qtuvpCErLl5U9LY2EjP3dzyeyTFSnhQkDRfqZQWGBhI4UFBkiRJ0sZWrSQ3kP5dtSpF+ws//CC5gbS5XbvEY/8sWSK5gbS6enVJo1bn2diLMmfnnyRwk54/j/zgvpYtOy+BmzRv3ulsPf7NmxgJ3NL8LyDgdbbHNmjQLgncpIMH72a7jwRnzjySwE3q2nXrB/clFB5vHj6U3EBaU6tWsuNnFy+W3EDa1KaNpImNTXbu0k8/vXtMzZqZeo7bt29LvXr1ku7e/e91unjxYql06dLSjRs3Mny8SqWSunXrJjVv3lwKDQ1NPL5nzx7J3Nxc2rx5c7L2P/74o2RpaSkdO3Ysw77vHjokuYH0Q7lyUlRISLJzgRcuSG4guYH09uXLZOdOzpwpuYF06aefMnwOIX/Vq7dOAjfpwYPQjBunYsaMk2m+f9vYfPdBYwM3ycxs8Qf1kWDUqIMSuEl//umdI/3lpIYNf5bATfLze5XfQykWYt68kZZYWEhuMpn04tYtSZIkaccnn0huIP09Z06K9je3bJHcQFpbp46k0+kkSZKk6xs2JL43qsLD83T8gpBbRL5NVnh7I7Vvz9PPPsP666/zezTFSkIWg1at5p8lS9LMXkjQYPRoTEqVSsxieHn7Nqfd3JApFPTctAlFJiqeC4WLpaUh69d3TfXcwoWtqVDBKtVzQv5IK1MoNjY2zTviGo0Gtfq/2s1qtZqoqCiioqJQqVSZupNe0NQbMQILR0ce/f03m1xdubFxIz47drBnyBCOTpwIMhkfL16cYT86nY6VK1fy6NEj5s6dy8CBAxk4cCC7du0iLCyMmTNnsmLFimz9jOzt7TEyMiI09L/lUDqdjpcvX2JiYoKdnV2GfTh37kylTp2ICAril0aNuLRyJXf27OHY11/ze+vWADi4umJia5vl8WUkJ15rGo2G6OhooqKiiI6ORqNJP51fyLpFi9rQoIF9iuN6enIuXPgiH0YkCOlLyGJAkjg9b16a2QsJag4cSInKlROzGCKePEnc+rLbL79gYG6e15cgCLlCBBgyy9sbqUMHng0bhum4cegbG+f3iIqdFjNmIFcqubFhAwfigwrNp09PtVKrvpERzb75BoC/Z89m/7BhaNVqmn3zDaUbNMjTcQt558sv6+PnN462bSsAoFTKuXHjS2bObJnPIxPCwsJYsWIFLVq0wM7ODjs7O+rXr8+iRYt49eoVAJGRkXzyySf07t07xRZXOp2ORYsW0b59e54/f05ISAhdu3albNmylC1bFnt7e+zt7XF1dWXjxo2oVKr8uMwsM7G1ZYinJxaOjjy5cIEDw4eze8AAbm3ZgsLAgE+2b8ela+qBs/e1bt2aLl264OTklPiftbU1enp6lCtXjlKlSmVrjBUqVKBcuXLcu3cv8Qt5bGwsfn5+VKxYkXJJilOmRSaT0XvLFsq3bElYQACekyaxs08fLi5bhjYujpazZ/PZiRPZGt/7cvq1ptPpWLx4ceJrrUyZMtjZ2VGzZk2+/fZbnjx5kiPjFuDKlS/ZsqU3Zcq8WxJUu3ZJwsOnfXA9AUHILY0nTcLAwoI7u3ezs29fkCQ++uorDC0tU7SVyeW0nD0beLfLxIERI1CHh1P3iy+o1KFDXg9dEHJN0ViYEhYGoRkUmitbFrK7ZYi3N3TsSNjUqcTWq0eZDKplC7kjaS2GsICANLMXEiTUYngUX0Xdtnp1XN3c8mi0Qn6pXNmGvXsHYGa2BBsbY+rUSXlHTMhbgYGBjB07lqtXr/Lxxx8zcOBAFAoFV65cYf369fj7+7NmzRrgXf2Bc+fO4e7uzuzZs9HLYMvCxo0bs3DhQpRKJWFhYRw4cAA3Nzdu3LjBkiVL0t3qt6Ao4eLCeD8/bv35J08vXyYuKopSdetSY8AAzOwz9/qVy+UMGJCycOuSJUvw9fVl9OjRGRZ5TIudnR39+/dn69atPHz4ECcnJ7y8vPDy8mLatGlYWWUuO8jI2prPT5/m3sGDPD57loinTylZvTou3bpRqnbtbI3tfbn5WitRogTLli2jYsWKqNXqxD7PnTvHr7/+SuXKlXPkGoq7Tz+tSVRULKNGHaJdOyexvbBQoCWtxRDq55dm9kKCpLUYXgDm5crR4Ycf8m7AgpAHCn+A4d49aN0anj1Lv52rKxw+DFnNPIgPLqgXL+aZiQkuH32U7aEKH67FjBlcXbsWSDt7IUFCFsOx+PQzsTRCEPJebGwsS5cuxdvbm6VLl/Lpp58mFgscNWoUd+/eBcDQ0JC4uDhkMhlGRkZs3ryZ+vXr071793T7NzY2pkqVKomBhGbNmuHg4MDSpUtp3Lhxsl0PCjI9AwPqDhtG3WHD8vy5nz17xs8//4y/vz/Xr19HrVYzduxYKlasyPDhw6lUqRKjR4/m1atXfPrppzg7O+Pj48Pnn3/O0KFDs/RcMpmMyt27UzmD32t25PZrTU9PjwoVKlCzZk0AGjRoQMOGDfn8889ZtmwZ7u7uGBoaptuHIAhFT0KAAaDR+PGpZi8kSMhi2Dt4MCCWRghFU+EOMCQNLtjaoitd+r8yxknI7t5Fdvo02vbtkXl4IM/sH3J8cEFauZJHRkbYV6smlkbkM/OyZWkwZgx3Dx5MN3shQUIWQ91hw8TSCEHIB3fv3uXkyZO0a9eOvn37ptiJILW7vq6ursTGxrJo0SKqVKmCi4tLpp9PLpfTp08fduzYwe7du+nevTumxXiLqm+//ZZvv/023TalS5fGLYPsLlNTU7777jvevn1LSEgIJUuWxLiAfR7m9WsNoG7dunTq1IlDhw7h5+eX7SwRQRAKL0NLS1rNnculFStoOnVqhu0TshjKN28ulkYIRVLhDTAkDS706UOUuzsBZ86gS6Xwkl5YGE6LFmF4/jzRLVpg+M8/GQcZ4oMLuLvzolIllK9fYy2WRhQILWbMwL5+/XSzFxLoGxnRbf16KnXsmAcjEwThfffv3yc8PJxWrVpl+u6umZkZY8aM4fPPP2fhwoWsXr06S0sdbG1tcXZ2xsvLi9DQ0GIdYMhppqamBfbnmR+vNYVCQf369fnzzz958OCBCDAIQjHVePJkDC0t081eSCCTy+n000+Ubdw4D0YmCHmvYAYYJAkuXoS0inQ9fw5Tp0JwcIrggoGZWcosAzs7nv/4I/aTJ2Ps7U1M48YYfP898rTuvoSEwKRJ4O5OTOvWhJ48iUuXLjl7jUK2JdRiyKzcSMUVBCFzoqKikMlkKdbpe3l5cfToUSRJwtLSMnGtfIJq1aoxffp0vvnmG3777TfGjx+f6eeUy+WYm5ujVqsLTbFH4cPlx2sN3gVd5HI5UVFROXIdgiAUPoYWFu92lMgkp/btc3E0gpC/CmaA4bvvIIOUTiBFcMGmcmXKNGyYZvO4hg2JbdkSozt3oFu39Pv+v/9D6tWLQA8P7OvXF0sjBEEQsiHhbndkZGSy42FhYVy7do1Hjx4RFxdHp06dKFEieaX4Hj16cP36ddauXUvtLBQB1Ol0hIeHY2hoiJGR0YdfhFAo5MdrLeH5dDpdgc3sEARBEIS8VDADDN27w/XrSHFxaFSqVOsq6MqUIWLSJJ5nMrgAoO/kRNzZs0R8/jlSTAxypRIDc3Nk7/dtYYGqc2fC//0XpYmJWBohCIKQTS4uLlhaWnLx4kX69euXWKnf1dUVV1dXfvjhB7Zs2ZLqY5VKJZMnT+bWrVvMnz+fatWqZeo5X758yYMHD6hYsSLW1tY5di1CwZYfrzWtVsv169exsLDA2dk5x65FEARBEAqrghlgqFYNdu4k+No1Xt25k3a7mzcBMhVcSKDv5ASenvgfP476vbscqfXt1LZtpoctCIIgJFe5cmU6derE3r176dSpE507d87S40uWLMmcOXMYNmwYDx48wNHRMd32Op2Ov/76K3G7QnFXufjI69cawLVr1/Dw8KBly5ZZLhApCIIgCEVRwQwwxLN2ckIbG4uUSgZDAgNzc+xq1MhSv/rGxji1a8dzb28knS7tdkZGGNvaZqlvIfsknY67Bw5wduFCXnh7Y2xjQ+2hQ2k+bVqmiuYIglDw6Onp8b///Y/Hjx8zduxY+vfvT9u2bTEzM+PWrVvs2bMHeLd9YVoaNWrE5MmTmTVrVopzUVFR+Pj4oFQqCQsL4+DBg+zatYvevXtnuO2gULTk9mstLi6OBw8eoNVqUavVXL16lZ9//hkbGxumTJkitqgUhCJIzE0FIesKZoDh7Vv46y8MVSrKpdWmfHnITuFFjQY2b0ZfrU67bxsb6Ns3630LH+TB0aMcHDUKp/btabNwIa/u3OHCsmWowsLouGJFpnaNEASh4ClVqhS//fYb27dvZ9euXWzfvp2YmBhsbW1p2rQpw4cPx8HBIcXa+aQGDRrEzZs3uXXrVrLj//77Lx3jd4kxMTGhatWqLFq0iH79+mFQzN4zdDod7u7uHDhwIFlgXi6XM2nSJLp27ZphH9HR0fz2229YW1szaNCgLJ/PLEmSQJKQvbeV5IfKzdfa69ev+SK+wLC+vj5ly5alR48ejB07Fnt7+xy9DkEQCgYxNxWErCuYAYZly2DevIzbubtDVqo9azTw6aewc2fGbf/5B5o3z3zfwgeJjYriytq12FSuTMcVKzAuUYJKHTsi6XRcXL6c2kOGUK5p03wbn0atRqfRIJPJUCiVyPUy/tPRqFQolMp0J9CZaSMIRYGpqSkjRoxgxIgRabYxMzPjwIEDqZ4zNjbG3d092bHjx4/n6Bjz08O//+bSypX4e3oik8uxdHSkwZgxNBg9GoW+fqb78ff35+3bt8mKGMrl8mS7JqTl9OnTfPvtt1y9epWZM2ei0+mQJ3lvyuh8ZrwJCODU3Ln4HzuG6s0bzMuWpVrfvrScORODjLaPzqTceK3NmTOHOXPm5Mj4BEFIKbfmWR+ioM9NBaGgKpgBhrFjQaNBGxODKjw8RZFHeUgIhocOIZswgejXrzHOzId+0uCClRW6IUOIiYpKvYCkrS3RRkboBwSIAo95JDwwkJe3blFn2DCMkmwxVqFNGy7+8ANBFy/m25u4OjKS7T168OjUqXcH5HJMbG1x6dqVlrNmYfneOt3Yt2/5e/Zsbm7eTK/Nm1Pd4jQzbQRBKB6urF3LkQkTkLRaZAoFyGSE3LnD0YkTCThxgv579iDPRIAAwNDQkNmzZ2cqWyGpc+fOcfbsWSZPnsyUKVOyfD4zAk6cYGffvqjDwgBQGBgQ9vAhF77/nju7dzPy8mWMRFFOQSh2cnqe9eDoUc4uXMhzLy9kCgXOnTrRZtEirJ2csjSugjw3FYSCrGAGGEqWhIULeX71KiF+fqk2sShfHoc1azCeO5e3cXGYLliQdn9JgwulSqE9fpyHz54R9fJl2o+JLy5pZGWV7E1FyB2Rz54RGxWFtZNTski0cYkSGFpa8vrBg3wc3Tv29evTceVKFPr6BF28yIWlSwkPCuKT7dsTXyPRoaEcmTCB23/9lebWpplpIwhC8XBnzx48xo4FoO1339FgzBgMzMx4dOYMez79lHsHDnBm3jxaz5+fq+No3rw5zZs3x9fXN9UaBRmdz4gqLIxdAweiDguj7ogRtJ4/HzN7e17dz5pZQAAAIABJREFUucPBkSMJOn+ePUOG8OnhwzlxOYIgFEI5Mc8KPH+eAyNGULZxY/rv3UtEUBBnFy7EY/x4Ptm2LUt1EwrD3FQQCqKCGWCIV7JGDfSNjFIv8linDq9LlcJ6zhxMFy5EffUqBnXqpN7R6dNw6VKK4IK+sTHWlSqlmVqlNDERBVzyiCYmBnh3Ryspub4+egYGxEVH58ewktE3Nsa2WjWMrKwo3aAB6vBwrqxZw+v79ynTqBGRwcHsHzaM0Pv3aTJ5Ml6//56ij8y0EQSh+Dg0ejQAZRo3ptk33yQed2zVigH79/NLgwZc++UXWs2dm+kshoLIa9MmYkJCqNyzJ91/+SXxuG3VqgzYv59VVarwwMODsMePsXRwyMeRCoKQXz50niXpdNzeuRPTUqXo5O6OWXxtlOjQUC7+8AOh9+9netc5KBxzU0EoiAp0gEHf0JCS1aun3aBGDaIsLDD+6isMjh6Fo0fTbvtecMHA3Byndu3QNzLK+YELWaYX/3vQqtXJjuvi4tCo1QXuTr9MLkffxAQgcScSfWNjnDp0oP2yZYTev59q8CAzbQShqNi3z48zZx7l9zAKBFV4BF50wOiZDfcm//dZdVNqTwwh1KkyjNuTjxIbG4ePzw3q1YvBzW06NtWqEeLrS+i9e9hWrZrh86jVahYuXMiqVavQaDQolUo6duzI0KFDsbCwyM1LTNcrX18AqscXUNZotHz22Uru3g2hZs1ahNoOISTEl3tf7qFktf+uM+iCnKd04M6eKOwD0vmML0bs7EyZOrUpenqido9QdGVnniWTy2n2zTfo4uISgwvAf4UY09mVLjWFbW4qCAVFgQ4wZIbJ+PG8tbEhzNMTJAlDS0sUSmWKduqGDXnj709sZKQILhRAZqVLozQx4bW/P5JOl5hVEh0aiiosDOtKlfJ5hMm9CQjg9s6dlHBxwdrZGQBDCwuaTJ4MQOj9+6k+LjNtBKGoGDPmEM+fR+X3MAqQJhACp1b8m+SYM+DMpU3JlwOePXuMatUqJhY6y0ylcrlczsKFC4F3RQx1Oh3//PMPX375JZcvX2b9+vWYxE/Y81rs27fv/hG/vMLPL5Bt2yIAA65fvwtYAE24dCwCjiX9+SjeHT+thtP/IrzTpk0FGjUqk9/DEIRck915lnmZ5H8X6shI/I8do4Szc5bnkoVtbirkouBgWLQItNq025iYvNukIJ8+ZwuSQh9gADAdMABN48Y8Pn8+7eikWg1qtQguFFAW5ctjV6sWASdO0Gj8eIzjK6A/PHkSJKlAFNF5cesW27p1QxsXR+i9e1hVrEh7d/fEsQqCkJyn5xCuXXuW38MoEKJDQjj+zTeYlS1Hm/n/7ZJ047ffCDx3jiq9elG5WzcAfH1v0KjRDFpWq8L6MWNQmptjmsltEM3MzBL/LZfLadGiBb179+a3337Dx8eHjz76KGcvLJMcWrbEZ9s2fLZto+bAgdSoUYEVK+ri4/OUWtWrcTL+S4Or2zwsyv+3ifSdPXu4d+gQNQZ9ilPbj/Nl7AVN2bLmIrggFEk5Pc/SabVcW7+e4OvX6bJ2bZaLyBaGuamQB4KDoXVruHs347ZXroCHR7EPMhSJAAOApaPj/7N333FV1X8cx1/3XrjIUkRBARUUN4qaIxVXmttc/SxXztwjy5EpqVlqpWaONCzTzFW59ypNzYm4tzjBBYLIvtx7+f2B9wYCl4ugDD/Px8PHI+8598v30vHccz/3fT5fLG1t//uWJB12xYtLcSEXUtvaUnvoUDb26cOOESOo2qMHIRcvcnTOHCp26oTLG2/k9BSxdnSkdNOm3Ni7lwKFCvGOnx+utWrl9LSEyLW8vYvh7V0sp6eRKzy5dYvQcadxdtTTt28N4+PNyndlaaOFKLacp1obV6r37YtSVYM7hw6xum1bEnU6ag0e/MLvW0qlEhcXF+Lj4wkJCcmul5NplTp3Zt+kSVzdsoU948bRePJkPvqoA2HXr7Opf39qcBqAUZPbp3je34HrsN16mlZ1+/Fmst+bECL/yc7rrES9ntNLl3J49mwa+foaC7iZkReuTcVLlry4ULMmmgEDiLiX+osTZXw8BX/7DcsDB4hv0ACL/ftR5eBtiTktX93AZ+vkROHSpU3+eRnFBZ1OR1xcHPpn94glp9Vq092WnT9fq9WmuU2v17/0n59dPFu04J3Fiwm/cYM/33uP4/PnU6NfP5pNm2ZWPPhlK+jmRt2PP6btokUoVCr2T5lC3LPl1oQQaYuLi0NnIlKo1WrRaDRpbjPnvPUi+xjO2abEx8enmrder8/2c2kpHx9azZlDolbLlgEDmG5nx9cODixt2JCI27cp27o1TSZPNmusR48esXTp0hTvB3q9nidPnmBlZUWRHExb2To703nlSpSWlhyeOZMZBQvybdGizC9XjjsHDlC4bFk+unkzSz8jPx1r5v48IfKT7LrOStTrObN8OfsmTaL+6NHUGjw43YbuGcnt16ZZERcXl+bnB8NnB1Pn0+S0Wi3xz/WpyIherzf5nPj4+HQ/27wyyYsLjRoRt3kz14oU4V65cqn+BFWpwtXPPiOueHGsTp9G06ABuoiInJ1/DspXBYacsmrVKipUqMDu3btTPB4XF8eAAQPw8PBgzZo1aT537969tGrVCjc3N0qVKkW/fv24mcmLrHnz5uHt7c2///6batvBgwepWbMme/bsydSYOUGhVFKhfXs+PHqUidHRfHznDk2/+irXreRRvFo16o8eze0DB/D38zM2HxJCpBQZGUnXrl1p3rw5Dx8+TLU9ICAAb29vJk+ejF6vR6fTsW3bNtq2bYurqyvFixenadOmrFu3LsWFxtWrVxkyZAhly5bF2dkZb29vpk2bRnh4uHGfR48eMXbsWDw9PXFycqJOnTqsWrUKnU7H6dOnqV69Or6+vml+iJs/fz4VKlTgr7/+AuD48eN07NgRV1dXXF1d6dy5M6dPn86239ObI0fSdfNm3OrWRafREB8RQZGKFWk2YwbdNm82u5FYfHw8e/bs4VGyJZgfPnzIzp07qVevHlWqVMm2Ob8Iz+bNGejvT7m2bVHb2hL7+DEFS5ak9vDhDAoISLXWfWZk9lgD846jiIgIZs+eTa1atShWrBju7u707t2bc+fOGffRaDQsW7aM2rVr4+TkhKenJ5999hnh4eGZPtZMHbdCvC6yep11duVK/powgTrDh1N31KgsrcCTV65NM+vq1avUrFmTiRMnpjo3rVq1Cnd3dwYNGpRh4eDu3bu0aNGCli1bpnjvyUhAQAA1atRg5syZqc5voaGhtGvXDl9fX/Nf0Iv4+mto2zb9P5Ur/1dcWL2awMOH0cbFYe/igkeTJpR+660Uf0p26kTcpk3Eu7piff48iWXKkNi6ddpjt2sHv/zycl9fDso3t0jkRtevX+fkyZOoVCq2b99Ox44dsUl2oXj06FFGjhxJrVq1WLFiBcHBwcycOZOxY8eyZMmSTHX8fvjwIV988QW//vorLmbeqyteXLVevbj5998cmzePUg0aUMrHB4CnwcFEPXhAxO3b6LVanty6xf1Tp3Dw8DCu4WzOPkLkB/b29rRu3Zrp06fj7+9P27ZtU2z/66+/iI2NpU2bNgAsXryYr776inLlyjFmzBisra3Zu3cv48aNo2jRojRu3JiAgAD69+9PTEwM7733Hp6enpw/f56ffvoJnU6Hr68vsbGxfPbZZxw/fhxfX188PT1ZtWoVvr6+ODk5Ub9+fapXr87+/fu5d+8eJUqUMM4pIiKCXbt2Ua5cOWrVqsWlS5cYMmQIbm5uLFu2DI1Gw6xZs/jkk09YvXo1xYplzy0gFd55xxjh1cbFYVGgQKbHKFCgAI8fP6Z169ZUf7Zs89mzZ6levTpTp05N0Z/heYcOHeLPP//kxo0bhIWFsXbtWoKCgqhWrRr9+vXj1KlTJreb2zyymLc33bduBZKar1mZmFNmZOZYUyqVZh1HT58+ZcSIEezdu5fmzZszYMAAwsPDWbdunfH/f9GiRVmzZg1TpkyhW7dutG3blpMnTzJv3jxUKhXjxo0z+1iLjo42edw2b948W35XQuQFL3qddW71anZ98gmutWpRoHBhTj5bFteiQAE8W7RI1QRSpBQTE8P27duxsLDg+PHjBAYGUrly5TT3jYuL49tvv+X8+fPp7mOKRqNh0aJFVK9ePWfObwsWQHCw6X2eKy4UcnfH3ccn/USMmxsJBw8S36gRVsHBplc4jIqCfv1efP65mBQYXqJ9+/ahUCj44IMP2LZtG9evX8fb2xtIigZt3LgRZ2dnvv32W4oXLw5AWFgYP/zwA4GBgbyRiXu7rKysuHDhArNnz2batGlY5fHYVm6ntrOj8eTJ/NmlC/smTaLLH39gXbgwR777jqPffw/PqsE7hg9HaWlJh6VL8e7Rg0S9PsN9hMhPGjduzMKFC9m9ezetWrVC9eybpPDwcPbt24eXlxfe3t6cPn2a+fPn4+Pjw48//ojjs2ZcAwYMIDAwkNKlSxMREcGMGTNISEhg+fLlKRoWjho1Cnt7e5RKJZcuXeLIkSOMGzeOPn36AFCyZElOnDiBv78/zZs3p02bNnz++ecEBASk+NB34cIFLl++zMCBA3F0dGT58uXodDq++eYbKj1bJjIuLo7PP/+ca9euZVuBIbkXKS4AODk5sWvXLiIiIggJCUGlUuHq6mrW+0GDBg1o0KDBC29/EdlVXDAw91gz9zhasWIFf//9N+PHj2f48OHG8QYPHkx4eDhFixYlIiKCdevW0ahRIz7//HNsbGyoW7cu58+fx9/fH51OZ/ax5u/vn+FxK8Tr4kWus8o0a8aR2bOJDQ0lcOdOApN9uFOoVLTz8+ON/v1z6iXlCZcvX+bMmTP07t2bLVu28M8//6RbPFi9ejWHDh3i3Xff5Yo5DRCfo1Kp0Gg0fPnll5QvXx53d/esTj9z/P0hMJCQS5eIS+d2hnhPT6L37YPExIyLC89YlilDwtGj3F65Ek10NCoLC+OSq0YKBfFlypC4axeOnp4UyWcrkkiB4SV58uQJu3bt4o033qBr165s376dvXv3GgsMSqWSkSNHMnToUGNxAUD9bInNxEyu1evq6krr1q357bffeOONN+jevXv2vZjXnJW9Pb3//jvV48WqVmX45ZRLy7WcPZuWs2enO5ZCqcxwHyHykzJlylCvXj2OHDlCUFCQ8QLiwoULXLlyhY8//hh7e3u2b99OdHQ0Q4cONRYXACwsLKhQoQKQdKuCv78/vXr1onbt2il+TvILE29vb3bt2pXiw39CQgJ6vd6YDGvYsKHxA3mbNm2wsLBAr9fz999/Y2lpafww17dvX95///0UyTCNRoNaraZgwYLZ/NvKHoUKFcpUAi6/MOdYK1SoEIcOHcrwOAoLC2Pz5s1UqFCB7t27G4sLAA4ODjg8i0fb29vj5+eHtbW1MaGo0+lISEjAzs4OtVpt9rFmznErRH6UnddZA/39s31+rwu9Xs+ePXtQq9V069aNO3fusGPHDrp3757qHHTixAkWLFjA4MGD0Wq1L1RgsLCwYODAgfz+++988803zJo1K0XS+6UrXpxEZ2ce3b+PNr3C/rPFA8wtLhhYliiB68iRBO7ZQ8zTp+mPHRWFpY2NFBiEec6ePcvVq1fp2bMnlSpVMvZB6Nu3L4WfxeBdXV1TPCcyMpJ9+/bh6elJmTJlMvXzFAoFPXr04N69e3z77bdUrVqVqlWrZtvrEUKIF6FWq2nTpg07d+7k+PHjuLu7o9fr2bt3LzY2Nrz11lskJCRw4cIFXFxc8PT0THesq1evkpCQQK1atVCaeJNXq9WULJm01GFQUBDHjh1jxYoVuLq60q5dOwBKlSqFj48P//77L3fv3qV06dI8fvyYffv28cYbbxiLGoYP63q9nvPnz/Pvv/+yZMkSOnbsaNxH5A7mHGtg3nH08OFDgoKCePvtt1MUvJ6nVCqNXxJERUXh7+/P9u3bOX36NNOnT8fW1tbsY82c41YIIV6WsLAw9u7dS+3atalQoQKtWrXiyy+/5Pz58/g8u0UFknrFTJ06lTp16tCzZ09+/fXXF/p5iYmJVK5cmdGjRzNlyhRq1KjBgAEDsuvlmEWhVFLhnXfQxsaa3M+qYMFMNwq1tLamXKtWJMTEmB47HxaQpcnjS6DX69mxYweFChWibt26WFlZ0bJlS65fv55uYzCdTseyZcs4c+YMw4YNMxYhMsPGxoaJEydia2vL1KlTeSIrHAghcoE6derg7u7Orl270Gg0hIaGsn//fmrXrk3ZsmXRaDTExMRga2tLARO3B0RGRmJhYWGyl8DzNm3axMCBAzl16hTNmjWjaNGiQFI0s02bNoSHh3P06FEAzpw5w61bt2jTpk2qb1FiY2OZMmUKEyZMQK1W07hxY7kVLRfK6FgD846jmJgYtFotjo6OKBQKs3729evXGTRoEEuXLqV69ep4eXkBmT/WIP3jVgghXpaAgABu3rxJixYtUKvV1K9fH3t7e3bu3GlsBKnRaPj++++JjIxk/PjxZvffSY9CoaBr1660b9+euXPncvz48ex4Kebp3BlKl8bCy4sCtWql/Wf5cgo4OGR+FZIxY6BsWVSVK6c9bu3aFPjuu6SxzXyPyUukwPASBAcH888//1CpUiXi4+O5du0abm5u2NjYsH379jSXPlu5ciULFixg9OjRtG7d+oV/dpkyZZgwYQKnTp1i0aJFssyVECLHOTs707RpU/z9/bl16xYBAQEEBQXRpk0brKysUKvV2NraEhcXR0JCQrrjFCxYEL1eT3R0tNk/e9iwYVy7do3x48ezcOFCFi9ebNxWs2ZNSpcuza5du4iJiWHPnj04Ojqm+KbGwNbWlj///JPjx49TvXp1Ro4cyYkTJzL3ixAvXUbHGph3HNna2mJpacnT9KKtaahevTpnzpxh7dq1BAYG8vHHHxPx7L7ezBxrYPq4FUKI7KbT6di+fTv29vYUL16ca9euodFoqFChAvv37zeuzrNp0yY2b97Mxx9/jIODAxEREcTHxxvPqZldrhKSGhSPHTsWZ2dnpk6dSmhoaHa/vNQOHoTNm+HWLQgMTP/PRx/BvHmZG3vkSJg92/S416/Dc7f/5Cdyi0Q2MBQMLC0tgaTVIW7cuMGlS5fYsmVLin0PHDhAcHAwpUqVApKKC2vWrGH69OkMHz6cfv36mYz+mqNVq1b069ePJUuWoNFoMt3PQWQ/vVaL0kL+uYnXk1KppEWLFsaGUOfPn6dYsWLUrVsXSDp3Vq5cmWPHjnHr1q1Ut48ZlC1bFpVKxblz52jdurXJc2VcXJwxDeHo6MgHH3zA7t27OXLkCKNGjTI+/vbbb7N69WpOnDjBv//+S4MGDYwxdUha31uv16NWq1GpVJQrV47Bgwezb98+Tp8+neoefpGzMjrWwLzjyNnZGTc3Ny5dukRERITJVGF8fDyWlpYolUoKFChA48aN6datGwsWLCAoKIhChQqZdayBecetECI1uc7KHMMXkIbPLnfu3OHQoUPcunWLd56taGRgbW3N0aNHad++Pfv27SM4ONjYiDa5mjVrMmHCBMaMGZPp+ZQsWZLJkyczaNAgFixYkGJp6mx38CD873+wbRvUrMn1PXvQREenShLYBwTg9uOPKD76iKiHD7GbNi3jsUeOhPnzwd6exDVrCNLpiEpr+U6FAp29Pfz5J0XLl6d4tWrZ9OJyB0kwZJFeryc4OBgbGxucnZ2Ji4tj27ZteHp6Gi+WDX8WL17Mw4cPOXz4sPH5f/zxB1OnTmXAgAEMGTIkRSOpF6VSqRgyZAg1atRg8eLFxGRw74/IvKgHDzj+ww9m7/+3ry9h16+/xBkJkbtVqVKFSpUq8fvvv3PgwAEaN25sLCQolUqaN2+OhYUFv/32W6pz1u3bt4mLi6Nq1ap4e3uzfv16rj/37ykkJISQkBAAli5dSt26dTl79qxxe0xMDBEREdjZ2RkfM/zchIQEfvrpJ0JCQmjTpo3xPBwTE0OfPn3o06cPkZGRxueFhYWRkJCQqVs1xKtj6lgDzDqOHBwcaNmyJRcvXmTHjh0p9omLi+PWrVsAXLx4kXr16uHn52fcrtfrefToEVZWVsbbHzI61sD841aI18Ghb75BY2ZaLfLePXZ+/PFLnlH+EhoaSmxsLG5ubiiVSg4dOkRoaChLlixJ8dnl6NGjlCpVih07dhhXVDp58iTHjx83/hkzZgxVqlRhz549DB48+IXn1LBhQwYPHszGjRu5evVqNr7aZAzFhdWr0TZpwq1Ll4hJTCShQAE0VlYp/jyuV4/bQ4eSqFRiN306URMnmh47eXFhxw5u29oSFhGRalyNlRUatRpdfHzSHxPJzbxKSn0vKD4+nrNnzxIcHMy6deuoVq0aHh4eXLt2jRMnTtC+fXvKli2b4psRw7cV27dvp2PHjmzdupWJEydSo0YNHBwcjE1SChQowFtvvZXut3jmKFy4MJMmTeKDDz7g8ePHWX69IqWtgwdz+8ABqn3wAVYZdJKPfvSIY/PnE3n/Pp1esBGOEHmdvb09rVu3xtfXFxsbm1TfHNeqVYuBAwcyZ84coqOj6dGjB7a2tuzevZvff/+dr776ii5duvDpp58yYMAA+vbty5AhQyhXrhwXL15k4cKF1KlThzlz5tCgQQMWLlzIqFGjjMsOLl++nJs3b/LJJ5+kmFfFihWpVq0aO3fu5I033qBmzZrGbTY2NrRt25bx48czfvx4unbtyv3795k7dy4lSpRIN94uclZGx5qDg4NZx1GvXr04evQoEydO5ObNmzRp0oQnT56wYsUKbt26xapVqyhTpgxvvvkmc+bMQavVUrNmTQ4ePMjy5cvp0qULbm5uxp9r6lgDMnXcCpGf3T1yhL8mTACgwaefZrj/wRkzOOnnR/3Ro3Hw8HjJs8vbLl++TEhICH5+ftjY2FCvXj2io6PZvn077u7u1K9fP8WKEXZ2djRs2JBdu3YRGBhIpUqVUhXXCxcujKWlJSVLlsxSMVSpVNK/f39OnTqVKgGeLZIVFyLKliVo61YKe3jg9d576Sciu3cnumJFbEeOxG76dBKnT0fxLPWRgqFIYCguaLVE3L2LhbU1ns2amfyskOn+DnmAFBhe0P379xk+fDh37tzBx8eHKVOmYG9vz/79+0lISKBt27apDtZixYrx9ttvs3btWo4ePcqCBQsICwvjr7/+4q+//jLup1Qq+f777/nggw+yNMeqVavy2Wef8cUXX2RpHJHS2ZUrubJpEwBH586l8eefm9z/0DffoI2J4ezy5TT+/HMc89lSNEKYq3Hjxri4uFCyZEnjkr0GKpWKjz76CHd3d3766Sf69++PTqejYsWKTJ48mQ4dOgBQv3591qxZw3fffceUKVOIiIjAxcWFTp06MWzYMNRqNeXKlWPhwoV88803jBgxAgAvLy/mzZuXqseNra0tbdq0Yd++fTRv3jzVigFdunQhISEBPz8/1q1bR+HChWnQoAFjx45NFW/PCl1CAjf27OH6zp0olEocPDzw7tkTmxdo7hcfH8/69evZvn074eHhODo60qJFC7p3727ythK9Xs/+/fs5cOAAY8aMMV4oxsXFsXr1ag4cOMDDhw9Rq9VUrlyZnj17prs+uim3Dx7k+s6dxIWHU6hUKSq9+y5FypXL9DimmDrWwLzjyMnJCT8/PxYtWsT69euZO3cutra2+Pj4sGDBAkqXLg3A1KlTKViwIAsXLuTJkyeULFmSQYMGMXToUOPS05DxsZaZ41aI/EobF8fvnTuDXs9f48dTZ/hw1CYaCUbeu8eJBQsA2P/FF3RcuvRVTTXP0Wq1zJs3j7Vr1+Lh4cHUqVPx9vbm9OnTnDlzhp49e+Ls7JziOSqVinbt2rFx40Zjf7mXyd7eHl9fX27cuJG9Az8rLuh+/ZUgS0tiT5/Go1EjbJ2cMnyq3bBhRCsUFPjkExR6PSiV8HxjRpUKbG3Rr1/PHa2Wp4biQvPmFMilS1q/TIpEuUFfCLNFPXjAD15exIWFAVCgcGFG3bqVbmUy+tEjvi9dGu2zyLd3r175KsVQvvx8rl0L48GD0RQrlrUI7+zZhxkzZg9ffNGESZMaZ2msqCgN9vYzcHW1Izh4dJbGAujRYx2rVp1ny5ZutGtXPktjHThwm8aNl9GuXTm2bOme5bmJvOHJrVvMLV0aZ29vhpw5k2JbxJ07rGzblpDz51M8rra3p/3PP+P13ntm/5zw8HCGDBlCVFQUs2bNwsXFhXXr1rFv3z6WLFmS4gNvcnfv3uWLL75g5cqV1KpVi02bNhk/AIeEhNC3b1+6detGu3btjCtqbNu2jRUrVtC4sXn/XuMjI9nUrx+X1q5N8bhCpaLB+PE0/eqrVM/529eXg9Om0WrePN589qFb5E41a/oREPCA69dH4OmZ/tKe5li8+CSDBm1lzJh6zJzZIstzUyi+wN5ezdOnn2V5rMGDt+Lnd5JVqzrTrVvuWg68Tp2fOHHiHpcvD6NChby58sjuMWM4Mnu28e/Nvv7aZIph+4gRxgKD0tKSEVevSopBpPSsuBD1/ffcVqsp7OFB8erVUWbytvQnt29z+9AhMOOj8+tcXABJMORaer2e2bNnm1yuxc3NDV9fX1m+6hXaOngwcWFhVO3Rg4SYGC5v2GAyxfDvt9+ijYmhXNu23Nq/n3MrV0qKQQhhFBcRwffu7gA4VanCGx9+iJW9PTf++ovzq1ax/oMPsHFyovRbb5k13pIlSwgICGD9+vVUrFgRgA4dOlC4cOF0e/zcv3+fpUuX0qZNG+7evZuqB4aFhQV169aldevWFCpUiEKFCjFy5Ei2b9/OsmXLaNCggVn9g37v3Jmbe/di4+xMnWHDcPDw4P6pU/gvWsTBadOwd3Wl9tChZr1OIUT+c/fIEY7MmYOqQAHa//zlb1syAAAgAElEQVQzG3r25PCsWemmGCLv3SPgp59QWlpSvl07Lm/YwIFp02j/0085MHsBSe8nplaCUCgUvPXWWwwaNCjLTe3NcvAgie++y6MJEwi3tcWjXj2zUgtpcXj2Xh3s729yP5WlJR5Nmry2xQWQAkOuVrVqVZPryxYuXNjkmvEiexlujbAtXpzW8+YRcfculzdu5OicOdT96KNUKYboR484sWgRCgsLWs2dy0k/Pw7PnMk/X36Zr1IMQogXt7RRI+N/DzxxAotn5/Qa/frh7OXF3xMn8vfEifRP1hw4PSEhIaxdu5bq1atTvvx/SZsiRYrQqVOndJ/n4uLCpEmTiI+PZ9myZakKDIULF8bX1zfFYzY2NlhbW/P48WO0Wm2GBYar27Zxc+9eCpYqxYdHj2Lv4gJAtV69KNe6NStatWLX6NFU79MHy2eNEYUQrw9tXByb+vYFvZ6mX32Fd48enF+9mmvbtnF8wYI0UwwHZ8xAFx/PGwMH0mTKFK7t2MGZX3+l0cSJkmLIIYa+DlFRUWluVygUVKpU6ZUVF/SdOnFn+HDUDRtS/gVSC89zcHc3FhpE+qTA8IJ0Oj3XroW91CUg3d1r4u5e0+Q+d+/GArEvbQ6vk6dPwyhYUJ/mttiQEHYPHw7AO35+WDs6Yu3oSMWOHdNNMRjSC9X69MHR05P6Y8dyYuFCkymGW9euEZvG0jxPn6ooWDD9ZdJyyrVrYTk9BZGLxcVpuXkzPKenkSs8DX5CCEXRxdlz6VKI8fHgp1Y8oSit583n2s1IIJLIyHCcnCzxGTeOI3PmEHTkCE+DgihYooTJn3H79m3u3LlDy5YtsXjJy7U9ffqU6OhoPDw8jMucmXLzWZ+hep98Yiwu3L79kAsXbuPuXg2ruu8QdOQwe5fvwKPxf0WX26EQQlFuPtBRMNnv7XVWqFABXF1lBRORvkuXQtHrc9cd0BpNAjrdY6yt0z43nZk5k8dXrlCifn3qPVsRosmUKVzbti3NFEPy9EKjiROxd3Gh1qBBHJs7N90UQ2xMDIHXrqF67lax6GgtBQo4o1Llv2Z7OaF27Yx7xlx6yedzx0v+FO3fneDRo3EaNOiFUwvixUiB4QW9W3c2m/xl+cf8JRFYCaReTrI54AOU69yZCu3bGx9vPHlymimG5OmFRs+++bN1cqL20KHpphh++fBDbi9ZwgogZWub+kDW70EV4lWrWdOPixfTjkm+nobDVfiy8sJkj7UF4IeRV4AryR5fw4YNMyhcujSxoaEkmLHccEhICDExMfj7+9O/f38iIiK4f/8+1tbWTJw4kWbNmmXbKzHcvvfuu++a9U3U06AgAOO3ijdv3qdMmQWA4UL/DeANfhhyHkjei8ISGM4P0yNgevLf2+vLykrFqVODqFRJLphF2jp1+j2np5COW8CyVI9aA2NJ6sfScelSY1d911q1KNe2bZophuTphUKlSgHg8+mn+Pv5pZliiAkNZaqrK/cTElie4qdbAqMBSQTnJ46KWE5+N41SIwZlObUgMk8KDC9A9/vvNL+whXuVOqJ8je+vyU/i4uK5e/cqJUuWpECBIqm2q5884alGQ+v581M8XrxatTRTDM+nFwzSSzGEXLpE8G+/oQBKV62KU7KI8NOnBXn0KIbSpcuYdZ9zTlCrc+e8RM56550K2Ntb5fQ0cgVtfDwPTp/G0tqGYt7/NYYLuXiR+MhIipSvgHVhB+LjNdy5c40KFcpTtnRprgQGAkkNZTP8GVotiYmJ+Pj48Omnn6JSqYiJiWHw4MEMGTKETZs2ZUsH8Dt37vDLL78wePBgGjRoYNZzHJ+tEnH/5EkqduhA4cL2eHjEERoai5ubK1FXkoorRStWpECyJdIi7t4l8t49HNzdsStePMtzzw9KlCiY5aa6In+qWtUZpVKR8Y45IDg4GKUyFheXN1NtU+r13L9zh8b9+lGkfMpGymmlGJ5PLxiYSjFsHz4c64QErIoU4c1kCVK9XsHt22EUKlQWR8fclxQVmZeo11PJ1YJSI/vm2n8P+Z0UGDJr/XoYOpT//TSPYT165PRsRC7wfIpBGxeXKr1gkFaKQa/TsbFPH/QaDQ3Gj2fKjBk59EqEyF5ff/12Tk8h10haRWI4zuW8GXJ0rvFxfz8/tg0ejCPl6b/1X+OylIl6PVuHDCEuLIzSzZqZFe+0tbVFpVJhaWlpLEba2NjQqlUr1q9fz4kTJ7JcYHj06BFjx47l7bffZuzYsWYXPSu88w6Hpk/nyJw5VO7ShWJVq3LzZlKn+ICff2bLgJ8BmBAQg6W1tfF5SatI/Eyr0fN4c8SHWZq7EPndkiUdcnoK2S6tFENa6QWDtFIMF9et48Lvv2NdtChzLlzA9rmlGIUQ2UtuNsqM9evRDx7MbV9fnN5/P6dnI3IJQ4ohLjyco3PnGtML3j17pkgvGNQfOxZLW1vOrVxJ2PXrHJ41i3vHj1O0cmWaTJny6l+AECLHVO/Th1KNGhF29So/eHmxffhw9owbxyJvbwIWL0ZdsCAtZs0yaywXFxfs7e25d+8eev1//WTs7OxQKpVERERkaa53795lxIgR+Pj4MGnSJKyszE+nlKhblzojR5IQFcXPb77Jhl69+GviRH5t2pQtAwYA0HT69BTFBSGEAIzXRodnzeLx1atpphcMDCkGfUICB6ZNIyY0lG3PVqdps2CBFBeEeAUkwWCu9etJHDqUG59+SvHu3VG+5AZaIm8xpBj2T5oEkGZ6wSB5imFtt248Oncu6b7DZcuwyMQFuxAi77OwsqLbpk2s/+ADrm3dyokffjBucyhThvfXr6d4tWpmjVWyZEkqV67MhQsXiImJwc4uKUYfHR2NQqHAOQsX1pcuXWLChAn07NmTTp06vVAH8BazZqFQKjm+YAFnf/vN+LiVgwMdly6lYseOLzw/IUT+lTzFsKBCBYA00wsGyVMMj86dI+bRIyq9+y5V5MtBIV6J/PEpOSAArl0zvY+PD2TQgTtd69fDsGE8+PprrL28sCtW7MXGEflW8l4MQLrpBYP6Y8dybN487j9bS9dn/Hjcatd+JXMVQuQuBRwc6L5lCw/PniX4+HE00dG41KhBqYYNUSjMv3/Uzs6OAQMG8Mknn3DgwAHatGmDRqPhn3/+wcPDg7p1677Q/C5evEivXr2oXr069+7d44fkRRAHBzp27Ii9fcarGqgsLWk1Zw51R40yrozh5OWFe6NGaa5xL4QQBoZeDAZppRcMkvdiCD52DOuiRWm7UJrECvGq5P0Cw86d0LEjxMeb3q90adi3DzK7dumz4kLkr7/yJCaGCjVqvPhcRb7WePJkY4EhvfSCgSHFcHTOHGycneXWCCEExby9KebtnaUxOnToQHh4OJMmTWLlypWEh4cTERHB/PnzcU/n/e/evXssXryYwMBAAgICiI+PZ+jQoZQpU4Z+/foRGBjIlStXOHnyZKrnlitXjoYNG5pVYDCQdcSFEJnlWqsWbnXrEnz0KFW6dUs3vWDg8+mnHJub1O9Gbo0Q4tXK2wWG5MWFZs3QFC+OPiEh1W4WJ09iERiIrkEDdLt3oza3ydWz4oJ282bu3LmDe4MGcmuESFfxatWo2KkTVoUKmUwvGDT47DNO/fIL3bdulVsjhBDZQqVS0b9/f3r37s29e/dQq9U4OzubvKXB1dWVKSaKnGXLliUyMvIlzFYIIczXZv58lvj48PbXX2e4r72LC29+9BFPg4Lk1gghXrG8+2k5eXHhiy8I69GDu0eOpLmromVLPL7/noLnzqFr0gTNvn2oK1c2Pf6z4gI7d3IvKgqHUqXk1giRoSZTpmBpZtTX1smJvgcOZPkbSyGEeJ6FhQWlMviGTwgh8hLXWrX43+rVGaYXDBqMH4/iBfrFCCGyJncWGMLCYOVKiItLe/uDB/DDD2kWFxw8PLC0sUn1lCg/P1TDhmF76hQJDRqgHTYMi4IF0x7/9m1YuxZ27SKiSBGib96kQrt22fXqRD6W2WKBFBeEeL08OnuWf2fOzOlp5BmHzVxBQwjxeqjUubPZ+9oVL/4SZyKESE/uLDDMmwdffJHxfs8VF0rWq2cymq4/eJCYJk2w8feHr74yPfYvv6CtWJGgrVvl1gghhBBZYlGggPG/944bl4MzEUIIIYR4eXLnp+aPPgJra7QxMcSGhUFiYqpddC4uRDRpwhMziwsASltbCuzfz+NPPkETFobSwgJrR8dUXbp1RYsSW6UKkX//TSG5NUI8J1Gvl8idECJT7IoXp86IEcQ9eUKRZ8usCfOVrFcvp6cghHhF5DpLiLwtdxYYCheGTz/lob8/oZcvp7/fzZuAecUFA6WtLYUXLuTW/v1E3r+f/o5XrgDI0oECAE1UFIdnzSLg55+JfvQIp8qV8fn0U7zeew+lSpXT0xNC5AGt583L6SkIIUSuJNdZQuQfubPA8EyxqlWxKlgwzQSDgZW9PfaurpkaV6lS4dGkCeGBgSSaGNvS1habIkUyNbbIf/RaLf9MncrpX3+l3scf41KzJhf++IMdI0agtLDAq0uXnJ6iEEIIIUSeJNdZQuQvubPAcP06fP89FnFxFE1vH3d38PWF525vyFBYGHz+Ocr4eNItHRQtClOmQLJ7ZsXr69H585xfs4ZagwfjM24cCqWSEnXr8jQoCP9Fi/Bs3pwCDg45PU0hhBBCiDxHrrOEyF9yZ4Hhjz+SVonIyK1b8PPP5hcZwsLg7bfh1KmM923XDho0MG9cka8FnziBTqPBs3lz4z2BVvb2eLZoweGZMwm7fh3XWrVyeJZCiLxAr9OhT0hApVanusdYr9Wi12rT3CaEEPmVXGcJkb/kzgLD2LFQuTLx4eE8DQpKdRuDKiwMhyVLUP3yCzGPH2O9fn3GF2PJiwtVqqAdNYrwe/fSvEVCV6QI8Xo9lidO4FKjhqwg8RpL1OsJDwxEbWeX6lacQqVKodNoeBocLG98QgiznF62jN2jR9N5xQrKJ1v+WBsXx4bevbmyeTPtfvyR6r175+AshRDi1ZDrLCHyn9z5ydnSEjp2JOz0aR5ZWqbeXqYMj4sWpczXX2OzaRNRHTpgu2lT+kWG5MWFmjXRbNzI9RMnSLCySn8Od+4AUKR8eQoUKpQNL0rkVQkxMSgtLVE812TI4tnxo42Ly4lpCSHykcdXrxJ87BhKlYormzbh1aULljY2OT0tIYR46eQ6S4j8JXcWGJ4p7u1tconIqKpVsevRA7utW0lwd8eiYsVUS04CEBAAjx+nLC5ER2Pr7Iyzl1e6hQlLGxspLggsbWzQJySQqNOleFwbHw+kXN9eCCFeRODu3SiUSmr078/ljRsJvXIFlxo1cnpaQgjx0sl1lhD5S64uMCiUSuxdXNLfoUMHYrduhXbtsAwKgqCg9Pd9rrhg7+qKR+PGsvSNMEmhVFLY0xNNVBSR9+5RuEwZ47aIO3dQqdUULFEiB2eYfzx5EgFAWFh4to0ZExObLeOEhIQCoNFosjyWYYzQ0MdZHkvkD7Hh4VzduhXX2rWp1qsXVzZv5vrOnVJgEHlKePiTbBvr6dNIAB4/Dsu2MTWahGwZJzQ06f0gNla+Vc8Ocp0lRP6TqwsM5rBu0oTYo0e5vXkzuoQELKys0qx0xpcsSeyBAyTq9VJcEJniVqcOKrWawD17KFm/PgqlkriICAJ37aJoxYo4enrm9BTzhQcPzgHw8OF5oGOWxtLr44FwYmOzp8Dw6NF5wIGQkKtAlSyN9fTpbUBLaOil7JiayAcenDpF6OXL1OjfH+cqVXCrU4dr27dTa9AgrB0dc3p6QpglIuI6UJjo6FAga8dt0jkXHjw4n/WJARCCVqvLeDczJL1X2fLw4SWgdraM+bqT6ywh8pc8X2AAsK5SBRdXV27s3Utset8wPvugIcUFkVnOXl5U7d4d/0WLUFla4lKzJhfXruXeyZO0+/FHWTopm1SsqAJmUKnShCyPpVQqgAU4OrpmuK85KlcO48yZn3BzW5vlsYoWVQPfUKFCy6xPTOR5iXo9VzZvpoCDA6V8fLCwsqJ8u3bsHjOGeydP4tm8eU5PUQizuLsHEBZ2HlvbQVkeq2xZNTADL68RWZ8YAD9ibV0QWJTlkapUiebff3/Aw2Np1qclALnOEiK/yRcFBgAbR0cqtm+PNoMIs9rWVooLIlOUFhY08vVFbWdHwJIlRE+fjlPlyrT94QcqdeqU09PLZ+KzcSwdCkX2fGOV1NolO+eWYPbquiJ/exoUxI2//sK5ShW08fGEXrlCwRIlUNvacmXTJko3bSrvWSJPSDqnZf02sv9k9/uBNhvHy865CbnOEiJ/yTcFBkhqAiONYMTLoLazo5GvL418fXN6Kq+9fZMn8+D0abr8/nuW/70HHTvGnrFjaTJlCqWbNs3SWNq4OLYOHoza3p428+dnaSyAc6tW4e/nR6dff8XBwyPL44ncIVGnA4UC5bMVku4cOkTY9euEnD/PpXXrUux78++/eXr3rvz/F/lGdEgIm/v3x71RI+qPGZPl8Q59/TW3Dxygyx9/oLazy9JYD8+eZcdHH1F/9OgUS8i+CF1CAtuHDydRp6P9zz9naazXhVxnCZF/5KsCgxAif9v1ySccnTMHq0KFSExMzNJYQceOsaJlS+IjInhy+3aWxtLGxbGmY0cCd+3C7c03szQWwNkVK9jQuzckJhL3JPsap4mclajXE3H3LpY2NtgVK4Y2Lo7LGzdSpFw5uvzxB3bFixv3vbZ9O9uHD+f2wYNSYBD5QnRICL++9RYhFy5gXaRIlsfbN3kyB6ZOxcLaGr02a+mEh2fP8mvTpsQ+fkylzp2zNJYuIYG177/P5Q0bcPLyytJYQgiRF0mBQQiRJxiKC5Z2dnTftg1La+sXHit5caHW0KHU6Nv3hcdKXlxwKF2aLn/88cJjQcriQjs/P4pXr56l8UTO08bH8+DUKSLu3uX8mjW4vPEGhT09Cb1yhbtHjlD53XcpUr58iiWTPZo0oVCpUlzZtAmvLl0knSfytOTFhRL16tF63rwsjZe8uNDtWQ+TjKRXlE5eXKjWpw91hg174XklLy7Yu7nRdePGFx5LCCHyKmXGuwghxMtnuPjT6/WptiUvLvTcuZNSPj5mjamNS72M2PPFhbY//JDxOPFp32/7fHGhz/79FCpVyqy5JaSxwsXzxYWaAwaYNZbI3SKDg9nUrx8be/fGsWxZmn/zDVb29tzYswd9QgIVO3ZMUVwAsCtenLKtWxN84gShly/n0MyFMF9CTEyajz9fXOi5axdW9vZmjZlWMuH54kKZt99+4bGeLy50WLIk1b/F5+nS6fX1fHGhz/79OJYta9bchBAiP1EkZjVnLIQQmXDrn39Y1bYtCdHRmXpeWsUFTXQ0K9u04c6BA5meR1rFBX8/P7YNGQKZPC2mVVx4cvs2y5o0IeLWrcxNTKGQ4oIQItfaNXo0R7/7LtPPS6u4EHz8OL+1aEF8RESmxkqruJC84JtZaRUXzq5cyYZevSCNorcpUlwQQrzu5BYJIcQrk7y4oLCwwNLGJmlDYiLxkZEkkHRSKmBvT/JlFiytrXlv3TqTxQV1wYLGbTqNhri4OBSAtY0NCouUp7pqvXqlasSYvLhgaWf334WmXk9sVBQ6wEqlwtLWNsXzCrq50XPnTpPFheRzS4iJIV6rRQVY29lBsgtahUJB85kzpbgghMiVkhcXkp/XEnU6YqOj0QPWajWq527pKV69Ot23bk2/uKBQoE62LT4ykoTExDTfD1RqNf9bvdpkcSH53PQaDbHP0mzW1tbGBqsGlf/3P9r/9FO6xQULGxuUhveQxERiIyPRAWqlMlVjSVsnJ3ru3CnFBSHEa00KDEKIVyJ5caH+2LE0//Zb47aLa9fyZ5cuqJ/9vfX8+VTv3TvdsZIXF4pUqEDvffuwd3EBkm5nmFumNLp79wEoVr06/f/91+TcjMUFhYJOv/2Gd48exm1/TZjAoRkzUAGJeh39Dh6kmLd3umMlLy54tmxJ140bjffPhwUGsqBiBePrrNa7N20WLDA5NyGEyA0MxQVLOzt67thBqQYNjNvWdOrElWf9BlQFrBh18ybWjo7pjpW8uFBr6FDaLFiA4lkR4frOnaxs3dp4nmw2Y4bJvgjP36rWe98+HNzdgaTbIhZUrIA28AYARcqXZ9CpU8aflRZjccFwq9rAgcZtB6dP5++JE1EB6PX03LmTkvXqmfq1CSHEa0d6MAghXjpTxYXExET+mToVgKo9GgFw4Ksv0et0aY5lqrgAcHLxYqLu3adkg0oUcnci6PBhAnfvTnduKYoLy5enKC7EPH7M8QXzQamgSreGkAj7v/gi3bFMFReSXtdXJGp1VO5SH6XagoCff+JpcHAGvz0hhMhZpooLD06f5sqmjRRwtKNsm5ponkZyxMQtFKaKC/DfObZqz8YAHPp6htl9cJIXFwDO/PYb4YE3cKnpSdFKJXh45gyXN2xId24pigs//piiuBAfGcmR72anmNv+KVPSHUsIIV5XUmAQQrxUOo2GNR07pllcALi0bh2Pzp3DyasknZaPwqWmJ+HXAzm7YkWa4/3t65tucUEbH8+hr2cA0GxaTxpO+B+QflEg5NKldIsLAEdmz0YTGUWVrg1pu2gwVg62XN6wnodnz6Y53oZevdItLoQFBnJ2xW9Y2FjRZsFAavRthi5ew6EZMzL4DQohRM65vHFjusUFeHZ+TYR6H7enxaw+oFRwbP48YsPCUo2VqNezukOHdIsL13fuJPjoURxKO9Nx6UjcG3sRGRRMwM8/pzm3g9Onp1tc0Gu1HJz2FQBvTe1Go8/fA+CfqVPTXFEi4s6ddIsLAMfnzyf2cRjl29fmncVDsS1WiBu7d3P3yBHzfpFCCPGakAKDEOKlUqhUVH73XZpOm5aquJA8vdDo8/dQKJU0nvw+kH6KoWS9elTu0iVVcQH+Sy94vFUF90ZeVO/bzGSKwdbZmQodOvDuqlWpigvJ0wuNJ71PgUK21B31jskUQ9mWLak5aFCq4kLS60lKL9Qe0gpbZwcaTvifpBiEELlekQoVKNe2bVKT3eeKC8nTC2+ObIdTpZJ4veeTfopBoaBS5840+vzzVMUF+O/c2nBiF5QWKppM6Qqkn2JwrV2bip07pyouwH/pBdc65SjXphZV3m9gMsVQwMGBSp070+GXX1IVF5KnF5pM6YaltRU+4zonzVlSDEIIkYKsIiGEyDGG3gtOXiUZcnauscnW4lqjuX8ykA7LlpnsxZCcofdC1L379PlnGu6NvAA4uXgXWwctokT9+hn2YkjO0HuhSvdGvLvyEwDiIqL53mMg8RHRDD59xmQvhuQMvRdUagtG3fTD1jlpzfatgxdx0m8XtYcNk14MQog8x9B74a0vu9PINykhEHLpLgurjERtZ8eom7dM9mJIztB7waG0MyOuLkJpoQJgWZOJ3P7nAq0XLDDZiyE5Q++F8MAbdN/mS7k2tQA4t/oA67t/R7Fq1TLsxZCcofdC+fa16bZpIgAJsfHMLT2Q6IcR9Dt8WHoxCCHEM5JgEELkiLTSCwYZpRjS8nx6wSCjFENank8vGJiTYkjL8+kFA0kxCCHyqufTCwYZphjS8Xx6wSCjFENank8vGGSUYkjL8+kFA0kxCCFE2qTAIITIEcl7L3h18UmxrcI7dTLsxZBc8t4LyS8AAVSWFhn2Ynhe8t4LRSu4pdhWd9Q7GfZiSC557wWfcZ1SbCtUykl6MQgh8qTkvResCtqk2NZ40vsmezE8L3nvheq9m6bY5tGkaoa9GJJL3nuhyeT3U2xTKJUZ9mJ4XvLeCy41yqTYVmtIK+nFIIQQz5ECgxDilTOVXjDITIohvfSCQWZSDOmlFwwym2JIL71gICkGIURek156wSCzKYb00gsGmUkxpJdeMMhMiiG99IKBpBiEECI1KTAIIV45U+kFA3NTDKbSCwaZSTGYSi8YmJtiMJVeMJAUgxAirzGVXjAwN8VgKr1gYG6KwVR6wSAzKQZT6QUDSTEIIURKUmAQQrxS5qQXDMxJMWSUXjAwJ8WQUXrBwNwUQ0bpBQNJMQgh8oqM0gsG5qYYMkovGJiTYsgovWBgTooho/SCgaQYhBAiJSkwCCFeKXPSCwYZpRjMSS8YmJNiMCe9YJBRisGc9IKBpBiEEHmFOekFg4xSDOakFwwySjGYk14wMCfFYE56wUBSDEII8R8pMAghXpnMpBcMTKUYzE0vGJhKMZibXjDIKMVgbnrBQFIMQojcztz0gkFGKQZz0wsGplIM5qYXDEylGMxNLxhIikEIIf4jBQYhxCuTmfSCQXophsykFwxMpRgyk14wSC/FkJn0goGkGIQQuV1m0gsG6aUYMpNeMEgvxZCZ9IKBqRRDZtILBpJiEEKIJBY5PQEhxOshMTGRPePGAaBQKTn09boU2/U6PY/O3capcklU6pSnJqVl0jdbu8eMxrtnT5QqlTG9AHDn0EXuHLqY4jnhNx9iUUCNvUvhFI/rEpJSEIYUg2eLFsQ8fmz8UK+0UHJw+p8pnqOJjiM88AHFvD1Sva6EmPikFMOUKby/fj3wX3pBq9UR8POeVM8JuXgXe1dHCjjYpvm7OvHDDzT47DMKuplX6BBCiJftwenTXNm4EQBNVFyq82RM6FNiw6IoUt419ZP1icYUQ9OvkgoBez/7LGmbQsG/365PsXuiXs/Dc7cpUt4NS2t1im2G94ddH4/ijQ8/xMLKypheSJrnTR6cvpniORF3QlColBR0K/Lcz0kqKhhSDJU6dyY+MpK/J040/qznX2dCrIbHV4Mp5u2BQqFI+TK1egD2ff45vfbuTf17EEKI14Ai0ZxFgIUQIosurl3Ln126ZHmcDsuWUaVrV+aWKUPUvXtZGqtE/fr0//df/powIeupAQUMPn0GS1tbFlSsQKLW9NKaGak9bBhtFizI2pyEECKbrOnUyVhgeFHqgudlkIQAABBRSURBVAUZdfMmwcePs7J16yzPqfWCBdQaNIgFFSsSHhiYpbGKVavGoFOnODRjhrHAkBX9Dh+mZL16WR5HCCHyGkkwCCFeCYVKxdvffJPu9tsHDnBt2zbKNG9OmbffTnc/S2trIoODqfvRR+nuo42PZ/+kSajt7Wnk62tyXnFPnlCoVCmTczu/ejUPTp+mWp8+OFWqlO5+seHhaKKjaTZterr7hN+4wUk/P4pWrEj1vn3T3c+iQIEUf9fGx6PXagFQqlSo1GqzeljodTr0Wi0WVlYZ7iuEEGnRaTSU8vEx+YH52Ny5RN67R/1x47ApUiTd/Z4GB6PXak2ec4OOHePy+vWUatSI8m3bprtfgUKFiHrwgJoDB5qc/95PP0WlVvPWl1+a3C8mJATbYsVMzu3S+vUEHztGlW7dKF69err7aaKijP+dqNejjYsjMTERhUKBQqWSc7IQIt+SBIMQIlc4PHs2e8aMockXX9B40qQsjaWJimKGvT12rq6MzoaGiet69OD8qlV027KF8u0ybmxmyu0DB1jWuDHl2rWj+5YtZj0nOiSE1e3bE3z0aNIDCgUqtRrnKlV4Y8AAqvfunaogARB65Qqb+vVDGxtL923bsHdxydLchRAiPX41a/IgIIAR16/j6OmZpbFOLl7M1kGDqDdmDC1mzszy3L5QKFDb2/PZ06dZHmvr4MGc9POj86pVVO1mXv+fm3//ze/vvkv8kydJDygUWBUqhEfjxtT75BPcGzVKsX/4zZvsnzyZ6zt3EvfkCcWrV6fxpElZfv8RQohXQZo8CiFEHlGyQQM+PHaMQadO0WPHDkrUrcveTz9l+4gRaKKjU+wbdOwYv3fuTJChKCGEECLHKJRKGnz2GYNOn2bgyZO0/+knNNHRrOnUiTO//WbcLzYsjC0DB3Lv5Elaff89XTdtwrpIEbYOHkzQsWM5+AqEEMI8couEEELkEWpbW5y8vFDbJjWH9GjcGIfSpTnw5ZeU8vGhep8+ANz46y829etHsapVKVqxIk9u3cq5SQshhADA1tmZ4tWqAeBSowalmzVjwwcfcODLL3GrXZuiFSty98gRQi5e5J3Fi423h9gULcrq9u25c/AgJd58MydfghBCZEgSDEIIkUcplEqqduuGg4cH59esMd7za1e8OPU+/phOy5djU7RoDs9SCCFEWqwLF6bmwIFEP3rEte3bAXBv1Ihee/bg2by5cT9Dz51EvT6npiqEEGaTBIMQQuRhts7OFK1YkXsnTxIdEoLazg5nLy+cvbzkYlQIIXI5Jy8vrB0duX/qFABW9vY4Va6cYp9b+/aRqNdTom7dnJiiEEJkihQYhBC5QlRkJAD7J0/m7uHDWRrLsNpC7OPHrGjVKstze3j2LAD7Jk3ieBaXjrx94ECW55OcQqnEqlAhtHFxaOPisnVsIYQwV8SzBoYrWrXKcpPHp3fvAknLGz86dy7LcwNIiInJlveDwF27smE2/1Gp1Vja2KB59h74vLtHjnBs3jyqdO0qBQYhRJ4gBQYhRK4QEBBg/O/suoDTxcdn68Xgg2ffMOUmiXo9cU+eYGltjaW1dU5PRwjxmrr/4AEOQPj164Rfv54tY0bcukVENvWQSdTpsr04kB108fEkxMSgtrdPte3h2bNsGTgQ19q1aTxpEiq1OgdmKIQQmSMFBiFErqCqUYOft2zhww8/pH///lkeTxMdjUKhwNLGJstj6XU64iMisHZ0zPJYBgUKF86WcaIePuTxlSs4li0r/RaEEDnmlLs7gZcu8eeff1KiRIksjxcTGppt57SEmBgSExONDXKzg2O5ctkyTsjFi8SGh+Nas2aKxx9duMCGXr1wLFuWNgsWYJ1N7xlCCPGySYFBCJErKAsWJAhQlCwpMVAzJer1nFu5kie3blHvk09Q29nl9JSEEK+pSGtrggCnGjUokcVbJF4XsWFh+Pv5YevsTNnWrY2Ph1y6xIZevShYogTtfvwRWyenHJylEEJkjhQYhBAij9BERfHwzBlUajWx4eFcWr+ec6tWUaVrVyq9+65xP71Ox+OrV9FERREbFoY2NpaQCxeIffyYIuXLS8xWCCFyQOT9+9zz9ydRryf8xg1OLl7MgzNnaD1vHkUrVAAg9MoVNnzwAfFPn1Kla1cub9hAYmIiCqWS4tWqSQFeCJHrSYFBCCHyiLv//ssvPj6gUGBpa4tzlSq0/O47vHv2xMLKyrhfTGgoGz74gPsnTxof+615cxzKlKHXnj0ULlMmJ6YvhBCvrUS9nsPffsvhb79FoVJhXaQIpRo0oNvmzZTy8THuc9LPL2lFCb2evePGpRijQseOdN2wISemL4QQZpMCgxBC5HK2Tk58eOSI2fvbFSvGQH//lzgjIYQQ5irdtCnjw8Mz3E+hVNLyu+9o+d13r2BWQgjxcihzegJCCCGEEEIIIYTI+yTBIITIFYKCdMAw7t5NzOmpCCGEyKT798sDVdFq9Tk9FSGEEDlICgxCiFyiNBBLYqL0BxBCiLynIgA6naxmI4QQrzO5RUIIkSuUKOEGQKlSpXJ4JkIIITLLxaU4AFbJGs4KIYR4/UiBQQghhBBCCCGEEFkmt0gIIV47Op0OlUqV6nGNRoOFhQVKZeraq1arRafTGb+d02q1aDSapPXJFQrUajUWFnJKFUKIl0mvT+rx8Px5Wq/Xk5CQkG6CIj4+HpVKZTxPx8fHo9VqAVCpVKjV6jTP/UIIITJHzqRCiHzvyZMnfP/99zRs2JBixYpRrFgxatasybRp0wgJCQEgMjKS//3vf3Tu3JnQ0NAUz9fr9UybNo0WLVrw4MED9Ho906dPp0SJEpQoUQI3NzeKFStG1apV+eyzzwgKCsqJlymEEPnS5cuXGTlyJF5eXjg7O+Pm5karVq34448/0Gg0AAQEBFCjRg1mzpyJTqdL8fzQ0FDatWuHr69vir8bzuEuLi64uLjQpEkTli5dSlxc3Ct/jUIIkV/I121CiHztzp07DB06FH9/f5o1a0a3bt1QqVScOHECPz8/AgMDWbhwIQCJiYkcOnSI+fPn8/nnn2eYSChSpAizZs2iTJky/2/vXkOqzPY4jv/21sxrmqQYk1mWmkaUaeUUli9yJueFglLZBbKECruQOUYvpIspETYwUSB2ERICQbNwg3kK4UByqiHtYhOZm0ThwCmm8pLJVrf7vIgRPJ4sezJj+/28fB7Ws/7r1Ybf/q+1ZLPZhr5ZX1+vixcvKiIi4lssEQCcVm1trQ4cOKDBwUElJycrMjJSnZ2dunXrlrKzs9XX16etW7dK+tCFVlxcrCVLligxMfGT346Li1NBQYHc3NzU0dGh6upqHTt2TA8ePNDJkyfl5eU13ssDAKdDwADAafX19amoqEiPHz9WUVGRtmzZMtQCu2vXLjU3N0uS3N3d1d/fL5PJJA8PD5WVlSkmJkbJycmjft/V1VVz587VokWLJEmxsbFatmyZMjIydPr0aZ09e1bu7u7ju0gAcFJtbW06fvy4/Pz8dOnSJS1cuHDo3f79+9XQ0KDw8PChZy4uLurr69OJEycUHh6ukJCQUb/v6empBQsWDAUJq1atUkhIiIqKihQXF6fNmzePz8IAwImxRQKA02publZdXZ0SExO1fv36EftrIyIiRnQZJCQkaPny5SosLNTz58/HPGd0dLSSkpJUX1+vZ8+eGaofACazGzduqL29Xfv27RsWLkgfAt4VK1Zo+vTpw57t3LlTb9++1alTp/T+/fsxzWc2m5WWlqbZs2fr6tWrevfu3VdZBwBMJgQMAJxWS0uLOjs7tWbNms/uJPDx8VFeXp4GBgZUUFCg7u7uMc3p4uKimJgYdXV1yWq1fknZADDp2e12PXr0SP7+/oqNjf2sMQ6HQ1FRUcrJyVFNTY2uXLky5nkDAgIUFham1tZWvX79eszjAWCyY4sEAKfV09Mjk8k07B8uSXr48KFqa2vlcDjk5+c3dC7D36KionT48GEdOnRIpaWl2rt375jm9fb2ltlsVk9Pz1dZBwBMNg6HQ11dXfL09JSnp+fQc7vdrmvXrqmlpUUmk0lRUVHDtrOZTCalp6ersbFRZ86c0eLFixUaGvrZ85rNZk2bNk02m43DHgHgC9DBAMBpeXt7S9KILoSOjg41NDSoqqpKJSUl6ujoGDE2JSVF6enpKi4u1u3bt8c0b3d3twYHB4fmBwCMjclkkq+vr3p7e2Wz2Ya9a21t1d27d3XhwgVVV1ePGOvu7q7c3FwFBgYqPz9/xM1AoxkcHFRnZ6fc3d3l4eFheB0AMNkQMABwWuHh4fLz89OdO3eG7juXPpyzUFFRoU2bNn303nM3NzdlZ2dr/vz5ys/PH7rO8lPsdrsaGxvl6+ursLCwr7IOAJhsXFxctHTpUnV2dqqpqWnY89zcXJWVlSkqKuqj44ODg3X06FFZrVadO3du2G/AaF69eiWr1arQ0FD5+/sbXgcATDYEDACcVkREhJKSknTjxg3dvHlzzOMDAwN15MgRvXz5UtXV1XI4HJ8c09DQoJqaGq1evXrY6eYAgLH5+eefFRISouLiYrW3t495fHx8vHbv3q3r169/1qG9g4ODqqioUHt7u1JTU+lCA4AvwBkMAJyWq6urcnJy1NbWpqysLG3cuFFr166Vj4+PmpqaVFVVJelDK+7HLF++XNnZ2crLyxvxrr+/X1arVXa7XTabTffv39f58+c1Y8YMHTx4kCsqAcCA4OBgFRYWas+ePUpLS9O2bdsUHR2tgYEB1dXV6enTpwoKCvroeLPZrMzMTD148EAWi2XE+56eHj158kRubm7q6OiQxWJRZWWlUlNTP3lNMQDg/yNgAODUgoKCVFpaqvLyclVWVqq8vFy9vb0KCAjQypUrtWPHDoWEhIx6W8TmzZv16NGjYW26kvTmzRtlZmZKkqZMmaJZs2YpJSVFWVlZmjlz5riuCwAmg/j4eFksFpWUlOjy5csqLCyUyWTSnDlzlJGRoe3bt486/u+bgV68eDHi3b1797Ru3TpJkpeXlyIjI1VYWKgNGzZo6tSp47IeAHB2Jsfn9PwCwDj77bd/6ddfb+n48QQdObJmossBAIxBTEyJGhv/I6t1n+bN4+wCAJisOIMBAAAAAAAYRsAAAAAAAAAM4wwGAN+Vo0f/qbdveye6jHFlNpuUlbWMNmIATic7+x+aN2/6RJcxrgIDvZSbu0qurvxPBwD/i4ABwHfn99/vTXQJ485ms+vcuV8mugwA+Koslk9fB+kMEhLm6Mcfgye6DAD47nDII4Dvwp9/vtIff/x7osv4JqZMcVFKSoR8fDilHIBzsFia9ddf7ye6jG/ihx+m6aef5k10GQDwXSJgAAAAAAAAhrF5DAAAAAAAGEbAAAAAAAAADCNgAAAAAAAAhhEwAAAAAAAAwwgYAAAAAACAYQQMAAAAAADAMAIGAAAAAABgGAEDAAAAAAAwjIABAAAAAAAYRsAAAAAAAAAMI2AAAAAAAACGETAAAAAAAADDCBgAAAAAAIBhBAwAAAAAAMAwAgYAAAAAAGAYAQMAAAAAADCMgAEAAAAAABhGwAAAAAAAAAz7L0jLgDpwX/ZHAAAAAElFTkSuQmCC;" parent="1" vertex="1">
          <mxGeometry x="340" y="375" width="190" height="49.67" as="geometry" />
        </mxCell>
        <mxCell id="qIvfzEY7CYZeFkJPYe9R-56" value="" style="shape=flexArrow;endArrow=classic;html=1;rounded=0;" parent="1" edge="1">
          <mxGeometry width="50" height="50" relative="1" as="geometry">
            <mxPoint x="640" y="485.94" as="sourcePoint" />
            <mxPoint x="590" y="485.94" as="targetPoint" />
          </mxGeometry>
        </mxCell>
        <mxCell id="qIvfzEY7CYZeFkJPYe9R-57" value="PMOD JA" style="text;html=1;align=center;verticalAlign=middle;whiteSpace=wrap;rounded=0;" parent="1" vertex="1">
          <mxGeometry x="650" y="471.08" width="60" height="30" as="geometry" />
        </mxCell>
        <mxCell id="qIvfzEY7CYZeFkJPYe9R-73" value="" style="shape=flexArrow;endArrow=classic;html=1;rounded=0;" parent="1" edge="1">
          <mxGeometry width="50" height="50" relative="1" as="geometry">
            <mxPoint x="640" y="585.24" as="sourcePoint" />
            <mxPoint x="590" y="585.24" as="targetPoint" />
            <Array as="points">
              <mxPoint x="615" y="585.38" />
            </Array>
          </mxGeometry>
        </mxCell>
        <mxCell id="qIvfzEY7CYZeFkJPYe9R-74" value="PMOD JB" style="text;html=1;align=center;verticalAlign=middle;whiteSpace=wrap;rounded=0;" parent="1" vertex="1">
          <mxGeometry x="650" y="570.38" width="60" height="30" as="geometry" />
        </mxCell>
        <mxCell id="qIvfzEY7CYZeFkJPYe9R-91" value="" style="shape=table;startSize=0;container=1;collapsible=0;childLayout=tableLayout;fontSize=8;" parent="1" vertex="1">
          <mxGeometry x="140" y="645.38" width="420" height="80" as="geometry" />
        </mxCell>
        <mxCell id="qIvfzEY7CYZeFkJPYe9R-92" value="" style="shape=tableRow;horizontal=0;startSize=0;swimlaneHead=0;swimlaneBody=0;strokeColor=inherit;top=0;left=0;bottom=0;right=0;collapsible=0;dropTarget=0;fillColor=none;points=[[0,0.5],[1,0.5]];portConstraint=eastwest;fontSize=8;" parent="qIvfzEY7CYZeFkJPYe9R-91" vertex="1">
          <mxGeometry width="420" height="40" as="geometry" />
        </mxCell>
        <mxCell id="qIvfzEY7CYZeFkJPYe9R-93" value="VCC" style="shape=partialRectangle;html=1;whiteSpace=wrap;connectable=0;strokeColor=#b85450;overflow=hidden;fillColor=#f8cecc;top=0;left=0;bottom=0;right=0;pointerEvents=1;fontSize=8;gradientColor=#ea6b66;" parent="qIvfzEY7CYZeFkJPYe9R-92" vertex="1">
          <mxGeometry width="60" height="40" as="geometry">
            <mxRectangle width="60" height="40" as="alternateBounds" />
          </mxGeometry>
        </mxCell>
        <mxCell id="qIvfzEY7CYZeFkJPYe9R-94" value="GND" style="shape=partialRectangle;html=1;whiteSpace=wrap;connectable=0;overflow=hidden;top=0;left=0;bottom=0;right=0;pointerEvents=1;fontSize=8;" parent="qIvfzEY7CYZeFkJPYe9R-92" vertex="1">
          <mxGeometry x="60" width="60" height="40" as="geometry">
            <mxRectangle width="60" height="40" as="alternateBounds" />
          </mxGeometry>
        </mxCell>
        <mxCell id="qIvfzEY7CYZeFkJPYe9R-95" value="MDIO" style="shape=partialRectangle;html=1;whiteSpace=wrap;connectable=0;strokeColor=#996185;overflow=hidden;fillColor=#e6d0de;top=0;left=0;bottom=0;right=0;pointerEvents=1;fontSize=8;gradientColor=#d5739d;" parent="qIvfzEY7CYZeFkJPYe9R-92" vertex="1">
          <mxGeometry x="120" width="60" height="40" as="geometry">
            <mxRectangle width="60" height="40" as="alternateBounds" />
          </mxGeometry>
        </mxCell>
        <mxCell id="qIvfzEY7CYZeFkJPYe9R-96" value="nINT/RETCLK" style="shape=partialRectangle;html=1;whiteSpace=wrap;connectable=0;strokeColor=#82b366;overflow=hidden;fillColor=#d5e8d4;top=0;left=0;bottom=0;right=0;pointerEvents=1;fontSize=8;gradientColor=#97d077;" parent="qIvfzEY7CYZeFkJPYe9R-92" vertex="1">
          <mxGeometry x="180" width="60" height="40" as="geometry">
            <mxRectangle width="60" height="40" as="alternateBounds" />
          </mxGeometry>
        </mxCell>
        <mxCell id="qIvfzEY7CYZeFkJPYe9R-97" value="RX0" style="shape=partialRectangle;html=1;whiteSpace=wrap;connectable=0;strokeColor=#666666;overflow=hidden;fillColor=#f5f5f5;top=0;left=0;bottom=0;right=0;pointerEvents=1;fontSize=8;gradientColor=#b3b3b3;" parent="qIvfzEY7CYZeFkJPYe9R-92" vertex="1">
          <mxGeometry x="240" width="60" height="40" as="geometry">
            <mxRectangle width="60" height="40" as="alternateBounds" />
          </mxGeometry>
        </mxCell>
        <mxCell id="qIvfzEY7CYZeFkJPYe9R-98" value="TX_EN" style="shape=partialRectangle;html=1;whiteSpace=wrap;connectable=0;strokeColor=#82b366;overflow=hidden;fillColor=#d5e8d4;top=0;left=0;bottom=0;right=0;pointerEvents=1;fontSize=8;gradientColor=#97d077;" parent="qIvfzEY7CYZeFkJPYe9R-92" vertex="1">
          <mxGeometry x="300" width="60" height="40" as="geometry">
            <mxRectangle width="60" height="40" as="alternateBounds" />
          </mxGeometry>
        </mxCell>
        <mxCell id="qIvfzEY7CYZeFkJPYe9R-99" value="TX1" style="shape=partialRectangle;html=1;whiteSpace=wrap;connectable=0;strokeColor=#82b366;overflow=hidden;fillColor=#d5e8d4;top=0;left=0;bottom=0;right=0;pointerEvents=1;fontSize=8;gradientColor=#97d077;" parent="qIvfzEY7CYZeFkJPYe9R-92" vertex="1">
          <mxGeometry x="360" width="60" height="40" as="geometry">
            <mxRectangle width="60" height="40" as="alternateBounds" />
          </mxGeometry>
        </mxCell>
        <mxCell id="qIvfzEY7CYZeFkJPYe9R-100" value="" style="shape=tableRow;horizontal=0;startSize=0;swimlaneHead=0;swimlaneBody=0;strokeColor=inherit;top=0;left=0;bottom=0;right=0;collapsible=0;dropTarget=0;fillColor=none;points=[[0,0.5],[1,0.5]];portConstraint=eastwest;fontSize=8;" parent="qIvfzEY7CYZeFkJPYe9R-91" vertex="1">
          <mxGeometry y="40" width="420" height="40" as="geometry" />
        </mxCell>
        <mxCell id="qIvfzEY7CYZeFkJPYe9R-101" value="VCC" style="shape=partialRectangle;html=1;whiteSpace=wrap;connectable=0;strokeColor=#b85450;overflow=hidden;fillColor=#f8cecc;top=0;left=0;bottom=0;right=0;pointerEvents=1;fontSize=8;gradientColor=#ea6b66;" parent="qIvfzEY7CYZeFkJPYe9R-100" vertex="1">
          <mxGeometry width="60" height="40" as="geometry">
            <mxRectangle width="60" height="40" as="alternateBounds" />
          </mxGeometry>
        </mxCell>
        <mxCell id="qIvfzEY7CYZeFkJPYe9R-102" value="GND" style="shape=partialRectangle;html=1;whiteSpace=wrap;connectable=0;overflow=hidden;top=0;left=0;bottom=0;right=0;pointerEvents=1;fontSize=8;" parent="qIvfzEY7CYZeFkJPYe9R-100" vertex="1">
          <mxGeometry x="60" width="60" height="40" as="geometry">
            <mxRectangle width="60" height="40" as="alternateBounds" />
          </mxGeometry>
        </mxCell>
        <mxCell id="qIvfzEY7CYZeFkJPYe9R-103" value="MDC" style="shape=partialRectangle;html=1;whiteSpace=wrap;connectable=0;strokeColor=#996185;overflow=hidden;fillColor=#e6d0de;top=0;left=0;bottom=0;right=0;pointerEvents=1;fontSize=8;gradientColor=#d5739d;" parent="qIvfzEY7CYZeFkJPYe9R-100" vertex="1">
          <mxGeometry x="120" width="60" height="40" as="geometry">
            <mxRectangle width="60" height="40" as="alternateBounds" />
          </mxGeometry>
        </mxCell>
        <mxCell id="qIvfzEY7CYZeFkJPYe9R-104" value="CRS" style="shape=partialRectangle;html=1;whiteSpace=wrap;connectable=0;strokeColor=#666666;overflow=hidden;fillColor=#f5f5f5;top=0;left=0;bottom=0;right=0;pointerEvents=1;fontSize=8;gradientColor=#b3b3b3;" parent="qIvfzEY7CYZeFkJPYe9R-100" vertex="1">
          <mxGeometry x="180" width="60" height="40" as="geometry">
            <mxRectangle width="60" height="40" as="alternateBounds" />
          </mxGeometry>
        </mxCell>
        <mxCell id="qIvfzEY7CYZeFkJPYe9R-105" value="RX1" style="shape=partialRectangle;html=1;whiteSpace=wrap;connectable=0;strokeColor=#666666;overflow=hidden;fillColor=#f5f5f5;top=0;left=0;bottom=0;right=0;pointerEvents=1;fontSize=8;gradientColor=#b3b3b3;" parent="qIvfzEY7CYZeFkJPYe9R-100" vertex="1">
          <mxGeometry x="240" width="60" height="40" as="geometry">
            <mxRectangle width="60" height="40" as="alternateBounds" />
          </mxGeometry>
        </mxCell>
        <mxCell id="qIvfzEY7CYZeFkJPYe9R-106" value="TX0" style="shape=partialRectangle;html=1;whiteSpace=wrap;connectable=0;strokeColor=#82b366;overflow=hidden;fillColor=#d5e8d4;top=0;left=0;bottom=0;right=0;pointerEvents=1;fontSize=8;gradientColor=#97d077;" parent="qIvfzEY7CYZeFkJPYe9R-100" vertex="1">
          <mxGeometry x="300" width="60" height="40" as="geometry">
            <mxRectangle width="60" height="40" as="alternateBounds" />
          </mxGeometry>
        </mxCell>
        <mxCell id="qIvfzEY7CYZeFkJPYe9R-107" value="NC" style="shape=partialRectangle;html=1;whiteSpace=wrap;connectable=0;strokeColor=#666666;overflow=hidden;fillColor=#f5f5f5;top=0;left=0;bottom=0;right=0;pointerEvents=1;fontSize=8;gradientColor=#b3b3b3;" parent="qIvfzEY7CYZeFkJPYe9R-100" vertex="1">
          <mxGeometry x="360" width="60" height="40" as="geometry">
            <mxRectangle width="60" height="40" as="alternateBounds" />
          </mxGeometry>
        </mxCell>
        <mxCell id="qIvfzEY7CYZeFkJPYe9R-108" value="" style="shape=flexArrow;endArrow=classic;html=1;rounded=0;" parent="1" edge="1">
          <mxGeometry width="50" height="50" relative="1" as="geometry">
            <mxPoint x="640" y="685.24" as="sourcePoint" />
            <mxPoint x="590" y="685.24" as="targetPoint" />
          </mxGeometry>
        </mxCell>
        <mxCell id="qIvfzEY7CYZeFkJPYe9R-109" value="LAN8720 ETH Board" style="text;html=1;align=center;verticalAlign=middle;whiteSpace=wrap;rounded=0;" parent="1" vertex="1">
          <mxGeometry x="650" y="670.38" width="120" height="30" as="geometry" />
        </mxCell>
        <mxCell id="qIvfzEY7CYZeFkJPYe9R-220" value="" style="shape=table;startSize=0;container=1;collapsible=0;childLayout=tableLayout;fontSize=8;" parent="1" vertex="1">
          <mxGeometry x="170" y="446.08" width="360" height="80" as="geometry" />
        </mxCell>
        <mxCell id="qIvfzEY7CYZeFkJPYe9R-221" value="" style="shape=tableRow;horizontal=0;startSize=0;swimlaneHead=0;swimlaneBody=0;strokeColor=inherit;top=0;left=0;bottom=0;right=0;collapsible=0;dropTarget=0;fillColor=none;points=[[0,0.5],[1,0.5]];portConstraint=eastwest;fontSize=8;" parent="qIvfzEY7CYZeFkJPYe9R-220" vertex="1">
          <mxGeometry width="360" height="40" as="geometry" />
        </mxCell>
        <mxCell id="qIvfzEY7CYZeFkJPYe9R-222" value="VCC" style="shape=partialRectangle;html=1;whiteSpace=wrap;connectable=0;strokeColor=#b85450;overflow=hidden;fillColor=#f8cecc;top=0;left=0;bottom=0;right=0;pointerEvents=1;fontSize=8;gradientColor=#ea6b66;" parent="qIvfzEY7CYZeFkJPYe9R-221" vertex="1">
          <mxGeometry width="60" height="40" as="geometry">
            <mxRectangle width="60" height="40" as="alternateBounds" />
          </mxGeometry>
        </mxCell>
        <mxCell id="qIvfzEY7CYZeFkJPYe9R-223" value="GND" style="shape=partialRectangle;html=1;whiteSpace=wrap;connectable=0;overflow=hidden;top=0;left=0;bottom=0;right=0;pointerEvents=1;fontSize=8;" parent="qIvfzEY7CYZeFkJPYe9R-221" vertex="1">
          <mxGeometry x="60" width="60" height="40" as="geometry">
            <mxRectangle width="60" height="40" as="alternateBounds" />
          </mxGeometry>
        </mxCell>
        <mxCell id="qIvfzEY7CYZeFkJPYe9R-224" value="&lt;span style=&quot;color: rgb(0, 0, 0); font-family: Helvetica; font-size: 8px; font-style: normal; font-variant-ligatures: normal; font-variant-caps: normal; font-weight: 400; letter-spacing: normal; orphans: 2; text-align: center; text-indent: 0px; text-transform: none; widows: 2; word-spacing: 0px; -webkit-text-stroke-width: 0px; white-space: normal; background-color: rgb(251, 251, 251); text-decoration-thickness: initial; text-decoration-style: initial; text-decoration-color: initial; display: inline !important; float: none;&quot;&gt;(4 : N) - GND&lt;/span&gt;&lt;div style=&quot;forced-color-adjust: none; color: rgb(0, 0, 0); font-family: Helvetica; font-size: 8px; font-style: normal; font-variant-ligatures: normal; font-variant-caps: normal; font-weight: 400; letter-spacing: normal; orphans: 2; text-align: center; text-indent: 0px; text-transform: none; widows: 2; word-spacing: 0px; -webkit-text-stroke-width: 0px; white-space: normal; background-color: rgb(251, 251, 251); text-decoration-thickness: initial; text-decoration-style: initial; text-decoration-color: initial;&quot;&gt;[Y17]&lt;/div&gt;" style="shape=partialRectangle;html=1;whiteSpace=wrap;connectable=0;overflow=hidden;top=0;left=0;bottom=0;right=0;pointerEvents=1;fontSize=8;" parent="qIvfzEY7CYZeFkJPYe9R-221" vertex="1">
          <mxGeometry x="120" width="60" height="40" as="geometry">
            <mxRectangle width="60" height="40" as="alternateBounds" />
          </mxGeometry>
        </mxCell>
        <mxCell id="qIvfzEY7CYZeFkJPYe9R-225" value="(3 : P) - TX_EN&lt;div&gt;[Y16]&lt;span style=&quot;color: rgba(0, 0, 0, 0); font-family: monospace; font-size: 0px; text-align: start; text-wrap: nowrap; background-color: initial;&quot;&gt;%3CmxGraphModel%3E%3Croot%3E%3CmxCell%20id%3D%220%22%2F%3E%3CmxCell%20id%3D%221%22%20parent%3D%220%22%2F%3E%3CmxCell%20id%3D%222%22%20value%3D%22(10%20%3A%20N)%20-%20GND%26lt%3Bdiv%26gt%3B%5BW19%5D%26lt%3B%2Fdiv%26gt%3B%22%20style%3D%22shape%3DpartialRectangle%3Bhtml%3D1%3BwhiteSpace%3Dwrap%3Bconnectable%3D0%3BstrokeColor%3Ddefault%3Boverflow%3Dhidden%3BfillColor%3D%23d5e8d4%3Btop%3D0%3Bleft%3D0%3Bbottom%3D0%3Bright%3D0%3BpointerEvents%3D1%3BfontSize%3D8%3B%22%20vertex%3D%221%22%20parent%3D%221%22%3E%3CmxGeometry%20x%3D%22246%22%20y%3D%22310%22%20width%3D%2259%22%20height%3D%2240%22%20as%3D%22geometry%22%3E%3CmxRectangle%20width%3D%2259%22%20height%3D%2240%22%20as%3D%22alternateBounds%22%2F%3E%3C%2FmxGeometry%3E%3C%2FmxCell%3E%3C%2Froot%3E%3C%2FmxGraphModel%3E&lt;/span&gt;&lt;/div&gt;" style="shape=partialRectangle;html=1;whiteSpace=wrap;connectable=0;strokeColor=#82b366;overflow=hidden;fillColor=#d5e8d4;top=0;left=0;bottom=0;right=0;pointerEvents=1;fontSize=8;gradientColor=#97d077;" parent="qIvfzEY7CYZeFkJPYe9R-221" vertex="1">
          <mxGeometry x="180" width="60" height="40" as="geometry">
            <mxRectangle width="60" height="40" as="alternateBounds" />
          </mxGeometry>
        </mxCell>
        <mxCell id="qIvfzEY7CYZeFkJPYe9R-226" value="(2: N) - GND&lt;div&gt;[Y19]&lt;/div&gt;" style="shape=partialRectangle;html=1;whiteSpace=wrap;connectable=0;overflow=hidden;top=0;left=0;bottom=0;right=0;pointerEvents=1;fontSize=8;" parent="qIvfzEY7CYZeFkJPYe9R-221" vertex="1">
          <mxGeometry x="240" width="60" height="40" as="geometry">
            <mxRectangle width="60" height="40" as="alternateBounds" />
          </mxGeometry>
        </mxCell>
        <mxCell id="qIvfzEY7CYZeFkJPYe9R-227" value="" style="shape=partialRectangle;html=1;whiteSpace=wrap;connectable=0;strokeColor=inherit;overflow=hidden;fillColor=none;top=0;left=0;bottom=0;right=0;pointerEvents=1;fontSize=8;" parent="qIvfzEY7CYZeFkJPYe9R-221" vertex="1">
          <mxGeometry x="300" width="60" height="40" as="geometry">
            <mxRectangle width="60" height="40" as="alternateBounds" />
          </mxGeometry>
        </mxCell>
        <mxCell id="qIvfzEY7CYZeFkJPYe9R-228" value="" style="shape=tableRow;horizontal=0;startSize=0;swimlaneHead=0;swimlaneBody=0;strokeColor=inherit;top=0;left=0;bottom=0;right=0;collapsible=0;dropTarget=0;fillColor=none;points=[[0,0.5],[1,0.5]];portConstraint=eastwest;fontSize=8;" parent="qIvfzEY7CYZeFkJPYe9R-220" vertex="1">
          <mxGeometry y="40" width="360" height="40" as="geometry" />
        </mxCell>
        <mxCell id="qIvfzEY7CYZeFkJPYe9R-229" value="VCC" style="shape=partialRectangle;html=1;whiteSpace=wrap;connectable=0;strokeColor=#b85450;overflow=hidden;fillColor=#f8cecc;top=0;left=0;bottom=0;right=0;pointerEvents=1;fontSize=8;gradientColor=#ea6b66;" parent="qIvfzEY7CYZeFkJPYe9R-228" vertex="1">
          <mxGeometry width="60" height="40" as="geometry">
            <mxRectangle width="60" height="40" as="alternateBounds" />
          </mxGeometry>
        </mxCell>
        <mxCell id="qIvfzEY7CYZeFkJPYe9R-230" value="GND" style="shape=partialRectangle;html=1;whiteSpace=wrap;connectable=0;overflow=hidden;top=0;left=0;bottom=0;right=0;pointerEvents=1;fontSize=8;" parent="qIvfzEY7CYZeFkJPYe9R-228" vertex="1">
          <mxGeometry x="60" width="60" height="40" as="geometry">
            <mxRectangle width="60" height="40" as="alternateBounds" />
          </mxGeometry>
        </mxCell>
        <mxCell id="qIvfzEY7CYZeFkJPYe9R-231" value="(10 : N) - GND&lt;div&gt;[W19]&lt;/div&gt;" style="shape=partialRectangle;html=1;whiteSpace=wrap;connectable=0;overflow=hidden;top=0;left=0;bottom=0;right=0;pointerEvents=1;fontSize=8;" parent="qIvfzEY7CYZeFkJPYe9R-228" vertex="1">
          <mxGeometry x="120" width="60" height="40" as="geometry">
            <mxRectangle width="60" height="40" as="alternateBounds" />
          </mxGeometry>
        </mxCell>
        <mxCell id="qIvfzEY7CYZeFkJPYe9R-232" value="(9 : P) - TX0&lt;div&gt;[W18]&lt;/div&gt;" style="shape=partialRectangle;html=1;whiteSpace=wrap;connectable=0;strokeColor=#82b366;overflow=hidden;fillColor=#d5e8d4;top=0;left=0;bottom=0;right=0;pointerEvents=1;fontSize=8;gradientColor=#97d077;" parent="qIvfzEY7CYZeFkJPYe9R-228" vertex="1">
          <mxGeometry x="180" width="60" height="40" as="geometry">
            <mxRectangle width="60" height="40" as="alternateBounds" />
          </mxGeometry>
        </mxCell>
        <mxCell id="qIvfzEY7CYZeFkJPYe9R-233" value="(8 : N) - GND&lt;div&gt;[U19]&lt;/div&gt;" style="shape=partialRectangle;html=1;whiteSpace=wrap;connectable=0;overflow=hidden;top=0;left=0;bottom=0;right=0;pointerEvents=1;fontSize=8;" parent="qIvfzEY7CYZeFkJPYe9R-228" vertex="1">
          <mxGeometry x="240" width="60" height="40" as="geometry">
            <mxRectangle width="60" height="40" as="alternateBounds" />
          </mxGeometry>
        </mxCell>
        <mxCell id="qIvfzEY7CYZeFkJPYe9R-234" value="" style="shape=partialRectangle;html=1;whiteSpace=wrap;connectable=0;strokeColor=inherit;overflow=hidden;fillColor=none;top=0;left=0;bottom=0;right=0;pointerEvents=1;fontSize=8;" parent="qIvfzEY7CYZeFkJPYe9R-228" vertex="1">
          <mxGeometry x="300" width="60" height="40" as="geometry">
            <mxRectangle width="60" height="40" as="alternateBounds" />
          </mxGeometry>
        </mxCell>
        <mxCell id="qIvfzEY7CYZeFkJPYe9R-250" value="" style="shape=table;startSize=0;container=1;collapsible=0;childLayout=tableLayout;fontSize=8;" parent="1" vertex="1">
          <mxGeometry x="170" y="545.38" width="360" height="80" as="geometry" />
        </mxCell>
        <mxCell id="qIvfzEY7CYZeFkJPYe9R-251" value="" style="shape=tableRow;horizontal=0;startSize=0;swimlaneHead=0;swimlaneBody=0;strokeColor=inherit;top=0;left=0;bottom=0;right=0;collapsible=0;dropTarget=0;fillColor=none;points=[[0,0.5],[1,0.5]];portConstraint=eastwest;fontSize=8;" parent="qIvfzEY7CYZeFkJPYe9R-250" vertex="1">
          <mxGeometry width="360" height="40" as="geometry" />
        </mxCell>
        <mxCell id="qIvfzEY7CYZeFkJPYe9R-252" value="NC" style="shape=partialRectangle;html=1;whiteSpace=wrap;connectable=0;overflow=hidden;fillColor=#f5f5f5;top=0;left=0;bottom=0;right=0;pointerEvents=1;fontSize=8;gradientColor=#b3b3b3;strokeColor=#666666;" parent="qIvfzEY7CYZeFkJPYe9R-251" vertex="1">
          <mxGeometry width="60" height="40" as="geometry">
            <mxRectangle width="60" height="40" as="alternateBounds" />
          </mxGeometry>
        </mxCell>
        <mxCell id="qIvfzEY7CYZeFkJPYe9R-253" value="NC" style="shape=partialRectangle;html=1;whiteSpace=wrap;connectable=0;strokeColor=#666666;overflow=hidden;fillColor=#f5f5f5;top=0;left=0;bottom=0;right=0;pointerEvents=1;fontSize=8;gradientColor=#b3b3b3;" parent="qIvfzEY7CYZeFkJPYe9R-251" vertex="1">
          <mxGeometry x="60" width="60" height="40" as="geometry">
            <mxRectangle width="60" height="40" as="alternateBounds" />
          </mxGeometry>
        </mxCell>
        <mxCell id="qIvfzEY7CYZeFkJPYe9R-254" value="NC" style="shape=partialRectangle;html=1;whiteSpace=wrap;connectable=0;strokeColor=#666666;overflow=hidden;fillColor=#f5f5f5;top=0;left=0;bottom=0;right=0;pointerEvents=1;fontSize=8;gradientColor=#b3b3b3;" parent="qIvfzEY7CYZeFkJPYe9R-251" vertex="1">
          <mxGeometry x="120" width="60" height="40" as="geometry">
            <mxRectangle width="60" height="40" as="alternateBounds" />
          </mxGeometry>
        </mxCell>
        <mxCell id="qIvfzEY7CYZeFkJPYe9R-255" value="NC" style="shape=partialRectangle;html=1;whiteSpace=wrap;connectable=0;strokeColor=#666666;overflow=hidden;fillColor=#f5f5f5;top=0;left=0;bottom=0;right=0;pointerEvents=1;fontSize=8;gradientColor=#b3b3b3;" parent="qIvfzEY7CYZeFkJPYe9R-251" vertex="1">
          <mxGeometry x="180" width="60" height="40" as="geometry">
            <mxRectangle width="60" height="40" as="alternateBounds" />
          </mxGeometry>
        </mxCell>
        <mxCell id="qIvfzEY7CYZeFkJPYe9R-256" value="(2: N) - GND&lt;div&gt;[Y14]&lt;/div&gt;" style="shape=partialRectangle;html=1;whiteSpace=wrap;connectable=0;overflow=hidden;top=0;left=0;bottom=0;right=0;pointerEvents=1;fontSize=8;" parent="qIvfzEY7CYZeFkJPYe9R-251" vertex="1">
          <mxGeometry x="240" width="60" height="40" as="geometry">
            <mxRectangle width="60" height="40" as="alternateBounds" />
          </mxGeometry>
        </mxCell>
        <mxCell id="qIvfzEY7CYZeFkJPYe9R-257" value="(1 : P) - MDC&lt;div&gt;[W14]&lt;/div&gt;" style="shape=partialRectangle;html=1;whiteSpace=wrap;connectable=0;strokeColor=#996185;overflow=hidden;fillColor=#e6d0de;top=0;left=0;bottom=0;right=0;pointerEvents=1;fontSize=8;gradientColor=#d5739d;" parent="qIvfzEY7CYZeFkJPYe9R-251" vertex="1">
          <mxGeometry x="300" width="60" height="40" as="geometry">
            <mxRectangle width="60" height="40" as="alternateBounds" />
          </mxGeometry>
        </mxCell>
        <mxCell id="qIvfzEY7CYZeFkJPYe9R-258" value="" style="shape=tableRow;horizontal=0;startSize=0;swimlaneHead=0;swimlaneBody=0;strokeColor=inherit;top=0;left=0;bottom=0;right=0;collapsible=0;dropTarget=0;fillColor=none;points=[[0,0.5],[1,0.5]];portConstraint=eastwest;fontSize=8;" parent="qIvfzEY7CYZeFkJPYe9R-250" vertex="1">
          <mxGeometry y="40" width="360" height="40" as="geometry" />
        </mxCell>
        <mxCell id="qIvfzEY7CYZeFkJPYe9R-259" value="NC" style="shape=partialRectangle;html=1;whiteSpace=wrap;connectable=0;strokeColor=#666666;overflow=hidden;fillColor=#f5f5f5;top=0;left=0;bottom=0;right=0;pointerEvents=1;fontSize=8;gradientColor=#b3b3b3;" parent="qIvfzEY7CYZeFkJPYe9R-258" vertex="1">
          <mxGeometry width="60" height="40" as="geometry">
            <mxRectangle width="60" height="40" as="alternateBounds" />
          </mxGeometry>
        </mxCell>
        <mxCell id="qIvfzEY7CYZeFkJPYe9R-260" value="NC" style="shape=partialRectangle;html=1;whiteSpace=wrap;connectable=0;strokeColor=#666666;overflow=hidden;fillColor=#f5f5f5;top=0;left=0;bottom=0;right=0;pointerEvents=1;fontSize=8;gradientColor=#b3b3b3;" parent="qIvfzEY7CYZeFkJPYe9R-258" vertex="1">
          <mxGeometry x="60" width="60" height="40" as="geometry">
            <mxRectangle width="60" height="40" as="alternateBounds" />
          </mxGeometry>
        </mxCell>
        <mxCell id="qIvfzEY7CYZeFkJPYe9R-261" value="NC" style="shape=partialRectangle;html=1;whiteSpace=wrap;connectable=0;strokeColor=#666666;overflow=hidden;fillColor=#f5f5f5;top=0;left=0;bottom=0;right=0;pointerEvents=1;fontSize=8;gradientColor=#b3b3b3;" parent="qIvfzEY7CYZeFkJPYe9R-258" vertex="1">
          <mxGeometry x="120" width="60" height="40" as="geometry">
            <mxRectangle width="60" height="40" as="alternateBounds" />
          </mxGeometry>
        </mxCell>
        <mxCell id="qIvfzEY7CYZeFkJPYe9R-262" value="NC" style="shape=partialRectangle;html=1;whiteSpace=wrap;connectable=0;strokeColor=#666666;overflow=hidden;fillColor=#f5f5f5;top=0;left=0;bottom=0;right=0;pointerEvents=1;fontSize=8;gradientColor=#b3b3b3;" parent="qIvfzEY7CYZeFkJPYe9R-258" vertex="1">
          <mxGeometry x="180" width="60" height="40" as="geometry">
            <mxRectangle width="60" height="40" as="alternateBounds" />
          </mxGeometry>
        </mxCell>
        <mxCell id="qIvfzEY7CYZeFkJPYe9R-263" value="(8 : N) - GND&lt;div&gt;[W16]&lt;/div&gt;" style="shape=partialRectangle;html=1;whiteSpace=wrap;connectable=0;overflow=hidden;top=0;left=0;bottom=0;right=0;pointerEvents=1;fontSize=8;" parent="qIvfzEY7CYZeFkJPYe9R-258" vertex="1">
          <mxGeometry x="240" width="60" height="40" as="geometry">
            <mxRectangle width="60" height="40" as="alternateBounds" />
          </mxGeometry>
        </mxCell>
        <mxCell id="qIvfzEY7CYZeFkJPYe9R-264" value="(7 : P) - MDIO&lt;div&gt;[V16]&lt;/div&gt;" style="shape=partialRectangle;html=1;whiteSpace=wrap;connectable=0;strokeColor=#996185;overflow=hidden;fillColor=#e6d0de;top=0;left=0;bottom=0;right=0;pointerEvents=1;fontSize=8;gradientColor=#d5739d;" parent="qIvfzEY7CYZeFkJPYe9R-258" vertex="1">
          <mxGeometry x="300" width="60" height="40" as="geometry">
            <mxRectangle width="60" height="40" as="alternateBounds" />
          </mxGeometry>
        </mxCell>
        <mxCell id="tD-QnAMEkrUjMaLcF-ht-1" value="(1 : P) - &lt;font color=&quot;#ff66b3&quot;&gt;ETH_CLK&lt;/font&gt;&lt;div&gt;[U18]&lt;/div&gt;" style="shape=partialRectangle;html=1;whiteSpace=wrap;connectable=0;strokeColor=#82b366;overflow=hidden;fillColor=#d5e8d4;top=0;left=0;bottom=0;right=0;pointerEvents=1;fontSize=8;gradientColor=#97d077;" vertex="1" parent="1">
          <mxGeometry x="470" y="486.08" width="60" height="40" as="geometry">
            <mxRectangle width="60" height="40" as="alternateBounds" />
          </mxGeometry>
        </mxCell>
        <mxCell id="tD-QnAMEkrUjMaLcF-ht-2" value="(7 : P) - TX1&lt;div&gt;[Y18]&lt;/div&gt;" style="shape=partialRectangle;html=1;whiteSpace=wrap;connectable=0;strokeColor=#82b366;overflow=hidden;fillColor=#d5e8d4;top=0;left=0;bottom=0;right=0;pointerEvents=1;fontSize=8;gradientColor=#97d077;" vertex="1" parent="1">
          <mxGeometry x="470" y="446.08" width="60" height="40" as="geometry">
            <mxRectangle width="60" height="40" as="alternateBounds" />
          </mxGeometry>
        </mxCell>
      </root>
    </mxGraphModel>
  </diagram>
</mxfile>
